SplineFontDB: 3.0
FontName: Asap-BoldItalic
FullName: Asap Bold Italic
FamilyName: Asap
Weight: Bold
Copyright: Copyright (c) 2011 by Omnibus-Type (www.omnibus-type.com) with Reserved Font Name "Asap".
Version: 1.001
ItalicAngle: -6
UnderlinePosition: -23
UnderlineWidth: 70
Ascent: 800
Descent: 200
sfntRevision: 0x00010042
LayerCount: 2
Layer: 0 1 "Back"  1
Layer: 1 1 "Fore"  0
XUID: [1021 85 1885331079 10133375]
FSType: 0
OS2Version: 2
OS2_WeightWidthSlopeOnly: 0
OS2_UseTypoMetrics: 1
CreationTime: 1326988595
ModificationTime: 1326994451
PfmFamily: 17
TTFWeight: 700
TTFWidth: 5
LineGap: 0
VLineGap: 0
Panose: 2 0 5 3 4 0 0 9 0 4
OS2TypoAscent: 134
OS2TypoAOffset: 1
OS2TypoDescent: -12
OS2TypoDOffset: 1
OS2TypoLinegap: 0
OS2WinAscent: 0
OS2WinAOffset: 1
OS2WinDescent: 0
OS2WinDOffset: 1
HheadAscent: 0
HheadAOffset: 1
HheadDescent: 0
HheadDOffset: 1
OS2SubXSize: 650
OS2SubYSize: 600
OS2SubXOff: -8
OS2SubYOff: 75
OS2SupXSize: 650
OS2SupYSize: 600
OS2SupXOff: 37
OS2SupYOff: 350
OS2StrikeYSize: 70
OS2StrikeYPos: 313
OS2CodePages: 20000001.00000000
OS2UnicodeRanges: 00000003.00000000.00000000.00000000
DEI: 91125
TtTable: prep
PUSHW_1
 511
SCANCTRL
PUSHB_1
 4
SCANTYPE
EndTTInstrs
ShortTable: maxp 16
  1
  0
  252
  86
  7
  0
  0
  2
  0
  1
  1
  0
  64
  0
  0
  0
EndShort
LangName: 1033 "" "" "Bold Italic" "Omnibus-Type: Asap Bold Italic: 2011" "" "Version 1.001" "" "Asap is a trademark of Omnibus-Type." "Omnibus-Type" "Pablo Cosgaya" "Asap is based on Ancha (designed by Pablo Cosgaya & Hector Gatti). This family, specially developed for screen and desktop use, offers of a standarised character width on all styles, which helps retain the same length on all text lines." "www.omnibus-type.com" "www.omnibus-type.com" "This Font Software is licensed under the SIL Open Font License, Version 1.1. This license is available with a FAQ at: http://scripts.sil.org/OFL" "http://scripts.sil.org/OFL" 
GaspTable: 1 65535 15 1
Encoding: UnicodeBmp
UnicodeInterp: none

StartChar: exclam
Encoding: 33 33 4
Width: 294
GlyphClass: 2
Flags: W
LayerCount: 2
Fore
SplineSet
142 222 m 2,0,-1
 131 222 l 2,1,2
 101 222 101 222 92 229 c 128,-1,3
 83 236 83 236 83 254 c 1,4,-1
 127 670 l 2,5,6
 130 702 130 702 190 702 c 2,7,-1
 233 702 l 2,8,9
 291 702 291 702 291 673 c 0,10,11
 291 653 291 653 196 254 c 0,12,13
 192 237 192 237 181.5 229.5 c 128,-1,14
 171 222 171 222 142 222 c 2,0,-1
113 154 m 2,15,-1
 145 154 l 2,16,17
 202 154 202 154 202 122 c 1,18,-1
 192 30 l 2,19,20
 189 -2 189 -2 129 -2 c 2,21,-1
 97 -2 l 2,22,23
 40 -2 40 -2 40 30 c 1,24,-1
 50 122 l 2,25,26
 53 154 53 154 113 154 c 2,15,-1
EndSplineSet
EndChar

StartChar: quotedbl
Encoding: 34 34 5
Width: 319
GlyphClass: 2
Flags: W
LayerCount: 2
Fore
SplineSet
177 494 m 2,0,-1
 177 670 l 2,1,2
 177 702 177 702 240 702 c 2,3,-1
 247 702 l 2,4,5
 304 702 304 702 304 670 c 1,6,-1
 263 494 l 2,7,8
 256 464 256 464 226 464 c 2,9,-1
 211 464 l 2,10,11
 177 464 177 464 177 494 c 2,0,-1
31 494 m 2,12,-1
 31 670 l 2,13,14
 31 702 31 702 94 702 c 2,15,-1
 101 702 l 2,16,17
 158 702 158 702 158 670 c 1,18,-1
 117 494 l 2,19,20
 110 464 110 464 80 464 c 2,21,-1
 65 464 l 2,22,23
 31 464 31 464 31 494 c 2,12,-1
EndSplineSet
EndChar

StartChar: numbersign
Encoding: 35 35 6
Width: 534
GlyphClass: 2
Flags: W
LayerCount: 2
Fore
SplineSet
21 183 m 2,0,1
 -4 183 -4 183 -4 216 c 0,2,3
 -4 293 -4 293 32 293 c 2,4,-1
 95 293 l 1,5,-1
 128 403 l 1,6,-1
 80 403 l 2,7,8
 54 403 54 403 54 437 c 0,9,10
 54 513 54 513 91 513 c 2,11,-1
 159 513 l 1,12,-1
 200 655 l 2,13,14
 209 686 209 686 260 686 c 2,15,-1
 273 686 l 2,16,17
 315 686 315 686 315 664 c 0,18,19
 315 658 315 658 272 513 c 1,20,-1
 366 513 l 1,21,-1
 407 655 l 2,22,23
 416 686 416 686 467 686 c 2,24,-1
 480 686 l 2,25,26
 522 686 522 686 522 664 c 0,27,28
 522 658 522 658 479 513 c 1,29,-1
 512 513 l 2,30,31
 538 513 538 513 538 479 c 0,32,33
 538 403 538 403 501 403 c 2,34,-1
 448 403 l 1,35,-1
 415 293 l 1,36,-1
 457 293 l 2,37,38
 483 293 483 293 483 259 c 0,39,40
 483 183 483 183 446 183 c 2,41,-1
 384 183 l 1,42,-1
 339 29 l 2,43,44
 330 -2 330 -2 280 -2 c 2,45,-1
 267 -2 l 2,46,47
 225 -2 225 -2 225 21 c 0,48,49
 225 28 225 28 271 183 c 1,50,-1
 177 183 l 1,51,-1
 132 29 l 2,52,53
 123 -2 123 -2 73 -2 c 2,54,-1
 60 -2 l 2,55,56
 17 -2 17 -2 17 21 c 0,57,58
 17 26 17 26 64 183 c 1,59,-1
 21 183 l 2,0,1
208 293 m 1,60,-1
 302 293 l 1,61,-1
 335 403 l 1,62,-1
 241 403 l 1,63,-1
 208 293 l 1,60,-1
EndSplineSet
EndChar

StartChar: dollar
Encoding: 36 36 7
Width: 496
GlyphClass: 2
Flags: W
LayerCount: 2
Fore
SplineSet
480 640 m 0,0,1
 480 619 480 619 456.5 585 c 128,-1,2
 433 551 433 551 416 551 c 0,3,4
 415 551 415 551 383 563 c 128,-1,5
 351 575 351 575 314 576 c 1,6,-1
 298 420 l 1,7,8
 401 373 401 373 430 336 c 0,9,10
 466 291 466 291 466 233 c 0,11,12
 466 118 466 118 404.5 61 c 128,-1,13
 343 4 343 4 253 -6 c 1,14,-1
 248 -55 l 2,15,16
 245 -75 245 -75 226 -75 c 2,17,-1
 209 -75 l 2,18,19
 198 -75 198 -75 194.5 -70.5 c 128,-1,20
 191 -66 191 -66 191 -55 c 1,21,-1
 196 -7 l 1,22,23
 132 -4 132 -4 78 15 c 128,-1,24
 24 34 24 34 24 70 c 0,25,26
 24 181 24 181 50 181 c 0,27,28
 55 181 55 181 76 166 c 0,29,30
 137 123 137 123 204 123 c 2,31,-1
 209 123 l 1,32,-1
 227 289 l 1,33,34
 132 328 132 328 106 354 c 0,35,36
 65 393 65 393 56 423.5 c 128,-1,37
 47 454 47 454 47 483 c 0,38,39
 47 587 47 587 111 642 c 128,-1,40
 175 697 175 697 271 706 c 1,41,-1
 275 745 l 1,42,43
 276 765 276 765 297 765 c 2,44,-1
 314 765 l 2,45,46
 332 765 332 765 332 745 c 1,47,-1
 328 707 l 1,48,49
 394 704 394 704 437 684 c 128,-1,50
 480 664 480 664 480 640 c 0,0,1
196 510 m 0,51,52
 196 474 196 474 243 447 c 1,53,-1
 256 571 l 1,54,55
 196 557 196 557 196 510 c 0,51,52
317 203 m 0,56,57
 317 234 317 234 281 260 c 1,58,-1
 267 133 l 1,59,60
 317 151 317 151 317 203 c 0,56,57
EndSplineSet
EndChar

StartChar: percent
Encoding: 37 37 8
Width: 765
GlyphClass: 2
Flags: W
LayerCount: 2
Fore
SplineSet
197 372 m 0,0,1
 62 372 62 372 62 508 c 0,2,3
 62 567 62 567 78 609 c 128,-1,4
 94 651 94 651 121 671 c 0,5,6
 171 708 171 708 232 708 c 0,7,8
 366 708 366 708 366 573 c 0,9,10
 366 454 366 454 308 410 c 0,11,12
 259 372 259 372 197 372 c 0,0,1
595 702 m 2,13,-1
 639 702 l 2,14,15
 659 702 659 702 659 690 c 0,16,17
 659 684 659 684 653 675 c 2,18,-1
 227 25 l 2,19,20
 210 -2 210 -2 181 -2 c 2,21,-1
 137 -2 l 2,22,23
 117 -2 117 -2 117 10 c 0,24,25
 117 16 117 16 123 25 c 2,26,-1
 549 675 l 2,27,28
 566 702 566 702 595 702 c 2,13,-1
205 454 m 0,29,30
 236 454 236 454 249.5 489.5 c 128,-1,31
 263 525 263 525 263 565 c 0,32,33
 263 622 263 622 223 622 c 0,34,35
 192 622 192 622 178.5 590 c 128,-1,36
 165 558 165 558 165 517 c 0,37,38
 165 454 165 454 205 454 c 0,29,30
544 -8 m 0,39,40
 410 -8 410 -8 410 127 c 0,41,42
 410 246 410 246 468 290 c 1,43,44
 516 328 516 328 579 328 c 0,45,46
 714 328 714 328 714 191 c 0,47,48
 714 132 714 132 698 90.5 c 128,-1,49
 682 49 682 49 655 29 c 0,50,51
 605 -8 605 -8 544 -8 c 0,39,40
552 74 m 0,52,53
 582 74 582 74 596 108.5 c 128,-1,54
 610 143 610 143 610 182 c 0,55,56
 610 242 610 242 570 242 c 0,57,58
 548 242 548 242 534 223 c 0,59,60
 512 191 512 191 512 132.5 c 128,-1,61
 512 74 512 74 552 74 c 0,52,53
EndSplineSet
EndChar

StartChar: ampersand
Encoding: 38 38 9
Width: 624
GlyphClass: 2
Flags: W
LayerCount: 2
Fore
SplineSet
235.5 566 m 128,-1,1
 211 541 211 541 211 503 c 128,-1,2
 211 465 211 465 236 445.5 c 128,-1,3
 261 426 261 426 306 426 c 2,4,-1
 400 426 l 1,5,-1
 409 501 l 2,6,7
 412 533 412 533 472 533 c 2,8,-1
 499 533 l 2,9,10
 527 533 527 533 541.5 524 c 128,-1,11
 556 515 556 515 556 502 c 1,12,-1
 548 426 l 1,13,-1
 607 426 l 2,14,15
 617 426 617 426 620 421.5 c 128,-1,16
 623 417 623 417 623 395 c 128,-1,17
 623 373 623 373 607.5 341 c 128,-1,18
 592 309 592 309 565 309 c 2,19,-1
 536 309 l 1,20,21
 519 145 519 145 519 142 c 0,22,23
 519 109 519 109 549 109 c 0,24,25
 560 109 560 109 573 112 c 128,-1,26
 586 115 586 115 587 115 c 0,27,28
 595 115 595 115 595 100 c 128,-1,29
 595 85 595 85 588 44 c 0,30,31
 584 19 584 19 557 5.5 c 128,-1,32
 530 -8 530 -8 500 -8 c 0,33,34
 430 -8 430 -8 397 32 c 1,35,36
 311 -8 311 -8 214 -8 c 128,-1,37
 117 -8 117 -8 61.5 41 c 128,-1,38
 6 90 6 90 6 169.5 c 128,-1,39
 6 249 6 249 41 304 c 128,-1,40
 76 359 76 359 142 383 c 1,41,-1
 142 387 l 1,42,43
 106 403 106 403 85 435.5 c 128,-1,44
 64 468 64 468 64 512 c 0,45,46
 64 601 64 601 126 654.5 c 128,-1,47
 188 708 188 708 291 708 c 128,-1,48
 394 708 394 708 394 669 c 0,49,50
 394 636 394 636 378 610 c 128,-1,51
 362 584 362 584 350 584 c 1,52,-1
 333 588 l 2,53,54
 316 591 316 591 302 591 c 0,55,0
 260 591 260 591 235.5 566 c 128,-1,1
156 193 m 0,56,57
 156 109 156 109 255 109 c 0,58,59
 306 109 306 109 370 135 c 1,60,-1
 388 309 l 1,61,-1
 285 309 l 2,62,63
 156 309 156 309 156 193 c 0,56,57
EndSplineSet
EndChar

StartChar: quotesingle
Encoding: 39 39 10
Width: 183
GlyphClass: 2
Flags: W
LayerCount: 2
Fore
SplineSet
41 494 m 2,0,-1
 41 670 l 2,1,2
 41 702 41 702 104 702 c 2,3,-1
 111 702 l 2,4,5
 168 702 168 702 168 670 c 1,6,-1
 127 494 l 2,7,8
 120 464 120 464 90 464 c 2,9,-1
 75 464 l 2,10,11
 41 464 41 464 41 494 c 2,0,-1
EndSplineSet
EndChar

StartChar: parenleft
Encoding: 40 40 11
Width: 301
GlyphClass: 2
Flags: W
LayerCount: 2
Fore
SplineSet
46 200 m 0,0,1
 46 350 46 350 99 497 c 128,-1,2
 152 644 152 644 251 767 c 0,3,4
 264 783 264 783 279.5 783 c 128,-1,5
 295 783 295 783 313.5 769 c 128,-1,6
 332 755 332 755 332 742 c 128,-1,7
 332 729 332 729 325 717 c 0,8,9
 162 463 162 463 162 190 c 0,10,11
 162 31 162 31 233 -142 c 0,12,13
 236 -150 236 -150 236 -156 c 0,14,15
 236 -174 236 -174 215 -191 c 128,-1,16
 194 -208 194 -208 176.5 -208 c 128,-1,17
 159 -208 159 -208 149 -192 c 0,18,19
 46 -19 46 -19 46 200 c 0,0,1
EndSplineSet
EndChar

StartChar: parenright
Encoding: 41 41 12
Width: 301
GlyphClass: 2
Flags: W
LayerCount: 2
Fore
SplineSet
46 -192 m 0,0,1
 33 -208 33 -208 17.5 -208 c 128,-1,2
 2 -208 2 -208 -16 -194 c 128,-1,3
 -34 -180 -34 -180 -34 -167 c 128,-1,4
 -34 -154 -34 -154 -27 -143 c 0,5,6
 58 -6 58 -6 96 119.5 c 128,-1,7
 134 245 134 245 134 396 c 128,-1,8
 134 547 134 547 63 717 c 0,9,10
 59 727 59 727 59 731 c 0,11,12
 59 749 59 749 80.5 766 c 128,-1,13
 102 783 102 783 119.5 783 c 128,-1,14
 137 783 137 783 147 767 c 0,15,16
 251 591 251 591 251 378 c 0,17,18
 251 62 251 62 46 -192 c 0,0,1
EndSplineSet
EndChar

StartChar: asterisk
Encoding: 42 42 13
Width: 373
GlyphClass: 2
Flags: W
LayerCount: 2
Fore
SplineSet
67 623 m 0,0,1
 71 623 71 623 81 621 c 1,2,-1
 155 596 l 1,3,-1
 164 678 l 2,4,5
 167 708 167 708 197 708 c 0,6,7
 213 708 213 708 218.5 701 c 128,-1,8
 224 694 224 694 224 678 c 1,9,-1
 215 596 l 1,10,-1
 293 621 l 1,11,12
 303 623 303 623 309.5 623 c 128,-1,13
 316 623 316 623 323.5 614.5 c 128,-1,14
 331 606 331 606 331 588 c 128,-1,15
 331 570 331 570 307 563 c 2,16,-1
 228 539 l 1,17,-1
 277 460 l 2,18,19
 283 451 283 451 283 442.5 c 128,-1,20
 283 434 283 434 271 422.5 c 128,-1,21
 259 411 259 411 246.5 411 c 128,-1,22
 234 411 234 411 225 426 c 2,23,-1
 175 509 l 1,24,-1
 107 426 l 2,25,26
 95 411 95 411 84 411 c 128,-1,27
 73 411 73 411 62.5 420.5 c 128,-1,28
 52 430 52 430 52 439.5 c 128,-1,29
 52 449 52 449 63 460 c 1,30,-1
 127 539 l 1,31,-1
 55 563 l 2,32,33
 36 569 36 569 36 585 c 0,34,35
 36 594 36 594 40 602 c 0,36,37
 50 623 50 623 67 623 c 0,0,1
EndSplineSet
EndChar

StartChar: plus
Encoding: 43 43 14
Width: 560
GlyphClass: 2
Flags: W
LayerCount: 2
Fore
SplineSet
39 216 m 0,0,1
 39 289 39 289 76 289 c 2,2,-1
 227 289 l 1,3,-1
 243 443 l 2,4,5
 246 473 246 473 296 473 c 2,6,-1
 310 473 l 2,7,8
 337 473 337 473 347 466 c 128,-1,9
 357 459 357 459 357 443 c 1,10,-1
 341 289 l 1,11,-1
 494 289 l 2,12,13
 520 289 520 289 520 253 c 0,14,15
 520 182 520 182 483 182 c 2,16,-1
 330 182 l 1,17,-1
 314 30 l 2,18,19
 311 0 311 0 261 0 c 2,20,-1
 247 0 l 2,21,22
 220 0 220 0 210 7 c 128,-1,23
 200 14 200 14 200 30 c 1,24,-1
 216 182 l 1,25,-1
 65 182 l 2,26,27
 39 182 39 182 39 216 c 0,0,1
EndSplineSet
EndChar

StartChar: comma
Encoding: 44 44 15
Width: 198
GlyphClass: 2
Flags: W
LayerCount: 2
Fore
SplineSet
109 154 m 2,0,-1
 128 154 l 2,1,2
 184 154 184 154 184 114 c 128,-1,3
 184 74 184 74 153 16 c 128,-1,4
 122 -42 122 -42 83 -83.5 c 128,-1,5
 44 -125 44 -125 21 -125 c 0,6,7
 -21 -125 -21 -125 -21 -105 c 0,8,9
 -21 -94 -21 -94 -8 -70 c 0,10,11
 33 8 33 8 45 110 c 1,12,13
 48 154 48 154 109 154 c 2,0,-1
EndSplineSet
EndChar

StartChar: hyphen
Encoding: 45 45 16
Width: 320
GlyphClass: 2
Flags: W
LayerCount: 2
Fore
SplineSet
26 246 m 0,0,1
 26 319 26 319 63 319 c 2,2,-1
 267 319 l 2,3,4
 293 319 293 319 293 285 c 0,5,6
 293 212 293 212 256 212 c 2,7,-1
 52 212 l 2,8,9
 26 212 26 212 26 246 c 0,0,1
EndSplineSet
EndChar

StartChar: period
Encoding: 46 46 17
Width: 198
GlyphClass: 2
Flags: W
LayerCount: 2
Fore
SplineSet
90 154 m 2,0,-1
 122 154 l 2,1,2
 178 154 178 154 178 122 c 1,3,-1
 169 30 l 2,4,5
 166 -2 166 -2 105 -2 c 2,6,-1
 73 -2 l 2,7,8
 40 -2 40 -2 28.5 5.5 c 128,-1,9
 17 13 17 13 17 30 c 1,10,-1
 26 122 l 2,11,12
 29 154 29 154 90 154 c 2,0,-1
EndSplineSet
EndChar

StartChar: slash
Encoding: 47 47 18
Width: 370
GlyphClass: 2
Flags: W
LayerCount: 2
Fore
SplineSet
367 702 m 2,0,-1
 391 702 l 2,1,2
 431 702 431 702 431 687 c 0,3,4
 431 682 431 682 426 672 c 2,5,-1
 60 -49 l 2,6,7
 45 -79 45 -79 -4 -79 c 2,8,-1
 -28 -79 l 2,9,10
 -69 -79 -69 -79 -69 -64 c 0,11,12
 -69 -60 -69 -60 -63 -49 c 2,13,-1
 302 672 l 2,14,15
 317 702 317 702 367 702 c 2,0,-1
EndSplineSet
EndChar

StartChar: zero
Encoding: 48 48 19
Width: 535
GlyphClass: 2
Flags: W
LayerCount: 2
Fore
SplineSet
229 -8 m 0,0,1
 132 -8 132 -8 78.5 65 c 128,-1,2
 25 138 25 138 25 271 c 0,3,4
 25 472 25 472 103 590 c 128,-1,5
 181 708 181 708 304 708 c 0,6,7
 401 708 401 708 454.5 634 c 128,-1,8
 508 560 508 560 508 426 c 0,9,10
 508 227 508 227 429.5 109.5 c 128,-1,11
 351 -8 351 -8 229 -8 c 0,0,1
241 109 m 0,12,13
 289 109 289 109 324 197.5 c 128,-1,14
 359 286 359 286 359 438.5 c 128,-1,15
 359 591 359 591 292 591 c 0,16,17
 243 591 243 591 208.5 502 c 128,-1,18
 174 413 174 413 174 261 c 128,-1,19
 174 109 174 109 241 109 c 0,12,13
EndSplineSet
EndChar

StartChar: one
Encoding: 49 49 20
Width: 535
GlyphClass: 2
Flags: W
LayerCount: 2
Fore
SplineSet
446 0 m 2,0,-1
 58 0 l 2,1,2
 32 0 32 0 32 36 c 0,3,4
 32 117 32 117 70 117 c 2,5,-1
 203 117 l 1,6,-1
 250 566 l 1,7,-1
 112 546 l 1,8,9
 88 546 88 546 88 605 c 0,10,11
 88 636 88 636 96 646 c 128,-1,12
 104 656 104 656 118 658 c 2,13,-1
 371 704 l 1,14,15
 384 704 384 704 397 696.5 c 128,-1,16
 410 689 410 689 410 680 c 2,17,-1
 351 117 l 1,18,-1
 458 117 l 2,19,20
 484 117 484 117 484 81 c 0,21,22
 484 0 484 0 446 0 c 2,0,-1
EndSplineSet
EndChar

StartChar: two
Encoding: 50 50 21
Width: 535
GlyphClass: 2
Flags: W
LayerCount: 2
Fore
SplineSet
434 117 m 2,0,1
 460 117 460 117 460 81 c 0,2,3
 460 0 460 0 421 0 c 2,4,-1
 34 0 l 2,5,6
 23 0 23 0 14.5 29.5 c 128,-1,7
 6 59 6 59 6 78 c 128,-1,8
 6 97 6 97 9 103 c 1,9,-1
 295 413 l 2,10,11
 343 465 343 465 343 518 c 0,12,13
 343 553 343 553 320 571.5 c 128,-1,14
 297 590 297 590 256.5 590 c 128,-1,15
 216 590 216 590 178 568.5 c 128,-1,16
 140 547 140 547 137 547 c 0,17,18
 117 547 117 547 102 568.5 c 128,-1,19
 87 590 87 590 87 616 c 128,-1,20
 87 642 87 642 122 666 c 0,21,22
 185 708 185 708 283 708 c 128,-1,23
 381 708 381 708 437.5 658.5 c 128,-1,24
 494 609 494 609 494 535.5 c 128,-1,25
 494 462 494 462 442 391.5 c 128,-1,26
 390 321 390 321 196 117 c 1,27,-1
 434 117 l 2,0,1
EndSplineSet
EndChar

StartChar: three
Encoding: 51 51 22
Width: 535
GlyphClass: 2
Flags: W
LayerCount: 2
Fore
SplineSet
60 22 m 0,0,1
 41 35 41 35 41 55 c 0,2,3
 41 149 41 149 65 149 c 0,4,5
 68 149 68 149 86 139 c 0,6,7
 140 109 140 109 197 109 c 128,-1,8
 254 109 254 109 284 139.5 c 128,-1,9
 314 170 314 170 314 224 c 0,10,11
 314 309 314 309 207 309 c 2,12,-1
 178 309 l 2,13,14
 152 309 152 309 152 345 c 0,15,16
 152 426 152 426 191 426 c 2,17,-1
 210 426 l 2,18,19
 263 426 263 426 293 452.5 c 128,-1,20
 323 479 323 479 323 516 c 0,21,22
 323 590 323 590 250 590 c 0,23,24
 205 590 205 590 167.5 574.5 c 128,-1,25
 130 559 130 559 128 559 c 0,26,27
 114 559 114 559 100 584.5 c 128,-1,28
 86 610 86 610 86 632 c 0,29,30
 86 669 86 669 146 688.5 c 128,-1,31
 206 708 206 708 291 708 c 128,-1,32
 376 708 376 708 426 666.5 c 128,-1,33
 476 625 476 625 476 560.5 c 128,-1,34
 476 496 476 496 446 451.5 c 128,-1,35
 416 407 416 407 366 387 c 1,36,-1
 366 383 l 1,37,38
 464 344 464 344 464 233 c 128,-1,39
 464 122 464 122 393.5 57 c 128,-1,40
 323 -8 323 -8 212.5 -8 c 128,-1,41
 102 -8 102 -8 60 22 c 0,0,1
EndSplineSet
EndChar

StartChar: four
Encoding: 52 52 23
Width: 535
GlyphClass: 2
Flags: W
LayerCount: 2
Fore
SplineSet
474 142 m 2,0,-1
 436 142 l 1,1,-1
 424 30 l 2,2,3
 421 -2 421 -2 361 -2 c 2,4,-1
 333 -2 l 2,5,6
 276 -2 276 -2 276 30 c 1,7,-1
 288 142 l 1,8,-1
 26 142 l 2,9,10
 15 142 15 142 7 172 c 128,-1,11
 -1 202 -1 202 -1 222.5 c 128,-1,12
 -1 243 -1 243 2 246 c 2,13,-1
 344 683 l 2,14,15
 359 702 359 702 407 702 c 2,16,-1
 434 702 l 2,17,18
 491 702 491 702 491 670 c 1,19,-1
 448 259 l 1,20,-1
 487 259 l 2,21,22
 513 259 513 259 513 223 c 0,23,24
 513 142 513 142 474 142 c 2,0,-1
150 259 m 1,25,-1
 300 259 l 1,26,-1
 324 488 l 1,27,-1
 320 489 l 1,28,-1
 150 259 l 1,25,-1
EndSplineSet
EndChar

StartChar: five
Encoding: 53 53 24
Width: 535
GlyphClass: 2
Flags: W
LayerCount: 2
Fore
SplineSet
131.5 119 m 128,-1,1
 165 109 165 109 214 109 c 128,-1,2
 263 109 263 109 294.5 142 c 128,-1,3
 326 175 326 175 326 233 c 0,4,5
 326 323 326 323 212 323 c 2,6,-1
 103 323 l 2,7,8
 84 323 84 323 76.5 329 c 128,-1,9
 69 335 69 335 69 346 c 128,-1,10
 69 357 69 357 120 660 c 0,11,12
 124 681 124 681 134.5 690.5 c 128,-1,13
 145 700 145 700 167 700 c 2,14,-1
 462 700 l 2,15,16
 488 700 488 700 488 664 c 0,17,18
 488 583 488 583 449 583 c 2,19,-1
 247 583 l 1,20,-1
 222 440 l 1,21,-1
 248 440 l 2,22,23
 360 440 360 440 419 398 c 128,-1,24
 478 356 478 356 478 255 c 0,25,26
 478 183 478 183 453 130 c 128,-1,27
 428 77 428 77 386 48 c 0,28,29
 303 -8 303 -8 196 -8 c 0,30,31
 35 -8 35 -8 35 55 c 0,32,33
 35 149 35 149 59 149 c 0,34,35
 63 149 63 149 80.5 139 c 128,-1,0
 98 129 98 129 131.5 119 c 128,-1,1
EndSplineSet
EndChar

StartChar: six
Encoding: 54 54 25
Width: 535
GlyphClass: 2
Flags: W
LayerCount: 2
Fore
SplineSet
429 389 m 0,0,1
 457 369 457 369 474.5 332 c 128,-1,2
 492 295 492 295 492 237.5 c 128,-1,3
 492 180 492 180 468 129 c 128,-1,4
 444 78 444 78 405 50 c 0,5,6
 326 -8 326 -8 234.5 -8 c 128,-1,7
 143 -8 143 -8 81.5 45 c 128,-1,8
 20 98 20 98 20 207.5 c 128,-1,9
 20 317 20 317 59 407.5 c 128,-1,10
 98 498 98 498 152 550.5 c 128,-1,11
 206 603 206 603 267 640 c 128,-1,12
 328 677 328 677 368.5 690.5 c 128,-1,13
 409 704 409 704 427 704 c 128,-1,14
 445 704 445 704 455 678 c 128,-1,15
 465 652 465 652 465 632.5 c 128,-1,16
 465 613 465 613 462 607.5 c 128,-1,17
 459 602 459 602 450 600 c 0,18,19
 328 563 328 563 255 473 c 0,20,21
 228 440 228 440 212 403 c 1,22,23
 261 428 261 428 317.5 428 c 128,-1,24
 374 428 374 428 429 389 c 0,0,1
320 289.5 m 128,-1,26
 299 311 299 311 261.5 311 c 128,-1,27
 224 311 224 311 178 287 c 1,28,29
 170 235 170 235 170 209 c 0,30,31
 170 109 170 109 244 109 c 0,32,33
 284 109 284 109 312.5 143 c 128,-1,34
 341 177 341 177 341 222.5 c 128,-1,25
 341 268 341 268 320 289.5 c 128,-1,26
EndSplineSet
EndChar

StartChar: seven
Encoding: 55 55 26
Width: 535
GlyphClass: 2
Flags: W
LayerCount: 2
Fore
SplineSet
92 583 m 2,0,1
 65 583 65 583 65 619 c 0,2,3
 65 700 65 700 104 700 c 2,4,-1
 500 700 l 2,5,6
 507 700 507 700 514 672.5 c 128,-1,7
 521 645 521 645 521 624.5 c 128,-1,8
 521 604 521 604 518 597 c 2,9,-1
 199 18 l 2,10,11
 188 -2 188 -2 139 -2 c 2,12,-1
 97 -2 l 2,13,14
 41 -2 41 -2 41 17 c 0,15,16
 41 25 41 25 48 36 c 2,17,-1
 353 583 l 1,18,-1
 92 583 l 2,0,1
EndSplineSet
EndChar

StartChar: eight
Encoding: 56 56 27
Width: 535
GlyphClass: 2
Flags: W
LayerCount: 2
Fore
SplineSet
66 43 m 128,-1,1
 11 94 11 94 11 166.5 c 128,-1,2
 11 239 11 239 42.5 295.5 c 128,-1,3
 74 352 74 352 132 375 c 1,4,5
 72 418 72 418 72 500 c 128,-1,6
 72 582 72 582 135.5 645 c 128,-1,7
 199 708 199 708 313 708 c 0,8,9
 402 708 402 708 452.5 663.5 c 128,-1,10
 503 619 503 619 503 552 c 0,11,12
 503 438 503 438 399 385 c 1,13,14
 491 342 491 342 491 226 c 0,15,16
 491 144 491 144 436 73 c 0,17,18
 408 37 408 37 355.5 14.5 c 128,-1,19
 303 -8 303 -8 233 -8 c 0,20,0
 121 -8 121 -8 66 43 c 128,-1,1
339.5 575 m 128,-1,22
 322 591 322 591 293.5 591 c 128,-1,23
 265 591 265 591 242 570.5 c 128,-1,24
 219 550 219 550 219 516.5 c 128,-1,25
 219 483 219 483 238 465 c 128,-1,26
 257 447 257 447 293 432 c 1,27,28
 357 471 357 471 357 532 c 0,29,21
 357 559 357 559 339.5 575 c 128,-1,22
183.5 131.5 m 128,-1,31
 205 109 205 109 242.5 109 c 128,-1,32
 280 109 280 109 310 138 c 128,-1,33
 340 167 340 167 340 211.5 c 128,-1,34
 340 256 340 256 315 279 c 128,-1,35
 290 302 290 302 230 326 c 1,36,37
 162 281 162 281 162 193 c 0,38,30
 162 154 162 154 183.5 131.5 c 128,-1,31
EndSplineSet
EndChar

StartChar: nine
Encoding: 57 57 28
Width: 535
GlyphClass: 2
Flags: W
LayerCount: 2
Fore
SplineSet
103 311 m 0,0,1
 75 331 75 331 57.5 368 c 128,-1,2
 40 405 40 405 40 462.5 c 128,-1,3
 40 520 40 520 64 571 c 128,-1,4
 88 622 88 622 127 650 c 0,5,6
 206 708 206 708 297.5 708 c 128,-1,7
 389 708 389 708 450.5 655 c 128,-1,8
 512 602 512 602 512 492.5 c 128,-1,9
 512 383 512 383 473 292.5 c 128,-1,10
 434 202 434 202 380 149.5 c 128,-1,11
 326 97 326 97 265 60 c 128,-1,12
 204 23 204 23 163.5 9.5 c 128,-1,13
 123 -4 123 -4 105 -4 c 128,-1,14
 87 -4 87 -4 77 22 c 128,-1,15
 67 48 67 48 67 67.5 c 128,-1,16
 67 87 67 87 70 92.5 c 128,-1,17
 73 98 73 98 82 100 c 0,18,19
 204 137 204 137 277 227 c 0,20,21
 304 260 304 260 320 297 c 1,22,23
 271 272 271 272 214.5 272 c 128,-1,24
 158 272 158 272 103 311 c 0,0,1
212 410.5 m 128,-1,26
 233 389 233 389 270.5 389 c 128,-1,27
 308 389 308 389 354 413 c 1,28,29
 362 465 362 465 362 491 c 0,30,31
 362 591 362 591 288 591 c 0,32,33
 248 591 248 591 219.5 557 c 128,-1,34
 191 523 191 523 191 477.5 c 128,-1,25
 191 432 191 432 212 410.5 c 128,-1,26
EndSplineSet
EndChar

StartChar: colon
Encoding: 58 58 29
Width: 198
GlyphClass: 2
Flags: W
LayerCount: 2
Fore
SplineSet
109 525 m 2,0,-1
 141 525 l 2,1,2
 198 525 198 525 198 493 c 1,3,-1
 188 401 l 2,4,5
 185 369 185 369 125 369 c 2,6,-1
 93 369 l 2,7,8
 36 369 36 369 36 401 c 1,9,-1
 46 493 l 2,10,11
 49 525 49 525 109 525 c 2,0,-1
70 154 m 2,12,-1
 102 154 l 2,13,14
 159 154 159 154 159 122 c 1,15,-1
 149 30 l 2,16,17
 146 -2 146 -2 86 -2 c 2,18,-1
 54 -2 l 2,19,20
 -2 -2 -2 -2 -2 30 c 1,21,-1
 7 122 l 2,22,23
 10 154 10 154 70 154 c 2,12,-1
EndSplineSet
EndChar

StartChar: semicolon
Encoding: 59 59 30
Width: 198
GlyphClass: 2
Flags: W
LayerCount: 2
Fore
SplineSet
115 525 m 2,0,-1
 147 525 l 2,1,2
 204 525 204 525 204 493 c 1,3,-1
 194 401 l 2,4,5
 191 369 191 369 131 369 c 2,6,-1
 99 369 l 2,7,8
 42 369 42 369 42 401 c 1,9,-1
 52 493 l 1,10,11
 54 525 54 525 115 525 c 2,0,-1
89 154 m 2,12,-1
 108 154 l 2,13,14
 164 154 164 154 164 114 c 128,-1,15
 164 74 164 74 133 16 c 128,-1,16
 102 -42 102 -42 63 -83.5 c 128,-1,17
 24 -125 24 -125 1 -125 c 0,18,19
 -41 -125 -41 -125 -41 -105 c 0,20,21
 -41 -94 -41 -94 -28 -70 c 0,22,23
 13 8 13 8 25 110 c 1,24,25
 28 154 28 154 89 154 c 2,12,-1
EndSplineSet
EndChar

StartChar: less
Encoding: 60 60 31
Width: 560
GlyphClass: 2
Flags: W
LayerCount: 2
Fore
SplineSet
36 227 m 0,0,1
 36 283 36 283 71 297 c 2,2,-1
 509 476 l 1,3,4
 517 478 517 478 520 478 c 0,5,6
 536 478 536 478 536 453 c 0,7,8
 536 376 536 376 497 361 c 2,9,-1
 193 245 l 1,10,-1
 473 129 l 2,11,12
 498 118 498 118 498 82 c 0,13,14
 498 11 498 11 471 11 c 0,15,16
 467 11 467 11 461 14 c 2,17,-1
 60 194 l 2,18,19
 36 204 36 204 36 227 c 0,0,1
EndSplineSet
EndChar

StartChar: equal
Encoding: 61 61 32
Width: 560
GlyphClass: 2
Flags: W
LayerCount: 2
Fore
SplineSet
47 301 m 0,0,1
 47 374 47 374 84 374 c 2,2,-1
 504 374 l 2,3,4
 530 374 530 374 530 340 c 0,5,6
 530 267 530 267 493 267 c 2,7,-1
 73 267 l 2,8,9
 47 267 47 267 47 301 c 0,0,1
28 120 m 0,10,11
 28 193 28 193 65 193 c 2,12,-1
 485 193 l 2,13,14
 511 193 511 193 511 159 c 0,15,16
 511 86 511 86 474 86 c 2,17,-1
 54 86 l 2,18,19
 28 86 28 86 28 120 c 0,10,11
EndSplineSet
EndChar

StartChar: greater
Encoding: 62 62 33
Width: 560
GlyphClass: 2
Flags: W
LayerCount: 2
Fore
SplineSet
517 263 m 0,0,1
 517 207 517 207 482 193 c 2,2,-1
 44 14 l 1,3,4
 36 12 36 12 33 12 c 0,5,6
 17 12 17 12 17 37 c 0,7,8
 17 114 17 114 56 129 c 2,9,-1
 360 245 l 1,10,-1
 80 361 l 2,11,12
 55 371 55 371 55 408 c 0,13,14
 55 479 55 479 82 479 c 0,15,16
 86 479 86 479 92 476 c 2,17,-1
 493 296 l 2,18,19
 517 285 517 285 517 263 c 0,0,1
EndSplineSet
EndChar

StartChar: question
Encoding: 63 63 34
Width: 445
GlyphClass: 2
Flags: W
LayerCount: 2
Fore
SplineSet
184 222 m 2,0,-1
 161 222 l 2,1,2
 134 222 134 222 124.5 228.5 c 128,-1,3
 115 235 115 235 115 260.5 c 128,-1,4
 115 286 115 286 134 320.5 c 128,-1,5
 153 355 153 355 179.5 381.5 c 128,-1,6
 206 408 206 408 233 432 c 0,7,8
 298 491 298 491 298 528 c 0,9,10
 298 576 298 576 230 576 c 0,11,12
 196 576 196 576 156 560.5 c 128,-1,13
 116 545 116 545 115 545 c 0,14,15
 96 545 96 545 78 575 c 128,-1,16
 60 605 60 605 60 629 c 128,-1,17
 60 653 60 653 94 673 c 0,18,19
 155 708 155 708 253 708 c 128,-1,20
 351 708 351 708 403.5 666.5 c 128,-1,21
 456 625 456 625 456 552 c 0,22,23
 456 504 456 504 436.5 465 c 128,-1,24
 417 426 417 426 388 399.5 c 128,-1,25
 359 373 359 373 329 350 c 0,26,27
 253 294 253 294 240 249 c 1,28,29
 233 233 233 233 221 227.5 c 128,-1,30
 209 222 209 222 184 222 c 2,0,-1
149 154 m 2,31,-1
 181 154 l 2,32,33
 237 154 237 154 237 122 c 1,34,-1
 228 30 l 2,35,36
 225 -2 225 -2 164 -2 c 2,37,-1
 132 -2 l 2,38,39
 99 -2 99 -2 87.5 5.5 c 128,-1,40
 76 13 76 13 76 30 c 1,41,-1
 85 122 l 2,42,43
 88 154 88 154 149 154 c 2,31,-1
EndSplineSet
EndChar

StartChar: at
Encoding: 64 64 35
Width: 974
GlyphClass: 2
Flags: W
LayerCount: 2
Fore
SplineSet
670 477 m 1,0,-1
 639 177 l 1,1,2
 639 141 639 141 674 141 c 0,3,4
 726 141 726 141 764.5 213 c 128,-1,5
 803 285 803 285 803 383 c 0,6,7
 803 505 803 505 729 579.5 c 128,-1,8
 655 654 655 654 534 654 c 0,9,10
 372 654 372 654 260 534 c 128,-1,11
 148 414 148 414 148 240 c 0,12,13
 148 102 148 102 220.5 16.5 c 128,-1,14
 293 -69 293 -69 410 -69 c 0,15,16
 488 -69 488 -69 538 -46 c 0,17,18
 556 -38 556 -38 560.5 -38 c 128,-1,19
 565 -38 565 -38 565 -49.5 c 128,-1,20
 565 -61 565 -61 562 -76 c 0,21,22
 557 -102 557 -102 506 -112.5 c 128,-1,23
 455 -123 455 -123 410 -123 c 0,24,25
 265 -123 265 -123 174.5 -22.5 c 128,-1,26
 84 78 84 78 84 240 c 0,27,28
 84 437 84 437 214 572.5 c 128,-1,29
 344 708 344 708 534 708 c 0,30,31
 685 708 685 708 776 619 c 128,-1,32
 867 530 867 530 867 388.5 c 128,-1,33
 867 247 867 247 799.5 152.5 c 128,-1,34
 732 58 732 58 638.5 58 c 128,-1,35
 545 58 545 58 520 122 c 1,36,37
 482 58 482 58 407 58 c 0,38,39
 345 58 345 58 308.5 105 c 128,-1,40
 272 152 272 152 272 239 c 0,41,42
 272 359 272 359 323.5 433.5 c 128,-1,43
 375 508 375 508 457 508 c 0,44,45
 514 508 514 508 559 463 c 1,46,47
 565 486 565 486 575 494.5 c 128,-1,48
 585 503 585 503 611 503 c 2,49,-1
 623 503 l 2,50,51
 670 503 670 503 670 477 c 1,0,-1
454 159 m 0,52,53
 488 159 488 159 519 207 c 1,54,-1
 532 338 l 1,55,-1
 540 387 l 1,56,57
 515 410 515 410 486 410 c 0,58,59
 444 410 444 410 420.5 368 c 128,-1,60
 397 326 397 326 397 242.5 c 128,-1,61
 397 159 397 159 454 159 c 0,52,53
EndSplineSet
EndChar

StartChar: A
Encoding: 65 65 36
Width: 613
GlyphClass: 2
Flags: W
LayerCount: 2
Fore
SplineSet
319 702 m 2,0,-1
 371 702 l 2,1,2
 421 702 421 702 426 681 c 2,3,-1
 584 38 l 2,4,5
 587 29 587 29 587 21 c 0,6,7
 587 -2 587 -2 533 -2 c 2,8,-1
 489 -2 l 2,9,10
 440 -2 440 -2 435 19 c 2,11,-1
 406 141 l 1,12,-1
 164 141 l 1,13,-1
 109 19 l 2,14,15
 99 -2 99 -2 61 -2 c 2,16,-1
 21 -2 l 2,17,18
 -37 -2 -37 -2 -37 18 c 0,19,20
 -37 26 -37 26 -31 38 c 2,21,-1
 260 681 l 2,22,23
 269 702 269 702 319 702 c 2,0,-1
301 451 m 2,24,-1
 221 273 l 1,25,-1
 375 273 l 1,26,-1
 335 451 l 1,27,-1
 327 515 l 1,28,-1
 323 515 l 1,29,30
 309 468 309 468 301 451 c 2,24,-1
EndSplineSet
EndChar

StartChar: B
Encoding: 66 66 37
Width: 593
GlyphClass: 2
Flags: W
LayerCount: 2
Fore
SplineSet
149 700 m 2,0,-1
 347 700 l 2,1,2
 460 700 460 700 513 659 c 128,-1,3
 566 618 566 618 566 553 c 128,-1,4
 566 488 566 488 531 440.5 c 128,-1,5
 496 393 496 393 441 371 c 1,6,-1
 441 367 l 1,7,8
 495 356 495 356 527.5 314.5 c 128,-1,9
 560 273 560 273 560 220 c 0,10,11
 560 115 560 115 488 57.5 c 128,-1,12
 416 0 416 0 288 0 c 2,13,-1
 76 0 l 2,14,15
 56 0 56 0 48 7 c 128,-1,16
 40 14 40 14 40 25 c 128,-1,17
 40 36 40 36 56.5 192.5 c 128,-1,18
 73 349 73 349 105 660 c 0,19,20
 109 700 109 700 149 700 c 2,0,-1
303 421 m 2,21,22
 350 421 350 421 377 445.5 c 128,-1,23
 404 470 404 470 404 507 c 0,24,25
 404 570 404 570 321 570 c 2,26,-1
 250 570 l 1,27,-1
 234 421 l 1,28,-1
 303 421 l 2,21,22
301 131 m 2,29,30
 347 131 347 131 374.5 154.5 c 128,-1,31
 402 178 402 178 402 221 c 0,32,33
 402 290 402 290 302 290 c 2,34,-1
 220 290 l 1,35,-1
 203 131 l 1,36,-1
 301 131 l 2,29,30
EndSplineSet
EndChar

StartChar: C
Encoding: 67 67 38
Width: 619
GlyphClass: 2
Flags: W
LayerCount: 2
Fore
SplineSet
239 673.5 m 128,-1,1
 314 708 314 708 401 708 c 128,-1,2
 488 708 488 708 553.5 688.5 c 128,-1,3
 619 669 619 669 619 640 c 0,4,5
 619 619 619 619 590.5 581.5 c 128,-1,6
 562 544 562 544 544 544 c 0,7,8
 541 544 541 544 524 552 c 0,9,10
 475 576 475 576 400 576 c 0,11,12
 303 576 303 576 252 506 c 128,-1,13
 201 436 201 436 201 298 c 0,14,15
 201 123 201 123 351 123 c 0,16,17
 401 123 401 123 447.5 136.5 c 128,-1,18
 494 150 494 150 521.5 164 c 128,-1,19
 549 178 549 178 552 178 c 0,20,21
 564 178 564 178 564 163 c 0,22,23
 564 121 564 121 554 68 c 0,24,25
 546 28 546 28 472 10 c 128,-1,26
 398 -8 398 -8 337 -8 c 0,27,28
 187 -8 187 -8 114.5 61.5 c 128,-1,29
 42 131 42 131 42 276 c 0,30,31
 42 458 42 458 122 578 c 1,32,0
 164 639 164 639 239 673.5 c 128,-1,1
EndSplineSet
EndChar

StartChar: D
Encoding: 68 68 39
Width: 695
GlyphClass: 2
Flags: W
LayerCount: 2
Fore
SplineSet
149 700 m 2,0,-1
 373 700 l 2,1,2
 513 700 513 700 586.5 625.5 c 128,-1,3
 660 551 660 551 660 411 c 0,4,5
 660 215 660 215 563.5 107.5 c 128,-1,6
 467 0 467 0 300 0 c 2,7,-1
 76 0 l 2,8,9
 56 0 56 0 48 7.5 c 128,-1,10
 40 15 40 15 40 33 c 1,11,-1
 105 660 l 2,12,13
 109 700 109 700 149 700 c 2,0,-1
313 131 m 2,14,15
 400 131 400 131 450.5 200.5 c 128,-1,16
 501 270 501 270 501 397 c 0,17,18
 501 569 501 569 360 569 c 2,19,-1
 251 569 l 1,20,-1
 204 131 l 1,21,-1
 313 131 l 2,14,15
EndSplineSet
EndChar

StartChar: E
Encoding: 69 69 40
Width: 546
GlyphClass: 2
Flags: W
LayerCount: 2
Fore
SplineSet
149 700 m 2,0,-1
 515 700 l 2,1,2
 541 700 541 700 541 660 c 0,3,4
 541 569 541 569 503 569 c 2,5,-1
 251 569 l 1,6,-1
 235 424 l 1,7,-1
 459 424 l 2,8,9
 485 424 485 424 485 384 c 0,10,11
 485 293 485 293 447 293 c 2,12,-1
 222 293 l 1,13,-1
 204 131 l 1,14,-1
 456 131 l 2,15,16
 482 131 482 131 482 91 c 0,17,18
 482 0 482 0 444 0 c 2,19,-1
 76 0 l 2,20,21
 56 0 56 0 48 7 c 128,-1,22
 40 14 40 14 40 32 c 1,23,-1
 105 660 l 2,24,25
 109 700 109 700 149 700 c 2,0,-1
EndSplineSet
EndChar

StartChar: F
Encoding: 70 70 41
Width: 503
GlyphClass: 2
Flags: W
LayerCount: 2
Fore
SplineSet
134 -2 m 2,0,-1
 99 -2 l 2,1,2
 42 -2 42 -2 42 29 c 1,3,-1
 108 660 l 2,4,5
 112 700 112 700 152 700 c 2,6,-1
 487 700 l 2,7,8
 513 700 513 700 513 660 c 0,9,10
 513 569 513 569 475 569 c 2,11,-1
 254 569 l 1,12,-1
 238 423 l 1,13,-1
 451 423 l 2,14,15
 477 423 477 423 477 383 c 0,16,17
 477 292 477 292 439 292 c 2,18,-1
 225 292 l 1,19,-1
 197 30 l 2,20,21
 194 -2 194 -2 134 -2 c 2,0,-1
EndSplineSet
EndChar

StartChar: G
Encoding: 71 71 42
Width: 672
GlyphClass: 2
Flags: W
LayerCount: 2
Fore
SplineSet
355 258 m 2,0,1
 329 258 329 258 329 298 c 0,2,3
 329 389 329 389 367 389 c 2,4,-1
 571 389 l 2,5,6
 591 389 591 389 599.5 382 c 128,-1,7
 608 375 608 375 608 358 c 1,8,-1
 577 71 l 2,9,10
 574 47 574 47 547 30 c 128,-1,11
 520 13 520 13 478 6 c 0,12,13
 404 -8 404 -8 336 -8 c 0,14,15
 186 -8 186 -8 113.5 61.5 c 128,-1,16
 41 131 41 131 41 276 c 0,17,18
 41 491 41 491 137 599.5 c 128,-1,19
 233 708 233 708 416 708 c 0,20,21
 487 708 487 708 553 688.5 c 128,-1,22
 619 669 619 669 619 640 c 0,23,24
 619 619 619 619 590.5 581.5 c 128,-1,25
 562 544 562 544 544 544 c 0,26,27
 541 544 541 544 524 552 c 0,28,29
 475 576 475 576 399 576 c 0,30,31
 302 576 302 576 251 506 c 128,-1,32
 200 436 200 436 200 298 c 0,33,34
 200 123 200 123 350 123 c 0,35,36
 390 123 390 123 428 130 c 1,37,-1
 442 258 l 1,38,-1
 355 258 l 2,0,1
EndSplineSet
EndChar

StartChar: H
Encoding: 72 72 43
Width: 733
GlyphClass: 2
Flags: W
LayerCount: 2
Fore
SplineSet
559 -2 m 2,0,-1
 524 -2 l 2,1,2
 467 -2 467 -2 467 29 c 1,3,-1
 494 291 l 1,4,-1
 224 291 l 1,5,-1
 197 30 l 2,6,7
 194 -2 194 -2 134 -2 c 2,8,-1
 99 -2 l 2,9,10
 42 -2 42 -2 42 29 c 1,11,-1
 109 670 l 2,12,13
 112 702 112 702 172 702 c 2,14,-1
 207 702 l 2,15,16
 264 702 264 702 264 671 c 1,17,-1
 238 423 l 1,18,-1
 508 423 l 1,19,-1
 534 670 l 2,20,21
 537 702 537 702 597 702 c 2,22,-1
 632 702 l 2,23,24
 689 702 689 702 689 671 c 1,25,-1
 622 30 l 2,26,27
 619 -2 619 -2 559 -2 c 2,0,-1
EndSplineSet
EndChar

StartChar: I
Encoding: 73 73 44
Width: 282
GlyphClass: 2
Flags: W
LayerCount: 2
Fore
SplineSet
122 -2 m 2,0,-1
 87 -2 l 2,1,2
 30 -2 30 -2 30 29 c 1,3,-1
 97 670 l 2,4,5
 100 702 100 702 160 702 c 2,6,-1
 195 702 l 2,7,8
 252 702 252 702 252 671 c 1,9,-1
 185 30 l 2,10,11
 182 -2 182 -2 122 -2 c 2,0,-1
EndSplineSet
EndChar

StartChar: J
Encoding: 74 74 45
Width: 402
GlyphClass: 2
Flags: W
LayerCount: 2
Fore
SplineSet
271 702 m 2,0,-1
 306 702 l 2,1,2
 363 702 363 702 363 671 c 1,3,-1
 313 202 l 2,4,5
 302 103 302 103 244.5 47.5 c 128,-1,6
 187 -8 187 -8 85 -8 c 128,-1,7
 -17 -8 -17 -8 -17 35 c 0,8,9
 -17 132 -17 132 3 132 c 0,10,11
 5 132 5 132 12 130 c 0,12,13
 30 123 30 123 70.5 123 c 128,-1,14
 111 123 111 123 133 147.5 c 128,-1,15
 155 172 155 172 161 227 c 2,16,-1
 208 670 l 2,17,18
 211 702 211 702 271 702 c 2,0,-1
EndSplineSet
EndChar

StartChar: K
Encoding: 75 75 46
Width: 576
GlyphClass: 2
Flags: W
LayerCount: 2
Fore
SplineSet
165 702 m 2,0,-1
 200 702 l 2,1,2
 257 702 257 702 257 670 c 1,3,-1
 229 402 l 1,4,-1
 233 401 l 1,5,-1
 436 683 l 2,6,7
 450 702 450 702 498 702 c 2,8,-1
 545 702 l 2,9,10
 600 702 600 702 600 688 c 0,11,12
 600 679 600 679 590 666 c 2,13,-1
 366 370 l 1,14,-1
 549 34 l 2,15,16
 555 22 555 22 555 16 c 0,17,18
 555 -2 555 -2 498 -2 c 2,19,-1
 440 -2 l 2,20,21
 390 -2 390 -2 381 17 c 2,22,-1
 224 321 l 1,23,-1
 220 320 l 1,24,-1
 190 30 l 2,25,26
 187 -2 187 -2 127 -2 c 2,27,-1
 92 -2 l 2,28,29
 35 -2 35 -2 35 30 c 1,30,-1
 102 670 l 2,31,32
 105 702 105 702 165 702 c 2,0,-1
EndSplineSet
EndChar

StartChar: L
Encoding: 76 76 47
Width: 484
GlyphClass: 2
Flags: W
LayerCount: 2
Fore
SplineSet
166 702 m 2,0,-1
 201 702 l 2,1,2
 258 702 258 702 258 671 c 1,3,-1
 201 131 l 1,4,-1
 424 131 l 2,5,6
 450 131 450 131 450 91 c 0,7,8
 450 0 450 0 412 0 c 2,9,-1
 72 0 l 2,10,11
 52 0 52 0 44 7 c 128,-1,12
 36 14 36 14 36 32 c 1,13,-1
 103 670 l 2,14,15
 106 702 106 702 166 702 c 2,0,-1
EndSplineSet
EndChar

StartChar: M
Encoding: 77 77 48
Width: 843
GlyphClass: 2
Flags: W
LayerCount: 2
Fore
SplineSet
171 702 m 2,0,-1
 224 702 l 2,1,2
 273 702 273 702 285 675 c 2,3,-1
 428 362 l 1,4,-1
 639 675 l 2,5,6
 657 702 657 702 704 702 c 2,7,-1
 756 702 l 2,8,9
 813 702 813 702 813 670 c 1,10,-1
 746 30 l 2,11,12
 743 -2 743 -2 683 -2 c 2,13,-1
 654 -2 l 2,14,15
 597 -2 597 -2 597 30 c 1,16,-1
 640 444 l 1,17,-1
 636 445 l 1,18,-1
 464 186 l 1,19,20
 448 167 448 167 422 167 c 2,21,-1
 393 167 l 2,22,23
 368 167 368 167 355 186 c 1,24,-1
 237 445 l 1,25,-1
 233 444 l 1,26,-1
 190 30 l 2,27,28
 187 -2 187 -2 127 -2 c 2,29,-1
 98 -2 l 2,30,31
 41 -2 41 -2 41 30 c 1,32,-1
 108 670 l 2,33,34
 111 702 111 702 171 702 c 2,0,-1
EndSplineSet
EndChar

StartChar: N
Encoding: 78 78 49
Width: 719
GlyphClass: 2
Flags: W
LayerCount: 2
Fore
SplineSet
165 702 m 2,0,-1
 208 702 l 2,1,2
 257 702 257 702 272 675 c 2,3,-1
 492 270 l 1,4,-1
 534 670 l 2,5,6
 537 702 537 702 597 702 c 2,7,-1
 626 702 l 2,8,9
 683 702 683 702 683 670 c 1,10,-1
 616 30 l 2,11,12
 613 -2 613 -2 553 -2 c 2,13,-1
 515 -2 l 2,14,15
 466 -2 466 -2 451 25 c 2,16,-1
 226 435 l 1,17,-1
 184 30 l 2,18,19
 181 -2 181 -2 121 -2 c 2,20,-1
 92 -2 l 2,21,22
 35 -2 35 -2 35 30 c 1,23,-1
 102 670 l 2,24,25
 105 702 105 702 165 702 c 2,0,-1
EndSplineSet
EndChar

StartChar: O
Encoding: 79 79 50
Width: 731
GlyphClass: 2
Flags: W
LayerCount: 2
Fore
SplineSet
41 284 m 0,0,1
 41 455 41 455 122 575 c 0,2,3
 164 636 164 636 236 672 c 128,-1,4
 308 708 308 708 403 708 c 0,5,6
 542 708 542 708 615.5 632.5 c 128,-1,7
 689 557 689 557 689 414 c 0,8,9
 689 210 689 210 596 101 c 128,-1,10
 503 -8 503 -8 328 -8 c 0,11,12
 189 -8 189 -8 115 67 c 128,-1,13
 41 142 41 142 41 284 c 0,0,1
342 123 m 0,14,15
 429 123 429 123 480 195.5 c 128,-1,16
 531 268 531 268 531 400 c 0,17,18
 531 576 531 576 389 576 c 0,19,20
 301 576 301 576 250.5 503.5 c 128,-1,21
 200 431 200 431 200 298 c 0,22,23
 200 123 200 123 342 123 c 0,14,15
EndSplineSet
EndChar

StartChar: P
Encoding: 80 80 51
Width: 570
GlyphClass: 2
Flags: W
LayerCount: 2
Fore
SplineSet
144 700 m 2,0,-1
 361 700 l 2,1,2
 469 700 469 700 526 651 c 0,3,4
 548 632 548 632 563 597.5 c 128,-1,5
 578 563 578 563 578 508 c 128,-1,6
 578 453 578 453 557.5 404 c 128,-1,7
 537 355 537 355 509 329 c 128,-1,8
 481 303 481 303 443 287 c 0,9,10
 384 262 384 262 325 262 c 2,11,-1
 212 262 l 1,12,-1
 188 30 l 2,13,14
 185 -2 185 -2 125 -2 c 2,15,-1
 91 -2 l 2,16,17
 34 -2 34 -2 34 30 c 1,18,-1
 100 660 l 2,19,20
 104 700 104 700 144 700 c 2,0,-1
322 394 m 2,21,22
 361 394 361 394 390 416.5 c 128,-1,23
 419 439 419 439 419 487.5 c 128,-1,24
 419 536 419 536 396 552.5 c 128,-1,25
 373 569 373 569 341 569 c 2,26,-1
 245 569 l 1,27,-1
 226 394 l 1,28,-1
 322 394 l 2,21,22
EndSplineSet
EndChar

StartChar: Q
Encoding: 81 81 52
Width: 731
GlyphClass: 2
Flags: W
LayerCount: 2
Fore
SplineSet
404 708 m 0,0,1
 543 708 543 708 616 632.5 c 128,-1,2
 689 557 689 557 689 415 c 128,-1,3
 689 273 689 273 637.5 174 c 128,-1,4
 586 75 586 75 496 31 c 1,5,-1
 495 27 l 1,6,-1
 637 -27 l 2,7,8
 654 -34 654 -34 654 -54 c 0,9,10
 654 -162 654 -162 625 -162 c 0,11,12
 619 -162 619 -162 442 -88 c 128,-1,13
 265 -14 265 -14 192 16 c 0,14,15
 43 78 43 78 41 286 c 1,16,17
 41 457 41 457 124 576 c 0,18,19
 166 637 166 637 238 672.5 c 128,-1,20
 310 708 310 708 404 708 c 0,0,1
342 119 m 0,21,22
 430 119 430 119 480.5 193 c 128,-1,23
 531 267 531 267 531 403 c 0,24,25
 531 576 531 576 390 576 c 0,26,27
 302 576 302 576 251 503 c 128,-1,28
 200 430 200 430 200 297 c 0,29,30
 200 119 200 119 342 119 c 0,21,22
EndSplineSet
EndChar

StartChar: R
Encoding: 82 82 53
Width: 610
GlyphClass: 2
Flags: W
LayerCount: 2
Fore
SplineSet
145 700 m 2,0,-1
 340 700 l 2,1,2
 571 700 571 700 571 537 c 0,3,4
 571 471 571 471 534.5 423 c 128,-1,5
 498 375 498 375 436 353 c 1,6,-1
 436 349 l 1,7,8
 453 342 453 342 470.5 315.5 c 128,-1,9
 488 289 488 289 498 257 c 2,10,-1
 563 37 l 2,11,12
 566 25 566 25 566 18 c 1,13,14
 563 -2 563 -2 504 -2 c 2,15,-1
 463 -2 l 2,16,17
 414 -2 414 -2 407 19 c 2,18,-1
 348 214 l 1,19,20
 336 247 336 247 318 260.5 c 128,-1,21
 300 274 300 274 254 274 c 2,22,-1
 215 274 l 1,23,-1
 189 30 l 2,24,25
 186 -2 186 -2 126 -2 c 2,26,-1
 92 -2 l 2,27,28
 35 -2 35 -2 35 30 c 1,29,-1
 101 660 l 2,30,31
 105 700 105 700 145 700 c 2,0,-1
324 407 m 2,32,33
 357 407 357 407 383.5 435 c 128,-1,34
 410 463 410 463 410 498 c 128,-1,35
 410 533 410 533 390 551 c 128,-1,36
 370 569 370 569 334 569 c 2,37,-1
 246 569 l 1,38,-1
 229 407 l 1,39,-1
 324 407 l 2,32,33
EndSplineSet
EndChar

StartChar: S
Encoding: 83 83 54
Width: 500
GlyphClass: 2
Flags: W
LayerCount: 2
Fore
SplineSet
216 696.5 m 128,-1,1
 260 708 260 708 321.5 708 c 128,-1,2
 383 708 383 708 432.5 687 c 128,-1,3
 482 666 482 666 482 640 c 0,4,5
 482 619 482 619 458.5 585 c 128,-1,6
 435 551 435 551 418 551 c 0,7,8
 414 551 414 551 400 558 c 0,9,10
 362 576 362 576 320 576 c 128,-1,11
 278 576 278 576 257 569 c 128,-1,12
 236 562 236 562 226 551 c 0,13,14
 210 532 210 532 210 507.5 c 128,-1,15
 210 483 210 483 236.5 463.5 c 128,-1,16
 263 444 263 444 301 428.5 c 128,-1,17
 339 413 339 413 377 393.5 c 128,-1,18
 415 374 415 374 441.5 335 c 128,-1,19
 468 296 468 296 468 239.5 c 128,-1,20
 468 183 468 183 452.5 138.5 c 128,-1,21
 437 94 437 94 412.5 67 c 128,-1,22
 388 40 388 40 354 22 c 0,23,24
 295 -8 295 -8 218 -8 c 0,25,26
 125 -8 125 -8 62 24 c 0,27,28
 26 43 26 43 26 70 c 0,29,30
 26 181 26 181 52 181 c 0,31,32
 57 181 57 181 78 166 c 0,33,34
 139 123 139 123 206 123 c 0,35,36
 247 123 247 123 277 141 c 128,-1,37
 307 159 307 159 307 203 c 0,38,39
 307 227 307 227 288 246 c 128,-1,40
 269 265 269 265 240 276 c 128,-1,41
 211 287 211 287 178 304 c 128,-1,42
 145 321 145 321 116 339.5 c 128,-1,43
 87 358 87 358 68 393 c 128,-1,44
 49 428 49 428 49 483.5 c 128,-1,45
 49 539 49 539 72 586.5 c 128,-1,46
 95 634 95 634 133.5 659.5 c 128,-1,0
 172 685 172 685 216 696.5 c 128,-1,1
EndSplineSet
EndChar

StartChar: T
Encoding: 84 84 55
Width: 549
GlyphClass: 2
Flags: W
LayerCount: 2
Fore
SplineSet
72 700 m 2,0,-1
 546 700 l 2,1,2
 572 700 572 700 572 660 c 0,3,4
 572 569 572 569 534 569 c 2,5,-1
 374 569 l 1,6,-1
 317 30 l 2,7,8
 314 -2 314 -2 254 -2 c 2,9,-1
 219 -2 l 2,10,11
 162 -2 162 -2 162 29 c 1,12,-1
 219 569 l 1,13,-1
 60 569 l 2,14,15
 34 569 34 569 34 609 c 0,16,17
 34 700 34 700 72 700 c 2,0,-1
EndSplineSet
EndChar

StartChar: U
Encoding: 85 85 56
Width: 712
GlyphClass: 2
Flags: W
LayerCount: 2
Fore
SplineSet
162 702 m 2,0,-1
 196 702 l 2,1,2
 252 702 252 702 252 670 c 1,3,4
 207 239 207 239 207 229 c 0,5,6
 207 182 207 182 241 152.5 c 128,-1,7
 275 123 275 123 333 123 c 128,-1,8
 391 123 391 123 433.5 157 c 128,-1,9
 476 191 476 191 481 244 c 2,10,-1
 525 670 l 2,11,12
 528 702 528 702 589 702 c 2,13,-1
 622 702 l 2,14,15
 678 702 678 702 678 670 c 1,16,-1
 633 234 l 2,17,18
 621 119 621 119 537.5 55.5 c 128,-1,19
 454 -8 454 -8 322 -8 c 128,-1,20
 190 -8 190 -8 120.5 46.5 c 128,-1,21
 51 101 51 101 51 201 c 0,22,23
 51 212 51 212 98 670 c 0,24,25
 101 702 101 702 162 702 c 2,0,-1
EndSplineSet
EndChar

StartChar: V
Encoding: 86 86 57
Width: 617
GlyphClass: 2
Flags: W
LayerCount: 2
Fore
SplineSet
39 673 m 0,0,1
 39 702 39 702 102 702 c 2,2,-1
 135 702 l 2,3,4
 184 702 184 702 191 673 c 2,5,-1
 288 205 l 1,6,-1
 292 205 l 1,7,-1
 491 673 l 2,8,9
 503 702 503 702 553 702 c 2,10,-1
 584 702 l 2,11,12
 641 702 641 702 641 678 c 0,13,14
 641 670 641 670 637 662 c 2,15,-1
 354 19 l 2,16,17
 345 -2 345 -2 296 -2 c 2,18,-1
 244 -2 l 2,19,20
 195 -2 195 -2 190 19 c 2,21,-1
 41 662 l 2,22,23
 39 670 39 670 39 673 c 0,0,1
EndSplineSet
EndChar

StartChar: W
Encoding: 87 87 58
Width: 882
GlyphClass: 2
Flags: W
LayerCount: 2
Fore
SplineSet
29 669 m 0,0,1
 29 702 29 702 94 702 c 2,2,-1
 120 702 l 2,3,4
 180 702 180 702 184 671 c 2,5,-1
 225 349 l 1,6,-1
 241 205 l 1,7,-1
 290 349 l 1,8,-1
 407 681 l 2,9,10
 415 702 415 702 464 702 c 2,11,-1
 502 702 l 2,12,13
 552 702 552 702 555 681 c 2,14,-1
 618 198 l 1,15,16
 624 217 624 217 642 272 c 128,-1,17
 660 327 660 327 667 349 c 2,18,-1
 779 671 l 2,19,20
 789 702 789 702 849 702 c 2,21,-1
 860 702 l 2,22,23
 920 702 920 702 920 677 c 0,24,25
 920 673 920 673 916 661 c 2,26,-1
 686 19 l 2,27,28
 678 -2 678 -2 629 -2 c 2,29,-1
 556 -2 l 2,30,31
 506 -2 506 -2 503 19 c 2,32,-1
 448 433 l 1,33,-1
 303 19 l 1,34,35
 294 -2 294 -2 246 -2 c 2,36,-1
 174 -2 l 2,37,38
 122 -2 122 -2 121 19 c 1,39,40
 29 664 29 664 29 669 c 0,0,1
EndSplineSet
EndChar

StartChar: X
Encoding: 88 88 59
Width: 611
GlyphClass: 2
Flags: W
LayerCount: 2
Fore
SplineSet
67 658 m 2,0,1
 61 670 61 670 61 679.5 c 128,-1,2
 61 689 61 689 72 694 c 1,3,4
 86 702 86 702 125 702 c 2,5,-1
 166 702 l 2,6,7
 214 702 214 702 224 683 c 2,8,-1
 319 497 l 1,9,-1
 458 683 l 2,10,11
 473 702 473 702 521 702 c 2,12,-1
 560 702 l 2,13,14
 619 702 619 702 619 682 c 0,15,16
 619 672 619 672 609 658 c 2,17,-1
 389 363 l 1,18,-1
 555 42 l 1,19,20
 560 30 560 30 560 23 c 0,21,22
 560 -2 560 -2 497 -2 c 2,23,-1
 458 -2 l 2,24,25
 409 -2 409 -2 400 17 c 2,26,-1
 289 232 l 1,27,-1
 129 17 l 2,28,29
 114 -2 114 -2 66 -2 c 2,30,-1
 28 -2 l 2,31,32
 -31 -2 -31 -2 -31 18 c 0,33,34
 -31 28 -31 28 -20 42 c 2,35,-1
 219 365 l 1,36,-1
 67 658 l 2,0,1
EndSplineSet
EndChar

StartChar: Y
Encoding: 89 89 60
Width: 559
GlyphClass: 2
Flags: W
LayerCount: 2
Fore
SplineSet
38 657 m 2,0,1
 32 669 32 669 32 679 c 128,-1,2
 32 689 32 689 42 694 c 0,3,4
 57 702 57 702 96 702 c 2,5,-1
 139 702 l 2,6,7
 188 702 188 702 197 683 c 2,8,-1
 297 469 l 1,9,-1
 442 683 l 2,10,11
 455 702 455 702 504 702 c 2,12,-1
 540 702 l 2,13,14
 601 702 601 702 601 682 c 0,15,16
 601 673 601 673 590 657 c 2,17,-1
 357 333 l 1,18,-1
 325 30 l 2,19,20
 322 -2 322 -2 262 -2 c 2,21,-1
 228 -2 l 2,22,23
 171 -2 171 -2 171 30 c 1,24,-1
 203 336 l 1,25,-1
 38 657 l 2,0,1
EndSplineSet
EndChar

StartChar: Z
Encoding: 90 90 61
Width: 616
GlyphClass: 2
Flags: W
LayerCount: 2
Fore
SplineSet
524 131 m 2,0,1
 550 131 550 131 550 91 c 0,2,3
 550 0 550 0 512 0 c 2,4,-1
 33 0 l 2,5,6
 20 0 20 0 10.5 31 c 128,-1,7
 1 62 1 62 1 80.5 c 128,-1,8
 1 99 1 99 4 102 c 2,9,-1
 385 569 l 1,10,-1
 107 569 l 2,11,12
 81 569 81 569 81 609 c 0,13,14
 81 700 81 700 119 700 c 2,15,-1
 572 700 l 2,16,17
 585 700 585 700 594.5 669 c 128,-1,18
 604 638 604 638 604 619.5 c 128,-1,19
 604 601 604 601 601 598 c 2,20,-1
 219 131 l 1,21,-1
 524 131 l 2,0,1
EndSplineSet
EndChar

StartChar: bracketleft
Encoding: 91 91 62
Width: 291
GlyphClass: 2
Flags: W
LayerCount: 2
Fore
SplineSet
269 673 m 2,0,-1
 218 673 l 1,1,-1
 143 -43 l 1,2,-1
 195 -43 l 2,3,4
 221 -43 221 -43 221 -73 c 0,5,6
 221 -138 221 -138 184 -138 c 2,7,-1
 58 -138 l 2,8,9
 38 -138 38 -138 30 -131 c 128,-1,10
 22 -124 22 -124 22 -106 c 1,11,-1
 109 728 l 2,12,13
 113 768 113 768 153 768 c 2,14,-1
 280 768 l 2,15,16
 306 768 306 768 306 738 c 0,17,18
 306 673 306 673 269 673 c 2,0,-1
EndSplineSet
EndChar

StartChar: backslash
Encoding: 92 92 63
Width: 361
GlyphClass: 2
Flags: W
LayerCount: 2
Fore
SplineSet
37 681 m 0,0,1
 37 702 37 702 83 702 c 2,2,-1
 106 702 l 2,3,4
 157 702 157 702 162 672 c 1,5,-1
 324 8 l 2,6,7
 325 5 325 5 325 0 c 0,8,9
 325 -22 325 -22 280 -22 c 2,10,-1
 256 -22 l 2,11,12
 206 -22 206 -22 200 8 c 1,13,-1
 39 672 l 2,14,15
 37 678 37 678 37 681 c 0,0,1
EndSplineSet
EndChar

StartChar: bracketright
Encoding: 93 93 64
Width: 291
GlyphClass: 2
Flags: W
LayerCount: 2
Fore
SplineSet
23 -43 m 2,0,-1
 74 -43 l 1,1,-1
 149 673 l 1,2,-1
 97 673 l 2,3,4
 71 673 71 673 71 703 c 0,5,6
 71 768 71 768 108 768 c 2,7,-1
 234 768 l 2,8,9
 254 768 254 768 262 761 c 128,-1,10
 270 754 270 754 270 736 c 1,11,-1
 183 -98 l 2,12,13
 179 -138 179 -138 139 -138 c 2,14,-1
 12 -138 l 2,15,16
 -14 -138 -14 -138 -14 -108 c 0,17,18
 -14 -43 -14 -43 23 -43 c 2,0,-1
EndSplineSet
EndChar

StartChar: asciicircum
Encoding: 94 94 65
Width: 450
GlyphClass: 2
Flags: W
LayerCount: 2
Fore
SplineSet
229 686 m 2,0,-1
 260 686 l 2,1,2
 290 686 290 686 299 656 c 2,3,-1
 395 348 l 1,4,5
 398 342 398 342 398 333 c 1,6,7
 396 318 396 318 364 318 c 2,8,-1
 343 318 l 2,9,10
 303 318 303 318 294 348 c 2,11,-1
 230 555 l 1,12,-1
 122 348 l 2,13,14
 106 318 106 318 68 318 c 2,15,-1
 47 318 l 2,16,17
 17 318 17 318 17 332 c 0,18,19
 17 339 17 339 22 348 c 2,20,-1
 184 656 l 2,21,22
 199 686 199 686 229 686 c 2,0,-1
EndSplineSet
EndChar

StartChar: underscore
Encoding: 95 95 66
Width: 534
GlyphClass: 2
Flags: W
LayerCount: 2
Fore
SplineSet
-21 -109 m 0,0,1
 -21 -36 -21 -36 16 -36 c 2,2,-1
 531 -36 l 2,3,4
 557 -36 557 -36 557 -70 c 0,5,6
 557 -143 557 -143 520 -143 c 2,7,-1
 5 -143 l 2,8,9
 -21 -143 -21 -143 -21 -109 c 0,0,1
EndSplineSet
EndChar

StartChar: grave
Encoding: 96 96 67
Width: 320
GlyphClass: 2
Flags: W
LayerCount: 2
Fore
SplineSet
257 611 m 0,0,1
 257 595 257 595 215 595 c 128,-1,2
 173 595 173 595 151 622 c 128,-1,3
 129 649 129 649 94.5 690 c 128,-1,4
 60 731 60 731 60 738 c 0,5,6
 60 754 60 754 125.5 754 c 128,-1,7
 191 754 191 754 204 727 c 0,8,9
 214 706 214 706 223.5 686 c 128,-1,10
 233 666 233 666 238.5 655 c 128,-1,11
 244 644 244 644 248 634 c 0,12,13
 257 615 257 615 257 611 c 0,0,1
EndSplineSet
EndChar

StartChar: a
Encoding: 97 97 68
Width: 545
GlyphClass: 2
Flags: W
LayerCount: 2
Fore
SplineSet
437 -8 m 0,0,1
 342 -8 342 -8 322 67 c 1,2,3
 299 33 299 33 263.5 12 c 128,-1,4
 228 -9 228 -9 186 -9 c 0,5,6
 112 -9 112 -9 68 47.5 c 128,-1,7
 24 104 24 104 24 208 c 0,8,9
 24 352 24 352 86 441 c 128,-1,10
 148 530 148 530 246 530 c 0,11,12
 311 530 311 530 367 477 c 1,13,14
 376 507 376 507 386 515 c 128,-1,15
 396 523 396 523 432 524 c 1,16,-1
 444 524 l 2,17,18
 502 524 502 524 502 499 c 1,19,-1
 484 325 l 2,20,21
 465 151 465 151 465 141 c 0,22,23
 465 109 465 109 495 109 c 0,24,25
 503 109 503 109 513 112 c 128,-1,26
 523 115 523 115 524 115 c 0,27,28
 532 115 532 115 532 100 c 128,-1,29
 532 85 532 85 525 44 c 0,30,31
 521 19 521 19 494 5.5 c 128,-1,32
 467 -8 467 -8 437 -8 c 0,0,1
242 112 m 0,33,34
 283 112 283 112 320 170 c 1,35,36
 332 306 332 306 334 320.5 c 128,-1,37
 336 335 336 335 346 386 c 1,38,39
 315 413 315 413 280 413 c 0,40,41
 229 413 229 413 201.5 362.5 c 128,-1,42
 174 312 174 312 174 212 c 128,-1,43
 174 112 174 112 242 112 c 0,33,34
EndSplineSet
EndChar

StartChar: b
Encoding: 98 98 69
Width: 569
GlyphClass: 2
Flags: W
LayerCount: 2
Fore
SplineSet
84 -2 m 2,0,1
 26 -2 26 -2 26 23 c 1,2,-1
 100 722 l 2,3,4
 103 754 103 754 163 754 c 2,5,-1
 191 754 l 2,6,7
 219 754 219 754 233.5 745 c 128,-1,8
 248 736 248 736 248 723 c 1,9,-1
 221 474 l 1,10,11
 270 531 270 531 347.5 531 c 128,-1,12
 425 531 425 531 474.5 474.5 c 128,-1,13
 524 418 524 418 524 314 c 0,14,15
 524 170 524 170 456.5 81 c 128,-1,16
 389 -8 389 -8 282 -8 c 0,17,18
 215 -8 215 -8 161 44 c 1,19,20
 152 15 152 15 141.5 7 c 128,-1,21
 131 -1 131 -1 96 -2 c 1,22,-1
 84 -2 l 2,0,1
248 109 m 0,23,24
 308 109 308 109 341 159.5 c 128,-1,25
 374 210 374 210 374 305 c 0,26,27
 374 359 374 359 353 384.5 c 128,-1,28
 332 410 332 410 289 410 c 128,-1,29
 246 410 246 410 209 354 c 1,30,-1
 195 223 l 1,31,-1
 183 135 l 1,32,33
 213 109 213 109 248 109 c 0,23,24
EndSplineSet
EndChar

StartChar: c
Encoding: 99 99 70
Width: 485
GlyphClass: 2
Flags: W
LayerCount: 2
Fore
SplineSet
431 135 m 0,0,1
 431 85 431 85 423 58 c 1,2,3
 411 24 411 24 360.5 8 c 128,-1,4
 310 -8 310 -8 260 -8 c 0,5,6
 33 -8 33 -8 33 204 c 0,7,8
 33 343 33 343 94 432 c 1,9,10
 125 479 125 479 181 505 c 128,-1,11
 237 531 237 531 302 531 c 128,-1,12
 367 531 367 531 418.5 515.5 c 128,-1,13
 470 500 470 500 471 462 c 0,14,15
 471 446 471 446 451 416 c 128,-1,16
 431 386 431 386 416 386 c 0,17,18
 412 386 412 386 400 393 c 0,19,20
 361 414 361 414 318 414 c 0,21,22
 186 414 186 414 186 219 c 0,23,24
 186 163 186 163 208.5 136 c 128,-1,25
 231 109 231 109 285 109 c 128,-1,26
 339 109 339 109 403 141 c 0,27,28
 419 149 419 149 425 149 c 128,-1,29
 431 149 431 149 431 135 c 0,0,1
EndSplineSet
EndChar

StartChar: d
Encoding: 100 100 71
Width: 565
GlyphClass: 2
Flags: W
LayerCount: 2
Fore
SplineSet
449 -8 m 0,0,1
 354 -8 354 -8 334 69 c 1,2,3
 286 -8 286 -8 202.5 -8 c 128,-1,4
 119 -8 119 -8 72.5 48.5 c 128,-1,5
 26 105 26 105 26 209 c 0,6,7
 26 353 26 353 90.5 442 c 128,-1,8
 155 531 155 531 258 531 c 0,9,10
 315 531 315 531 365 490 c 1,11,-1
 390 722 l 2,12,13
 393 754 393 754 453 754 c 2,14,-1
 481 754 l 2,15,16
 509 754 509 754 523.5 745 c 128,-1,17
 538 736 538 736 538 723 c 1,18,19
 477 152 477 152 477 142 c 0,20,21
 477 109 477 109 507 109 c 0,22,23
 515 109 515 109 525 112 c 128,-1,24
 535 115 535 115 536 115 c 0,25,26
 544 115 544 115 544 100 c 128,-1,27
 544 85 544 85 537 44 c 0,28,29
 533 19 533 19 506 5.5 c 128,-1,30
 479 -8 479 -8 449 -8 c 0,0,1
292 414 m 0,31,32
 237 414 237 414 206.5 363.5 c 128,-1,33
 176 313 176 313 176 213 c 128,-1,34
 176 113 176 113 254 113 c 0,35,36
 296 113 296 113 333 172 c 1,37,38
 334 182 334 182 342 260.5 c 128,-1,39
 350 339 350 339 355 390 c 1,40,41
 325 414 325 414 292 414 c 0,31,32
EndSplineSet
EndChar

StartChar: e
Encoding: 101 101 72
Width: 539
GlyphClass: 2
Flags: W
LayerCount: 2
Fore
SplineSet
212.5 130.5 m 128,-1,1
 239 109 239 109 281 109 c 128,-1,2
 323 109 323 109 359 120 c 128,-1,3
 395 131 395 131 417.5 142 c 128,-1,4
 440 153 440 153 443 153 c 0,5,6
 451 153 451 153 451 139 c 0,7,8
 451 124 451 124 448 96.5 c 128,-1,9
 445 69 445 69 443 62 c 0,10,11
 432 25 432 25 378 8.5 c 128,-1,12
 324 -8 324 -8 269 -8 c 0,13,14
 150 -8 150 -8 91.5 50 c 128,-1,15
 33 108 33 108 33 212 c 0,16,17
 33 375 33 375 110 453 c 128,-1,18
 187 531 187 531 308 531 c 0,19,20
 365 531 365 531 406 516 c 128,-1,21
 447 501 447 501 466 477 c 0,22,23
 502 433 502 433 502 386 c 0,24,25
 502 294 502 294 437 248.5 c 128,-1,26
 372 203 372 203 287 203 c 0,27,28
 232 203 232 203 183 210 c 1,29,0
 186 152 186 152 212.5 130.5 c 128,-1,1
298 414 m 0,30,31
 215 414 215 414 190 302 c 1,32,-1
 238 302 l 2,33,34
 302 302 302 302 330 321.5 c 128,-1,35
 358 341 358 341 358 367 c 0,36,37
 358 414 358 414 298 414 c 0,30,31
EndSplineSet
EndChar

StartChar: f
Encoding: 102 102 73
Width: 325
GlyphClass: 2
Flags: W
LayerCount: 2
Fore
SplineSet
300 523 m 2,0,1
 310 523 310 523 313 518.5 c 128,-1,2
 316 514 316 514 316 492 c 128,-1,3
 316 470 316 470 300.5 438 c 128,-1,4
 285 406 285 406 258 406 c 2,5,-1
 228 406 l 1,6,-1
 189 30 l 2,7,8
 186 -2 186 -2 126 -2 c 2,9,-1
 98 -2 l 2,10,11
 70 -2 70 -2 55.5 7 c 128,-1,12
 41 16 41 16 41 29 c 1,13,-1
 80 406 l 1,14,-1
 60 406 l 2,15,16
 34 406 34 406 34 442 c 0,17,18
 34 523 34 523 72 523 c 2,19,-1
 93 523 l 1,20,-1
 100 598 l 2,21,22
 107 675 107 675 149.5 717.5 c 128,-1,23
 192 760 192 760 263 760 c 0,24,25
 359 760 359 760 359 714 c 0,26,27
 359 698 359 698 346.5 668 c 128,-1,28
 334 638 334 638 322 638 c 0,29,30
 320 638 320 638 310 640.5 c 128,-1,31
 300 643 300 643 289 643 c 0,32,33
 253 643 253 643 249 600 c 1,34,-1
 240 523 l 1,35,-1
 300 523 l 2,0,1
EndSplineSet
EndChar

StartChar: g
Encoding: 103 103 74
Width: 546
GlyphClass: 2
Flags: W
LayerCount: 2
Fore
SplineSet
223 -212 m 0,0,1
 145 -212 145 -212 91.5 -192 c 128,-1,2
 38 -172 38 -172 38 -141 c 0,3,4
 38 -54 38 -54 58 -54 c 0,5,6
 61 -54 61 -54 79 -64 c 0,7,8
 135 -95 135 -95 192.5 -95 c 128,-1,9
 250 -95 250 -95 283.5 -62 c 128,-1,10
 317 -29 317 -29 323 33 c 2,11,-1
 326 63 l 1,12,13
 276 4 276 4 200.5 4 c 128,-1,14
 125 4 125 4 78.5 58.5 c 128,-1,15
 32 113 32 113 32 213 c 0,16,17
 32 355 32 355 96.5 443 c 128,-1,18
 161 531 161 531 264 531 c 0,19,20
 329 531 329 531 384 479 c 1,21,22
 393 508 393 508 403.5 516 c 128,-1,23
 414 524 414 524 449 525 c 1,24,-1
 461 525 l 2,25,26
 519 525 519 525 519 500 c 1,27,-1
 478 93 l 2,28,29
 462 -61 462 -61 400.5 -136.5 c 128,-1,30
 339 -212 339 -212 223 -212 c 0,0,1
260 125 m 0,31,32
 301 125 301 125 338 183 c 1,33,-1
 351 300 l 2,34,35
 360 376 360 376 363 388 c 1,36,37
 331 414 331 414 298 414 c 0,38,39
 243 414 243 414 212.5 364.5 c 128,-1,40
 182 315 182 315 182 220 c 128,-1,41
 182 125 182 125 260 125 c 0,31,32
EndSplineSet
EndChar

StartChar: h
Encoding: 104 104 75
Width: 565
GlyphClass: 2
Flags: W
LayerCount: 2
Fore
SplineSet
321 119 m 1,0,-1
 344 359 l 1,1,2
 344 409 344 409 290 409 c 0,3,4
 244 409 244 409 204 352 c 1,5,-1
 170 30 l 2,6,7
 167 -2 167 -2 107 -2 c 2,8,-1
 79 -2 l 2,9,10
 51 -2 51 -2 36.5 7 c 128,-1,11
 22 16 22 16 22 29 c 1,12,-1
 95 722 l 2,13,14
 98 754 98 754 158 754 c 2,15,-1
 186 754 l 2,16,17
 214 754 214 754 228.5 745 c 128,-1,18
 243 736 243 736 243 723 c 1,19,-1
 216 463 l 1,20,21
 243 492 243 492 283 511.5 c 128,-1,22
 323 531 323 531 363 531 c 0,23,24
 495 531 495 531 495 404 c 1,25,-1
 470 142 l 1,26,27
 470 109 470 109 500 109 c 0,28,29
 508 109 508 109 518 112 c 128,-1,30
 528 115 528 115 529 115 c 0,31,32
 537 115 537 115 537 100 c 128,-1,33
 537 85 537 85 530 44 c 0,34,35
 526 19 526 19 499 5.5 c 128,-1,36
 472 -8 472 -8 442 -8 c 0,37,38
 321 -8 321 -8 321 119 c 1,0,-1
EndSplineSet
EndChar

StartChar: i
Encoding: 105 105 76
Width: 265
GlyphClass: 2
Flags: W
LayerCount: 2
Fore
SplineSet
167 609 m 2,0,-1
 139 609 l 2,1,2
 111 609 111 609 96.5 618 c 128,-1,3
 82 627 82 627 82 640 c 1,4,-1
 91 722 l 2,5,6
 94 754 94 754 154 754 c 2,7,-1
 182 754 l 2,8,9
 210 754 210 754 224.5 745 c 128,-1,10
 239 736 239 736 239 723 c 1,11,-1
 230 641 l 2,12,13
 227 609 227 609 167 609 c 2,0,-1
130 525 m 2,14,-1
 158 525 l 2,15,16
 186 525 186 525 200.5 516 c 128,-1,17
 215 507 215 507 215 494 c 1,18,19
 178 152 178 152 178 142 c 0,20,21
 178 109 178 109 208 109 c 0,22,23
 216 109 216 109 226 112 c 128,-1,24
 236 115 236 115 237 115 c 0,25,26
 245 115 245 115 245 100 c 128,-1,27
 245 85 245 85 238 44 c 0,28,29
 234 19 234 19 207 5.5 c 128,-1,30
 180 -8 180 -8 150 -8 c 0,31,32
 29 -8 29 -8 29 119 c 1,33,-1
 67 493 l 2,34,35
 70 525 70 525 130 525 c 2,14,-1
EndSplineSet
EndChar

StartChar: j
Encoding: 106 106 77
Width: 276
GlyphClass: 2
Flags: W
LayerCount: 2
Fore
SplineSet
181 609 m 2,0,-1
 153 609 l 2,1,2
 125 609 125 609 110.5 618 c 128,-1,3
 96 627 96 627 96 640 c 1,4,-1
 105 722 l 2,5,6
 108 754 108 754 168 754 c 2,7,-1
 196 754 l 2,8,9
 224 754 224 754 238.5 745 c 128,-1,10
 253 736 253 736 253 723 c 1,11,-1
 244 641 l 2,12,13
 241 609 241 609 181 609 c 2,0,-1
122 -169.5 m 128,-1,15
 80 -212 80 -212 5.5 -212 c 128,-1,16
 -69 -212 -69 -212 -69 -173 c 0,17,18
 -69 -90 -69 -90 -51 -90 c 0,19,20
 -50 -90 -50 -90 -39 -92.5 c 128,-1,21
 -28 -95 -28 -95 -16 -95 c 0,22,23
 20 -95 20 -95 24 -52 c 2,24,-1
 81 493 l 2,25,26
 84 525 84 525 144 525 c 2,27,-1
 172 525 l 2,28,29
 200 525 200 525 214.5 516 c 128,-1,30
 229 507 229 507 229 494 c 1,31,-1
 172 -50 l 2,32,14
 164 -127 164 -127 122 -169.5 c 128,-1,15
EndSplineSet
EndChar

StartChar: k
Encoding: 107 107 78
Width: 521
GlyphClass: 2
Flags: W
LayerCount: 2
Fore
SplineSet
161 754 m 2,0,-1
 189 754 l 2,1,2
 246 754 246 754 246 722 c 1,3,-1
 204 326 l 1,4,-1
 208 325 l 1,5,-1
 348 506 l 2,6,7
 363 525 363 525 411 525 c 2,8,-1
 448 525 l 2,9,10
 503 525 503 525 503 511 c 0,11,12
 503 504 503 504 491 490 c 2,13,-1
 332 292 l 1,14,-1
 468 34 l 2,15,16
 473 24 473 24 473 16 c 0,17,18
 473 -2 473 -2 415 -2 c 2,19,-1
 373 -2 l 2,20,21
 324 -2 324 -2 315 17 c 2,22,-1
 200 247 l 1,23,-1
 196 246 l 1,24,-1
 173 30 l 2,25,26
 170 -2 170 -2 110 -2 c 2,27,-1
 82 -2 l 2,28,29
 25 -2 25 -2 25 30 c 1,30,-1
 98 722 l 2,31,32
 101 754 101 754 161 754 c 2,0,-1
EndSplineSet
EndChar

StartChar: l
Encoding: 108 108 79
Width: 297
GlyphClass: 2
Flags: W
LayerCount: 2
Fore
SplineSet
148 755 m 2,0,-1
 196 755 l 2,1,2
 243 755 243 755 243 728 c 1,3,4
 182 146 182 146 182 142 c 0,5,6
 182 109 182 109 212 109 c 0,7,8
 220 109 220 109 230 112 c 128,-1,9
 240 115 240 115 241 115 c 0,10,11
 249 115 249 115 249 100 c 128,-1,12
 249 85 249 85 242 44 c 0,13,14
 238 19 238 19 211 5.5 c 128,-1,15
 184 -8 184 -8 154 -8 c 0,16,17
 33 -8 33 -8 33 119 c 1,18,-1
 96 725 l 2,19,20
 100 755 100 755 148 755 c 2,0,-1
EndSplineSet
EndChar

StartChar: m
Encoding: 109 109 80
Width: 848
GlyphClass: 2
Flags: W
LayerCount: 2
Fore
SplineSet
66 428 m 1,0,-1
 64 484 l 2,1,2
 64 500 64 500 97 510 c 128,-1,3
 130 520 130 520 180 520 c 0,4,5
 203 520 203 520 209 488 c 0,6,7
 211 476 211 476 212 454 c 1,8,9
 238 486 238 486 281 508.5 c 128,-1,10
 324 531 324 531 367 531 c 0,11,12
 471 531 471 531 493 454 c 1,13,14
 518 485 518 485 563 508 c 128,-1,15
 608 531 608 531 653 531 c 0,16,17
 785 531 785 531 785 404 c 1,18,-1
 760 142 l 1,19,20
 760 109 760 109 790 109 c 0,21,22
 798 109 798 109 808 112 c 128,-1,23
 818 115 818 115 819 115 c 0,24,25
 827 115 827 115 827 100 c 128,-1,26
 827 85 827 85 820 44 c 0,27,28
 816 19 816 19 789 5.5 c 128,-1,29
 762 -8 762 -8 732 -8 c 0,30,31
 611 -8 611 -8 611 119 c 1,32,-1
 634 359 l 1,33,34
 634 409 634 409 583.5 409 c 128,-1,35
 533 409 533 409 494 352 c 1,36,-1
 463 30 l 2,37,38
 460 -2 460 -2 400 -2 c 2,39,-1
 372 -2 l 2,40,41
 344 -2 344 -2 329.5 7 c 128,-1,42
 315 16 315 16 315 29 c 1,43,44
 348 349 348 349 348 359 c 0,45,46
 348 409 348 409 297.5 409 c 128,-1,47
 247 409 247 409 208 351 c 1,48,-1
 176 30 l 2,49,50
 173 -2 173 -2 113 -2 c 2,51,-1
 85 -2 l 2,52,53
 57 -2 57 -2 42.5 7 c 128,-1,54
 28 16 28 16 28 29 c 1,55,-1
 62 357 l 2,56,57
 66 396 66 396 66 428 c 1,0,-1
EndSplineSet
EndChar

StartChar: n
Encoding: 110 110 81
Width: 557
GlyphClass: 2
Flags: W
LayerCount: 2
Fore
SplineSet
495 404 m 1,0,-1
 470 142 l 1,1,2
 470 109 470 109 500 109 c 0,3,4
 508 109 508 109 518 112 c 128,-1,5
 528 115 528 115 529 115 c 0,6,7
 537 115 537 115 537 100 c 128,-1,8
 537 85 537 85 530 44 c 0,9,10
 526 19 526 19 499 5.5 c 128,-1,11
 472 -8 472 -8 442 -8 c 0,12,13
 321 -8 321 -8 321 119 c 1,14,15
 321 119 321 119 344 359 c 1,16,17
 344 409 344 409 292.5 409 c 128,-1,18
 241 409 241 409 202 348 c 1,19,-1
 170 30 l 2,20,21
 167 -2 167 -2 107 -2 c 2,22,-1
 79 -2 l 2,23,24
 51 -2 51 -2 36.5 7 c 128,-1,25
 22 16 22 16 22 29 c 1,26,-1
 56 357 l 2,27,28
 60 396 60 396 60 428 c 1,29,-1
 58 484 l 2,30,31
 58 500 58 500 91 510 c 128,-1,32
 124 520 124 520 174 520 c 0,33,34
 193 520 193 520 198.5 503.5 c 128,-1,35
 204 487 204 487 206 452 c 1,36,37
 232 484 232 484 275.5 507.5 c 128,-1,38
 319 531 319 531 363 531 c 0,39,40
 495 531 495 531 495 404 c 1,0,-1
EndSplineSet
EndChar

StartChar: o
Encoding: 111 111 82
Width: 569
GlyphClass: 2
Flags: W
LayerCount: 2
Fore
SplineSet
33 211 m 0,0,1
 33 342 33 342 91 432 c 0,2,3
 121 478 121 478 176.5 504.5 c 128,-1,4
 232 531 232 531 307 531 c 0,5,6
 414 531 414 531 469 475 c 128,-1,7
 524 419 524 419 524 311 c 0,8,9
 524 159 524 159 451 75.5 c 128,-1,10
 378 -8 378 -8 250 -8 c 0,11,12
 143 -8 143 -8 88 48 c 128,-1,13
 33 104 33 104 33 211 c 0,0,1
262 109 m 0,14,15
 314 109 314 109 343.5 159.5 c 128,-1,16
 373 210 373 210 373 304 c 0,17,18
 373 414 373 414 295 414 c 0,19,20
 242 414 242 414 212.5 363.5 c 128,-1,21
 183 313 183 313 183 218 c 0,22,23
 183 109 183 109 262 109 c 0,14,15
EndSplineSet
EndChar

StartChar: p
Encoding: 112 112 83
Width: 573
GlyphClass: 2
Flags: W
LayerCount: 2
Fore
SplineSet
71 428 m 1,0,-1
 69 484 l 2,1,2
 69 500 69 500 102 510 c 128,-1,3
 135 520 135 520 185 520 c 0,4,5
 213 520 213 520 217 460 c 1,6,7
 267 531 267 531 348 531 c 128,-1,8
 429 531 429 531 477 474.5 c 128,-1,9
 525 418 525 418 525 314 c 0,10,11
 525 170 525 170 459 81 c 128,-1,12
 393 -8 393 -8 288 -8 c 0,13,14
 232 -8 232 -8 181 32 c 1,15,-1
 159 -174 l 2,16,17
 156 -206 156 -206 96 -206 c 2,18,-1
 68 -206 l 2,19,20
 40 -206 40 -206 25.5 -197 c 128,-1,21
 11 -188 11 -188 11 -175 c 1,22,-1
 67 357 l 2,23,24
 71 396 71 396 71 428 c 1,0,-1
254 109 m 0,25,26
 312 109 312 109 343.5 159.5 c 128,-1,27
 375 210 375 210 375 305 c 0,28,29
 375 410 375 410 292 410 c 0,30,31
 249 410 249 410 212 349 c 1,32,33
 209 315 209 315 191 132 c 1,34,35
 219 109 219 109 254 109 c 0,25,26
EndSplineSet
EndChar

StartChar: q
Encoding: 113 113 84
Width: 566
GlyphClass: 2
Flags: W
LayerCount: 2
Fore
SplineSet
466 525 m 2,0,1
 524 525 524 525 524 500 c 1,2,-1
 453 -174 l 2,3,4
 450 -206 450 -206 390 -206 c 2,5,-1
 362 -206 l 2,6,7
 334 -206 334 -206 319.5 -197 c 128,-1,8
 305 -188 305 -188 305 -175 c 1,9,-1
 328 49 l 1,10,11
 279 -8 279 -8 203 -8 c 128,-1,12
 127 -8 127 -8 79 48.5 c 128,-1,13
 31 105 31 105 31 209 c 0,14,15
 31 353 31 353 97 442 c 128,-1,16
 163 531 163 531 268 531 c 0,17,18
 335 531 335 531 389 479 c 1,19,20
 398 508 398 508 408.5 516 c 128,-1,21
 419 524 419 524 454 525 c 1,22,-1
 466 525 l 2,0,1
302 414 m 0,23,24
 244 414 244 414 212.5 363.5 c 128,-1,25
 181 313 181 313 181 218 c 0,26,27
 181 113 181 113 264 113 c 0,28,29
 304 113 304 113 341 169 c 1,30,-1
 355 300 l 1,31,-1
 367 388 l 1,32,33
 337 414 337 414 302 414 c 0,23,24
EndSplineSet
EndChar

StartChar: r
Encoding: 114 114 85
Width: 366
GlyphClass: 2
Flags: W
LayerCount: 2
Fore
SplineSet
65 428 m 1,0,-1
 63 484 l 2,1,2
 63 500 63 500 96 510 c 128,-1,3
 129 520 129 520 179 520 c 0,4,5
 192 520 192 520 199 510 c 128,-1,6
 206 500 206 500 207.5 489.5 c 128,-1,7
 209 479 209 479 211 455 c 1,8,9
 262 531 262 531 328 531 c 0,10,11
 375 531 375 531 375 485 c 0,12,13
 375 460 375 460 360.5 426 c 128,-1,14
 346 392 346 392 335 392 c 0,15,16
 332 392 332 392 320 396.5 c 128,-1,17
 308 401 308 401 294 401 c 0,18,19
 245 401 245 401 207 350 c 1,20,-1
 175 30 l 2,21,22
 172 -2 172 -2 112 -2 c 2,23,-1
 84 -2 l 2,24,25
 56 -2 56 -2 41.5 7 c 128,-1,26
 27 16 27 16 27 29 c 1,27,-1
 61 357 l 2,28,29
 65 396 65 396 65 428 c 1,0,-1
EndSplineSet
EndChar

StartChar: s
Encoding: 115 115 86
Width: 413
GlyphClass: 2
Flags: W
LayerCount: 2
Fore
SplineSet
251 415 m 0,0,1
 194 415 194 415 194 375 c 0,2,3
 194 354 194 354 222 339 c 128,-1,4
 250 324 250 324 283 313.5 c 128,-1,5
 316 303 316 303 344 271 c 128,-1,6
 372 239 372 239 372 188 c 0,7,8
 372 96 372 96 315 44 c 128,-1,9
 258 -8 258 -8 166 -8 c 0,10,11
 128 -8 128 -8 92 0 c 0,12,13
 22 16 22 16 22 53 c 0,14,15
 22 143 22 143 44 143 c 0,16,17
 46 143 46 143 62 134 c 0,18,19
 108 109 108 109 154 109 c 0,20,21
 220 109 220 109 220 159 c 0,22,23
 220 180 220 180 201.5 193.5 c 128,-1,24
 183 207 183 207 157 216 c 128,-1,25
 131 225 131 225 105 237.5 c 128,-1,26
 79 250 79 250 60.5 277.5 c 128,-1,27
 42 305 42 305 42 346 c 0,28,29
 42 435 42 435 97 483 c 128,-1,30
 152 531 152 531 240 531 c 0,31,32
 294 531 294 531 340 516.5 c 128,-1,33
 386 502 386 502 386 470 c 0,34,35
 386 454 386 454 366.5 424.5 c 128,-1,36
 347 395 347 395 333 395 c 0,37,38
 331 395 331 395 306 405 c 128,-1,39
 281 415 281 415 251 415 c 0,0,1
EndSplineSet
EndChar

StartChar: t
Encoding: 116 116 87
Width: 342
GlyphClass: 2
Flags: W
LayerCount: 2
Fore
SplineSet
65 406 m 2,0,1
 39 406 39 406 39 442 c 0,2,3
 39 523 39 523 77 523 c 2,4,-1
 97 523 l 1,5,-1
 107 618 l 2,6,7
 110 650 110 650 170 650 c 2,8,-1
 198 650 l 2,9,10
 226 650 226 650 240.5 641 c 128,-1,11
 255 632 255 632 255 619 c 1,12,-1
 245 523 l 1,13,-1
 304 523 l 2,14,15
 314 523 314 523 317 518.5 c 128,-1,16
 320 514 320 514 320 492 c 128,-1,17
 320 470 320 470 304.5 438 c 128,-1,18
 289 406 289 406 262 406 c 2,19,-1
 233 406 l 1,20,21
 205 145 205 145 205 142 c 0,22,23
 205 109 205 109 235 109 c 0,24,25
 246 109 246 109 259 112 c 128,-1,26
 272 115 272 115 273 115 c 0,27,28
 281 115 281 115 281 100 c 128,-1,29
 281 85 281 85 274 44 c 0,30,31
 270 19 270 19 243 5.5 c 128,-1,32
 216 -8 216 -8 186 -8 c 0,33,34
 56 -8 56 -8 56 125 c 1,35,-1
 85 406 l 1,36,-1
 65 406 l 2,0,1
EndSplineSet
EndChar

StartChar: u
Encoding: 117 117 88
Width: 557
GlyphClass: 2
Flags: W
LayerCount: 2
Fore
SplineSet
436 -8 m 0,0,1
 339 -8 339 -8 320 72 c 1,2,3
 291 38 291 38 248 15 c 128,-1,4
 205 -8 205 -8 160 -8 c 0,5,6
 92 -8 92 -8 60 23 c 128,-1,7
 28 54 28 54 28 119 c 0,8,9
 28 160 28 160 56 408 c 1,10,-1
 65 493 l 2,11,12
 68 525 68 525 128 525 c 2,13,-1
 156 525 l 2,14,15
 184 525 184 525 198.5 516 c 128,-1,16
 213 507 213 507 213 494 c 1,17,18
 179 176 179 176 179 163 c 0,19,20
 179 114 179 114 229.5 114 c 128,-1,21
 280 114 280 114 319 168 c 1,22,-1
 353 493 l 2,23,24
 356 525 356 525 416 525 c 2,25,-1
 444 525 l 2,26,27
 472 525 472 525 486.5 516 c 128,-1,28
 501 507 501 507 501 494 c 1,29,30
 464 152 464 152 464 142 c 0,31,32
 464 109 464 109 494 109 c 0,33,34
 502 109 502 109 512 112 c 128,-1,35
 522 115 522 115 523 115 c 0,36,37
 531 115 531 115 531 100 c 128,-1,38
 531 85 531 85 524 44 c 0,39,40
 520 19 520 19 493 5.5 c 128,-1,41
 466 -8 466 -8 436 -8 c 0,0,1
EndSplineSet
EndChar

StartChar: v
Encoding: 118 118 89
Width: 485
GlyphClass: 2
Flags: W
LayerCount: 2
Fore
SplineSet
25 500 m 0,0,1
 25 525 25 525 88 525 c 2,2,-1
 121 525 l 2,3,4
 170 525 170 525 175 504 c 2,5,-1
 215 319 l 2,6,7
 218 306 218 306 223 260.5 c 128,-1,8
 228 215 228 215 230 198 c 1,9,-1
 234 198 l 1,10,11
 259 281 259 281 275 319 c 2,12,-1
 353 504 l 2,13,14
 362 525 362 525 411 525 c 2,15,-1
 436 525 l 2,16,17
 493 525 493 525 493 502 c 0,18,19
 493 494 493 494 489 485 c 2,20,-1
 281 19 l 2,21,22
 272 -2 272 -2 223 -2 c 2,23,-1
 191 -2 l 2,24,25
 142 -2 142 -2 137 19 c 2,26,-1
 27 485 l 2,27,28
 25 497 25 497 25 500 c 0,0,1
EndSplineSet
EndChar

StartChar: w
Encoding: 119 119 90
Width: 747
GlyphClass: 2
Flags: W
LayerCount: 2
Fore
SplineSet
103 525 m 2,0,-1
 127 525 l 2,1,2
 177 525 177 525 180 504 c 2,3,-1
 227 196 l 1,4,-1
 335 504 l 2,5,6
 342 525 342 525 392 525 c 2,7,-1
 416 525 l 2,8,9
 466 525 466 525 469 504 c 2,10,-1
 511 196 l 1,11,-1
 624 504 l 2,12,13
 632 525 632 525 681 525 c 2,14,-1
 685 525 l 2,15,16
 744 525 744 525 744 501 c 0,17,18
 744 494 744 494 741 484 c 2,19,-1
 574 19 l 2,20,21
 566 -2 566 -2 517 -2 c 2,22,-1
 468 -2 l 2,23,24
 420 -2 420 -2 415 19 c 1,25,-1
 373 300 l 1,26,-1
 275 19 l 2,27,28
 268 -2 268 -2 218 -2 c 2,29,-1
 169 -2 l 2,30,31
 119 -2 119 -2 116 19 c 2,32,-1
 39 484 l 2,33,34
 38 490 38 490 38 499 c 1,35,36
 41 525 41 525 103 525 c 2,0,-1
EndSplineSet
EndChar

StartChar: x
Encoding: 120 120 91
Width: 485
GlyphClass: 2
Flags: W
LayerCount: 2
Fore
SplineSet
32 505 m 0,0,1
 32 525 32 525 96 525 c 2,2,-1
 128 525 l 2,3,4
 178 525 178 525 187 506 c 2,5,-1
 250 383 l 1,6,-1
 342 506 l 2,7,8
 356 525 356 525 405 525 c 2,9,-1
 434 525 l 2,10,11
 494 525 494 525 494 506 c 0,12,13
 494 497 494 497 482 482 c 2,14,-1
 313 266 l 1,15,-1
 437 42 l 2,16,17
 444 29 444 29 444 17.5 c 128,-1,18
 444 6 444 6 428.5 2 c 128,-1,19
 413 -2 413 -2 381 -2 c 2,20,-1
 349 -2 l 2,21,22
 300 -2 300 -2 290 17 c 2,23,-1
 222 148 l 1,24,-1
 125 17 l 2,25,26
 111 -2 111 -2 62 -2 c 2,27,-1
 32 -2 l 2,28,29
 -28 -2 -28 -2 -28 18 c 0,30,31
 -28 26 -28 26 -16 41 c 2,32,-1
 159 265 l 1,33,-1
 40 481 l 2,34,35
 32 494 32 494 32 505 c 0,0,1
EndSplineSet
EndChar

StartChar: y
Encoding: 121 121 92
Width: 481
GlyphClass: 2
Flags: W
LayerCount: 2
Fore
SplineSet
27 499 m 0,0,1
 27 525 27 525 91 525 c 2,2,-1
 123 525 l 2,3,4
 172 525 172 525 177 504 c 2,5,-1
 216 319 l 2,6,7
 220 300 220 300 232 198 c 1,8,-1
 236 198 l 1,9,10
 263 287 263 287 276 319 c 2,11,-1
 355 504 l 2,12,13
 364 525 364 525 413 525 c 2,14,-1
 437 525 l 2,15,16
 495 525 495 525 495 504 c 0,17,18
 495 502 495 502 490 485 c 1,19,-1
 190 -185 l 2,20,21
 181 -206 181 -206 132 -206 c 2,22,-1
 115 -206 l 2,23,24
 57 -206 57 -206 57 -186 c 0,25,26
 57 -178 57 -178 63 -167 c 2,27,-1
 144 0 l 1,28,29
 27 494 27 494 27 499 c 0,0,1
EndSplineSet
EndChar

StartChar: z
Encoding: 122 122 93
Width: 489
GlyphClass: 2
Flags: W
LayerCount: 2
Fore
SplineSet
414 117 m 2,0,1
 440 117 440 117 440 81 c 0,2,3
 440 0 440 0 402 0 c 2,4,-1
 31 0 l 2,5,6
 22 0 22 0 14.5 25.5 c 128,-1,7
 7 51 7 51 7 69.5 c 128,-1,8
 7 88 7 88 11 92 c 2,9,-1
 272 406 l 1,10,-1
 84 406 l 2,11,12
 58 406 58 406 58 442 c 0,13,14
 58 523 58 523 96 523 c 2,15,-1
 448 523 l 2,16,17
 457 523 457 523 464.5 497.5 c 128,-1,18
 472 472 472 472 472 453.5 c 128,-1,19
 472 435 472 435 468 431 c 2,20,-1
 207 117 l 1,21,-1
 414 117 l 2,0,1
EndSplineSet
EndChar

StartChar: braceleft
Encoding: 123 123 94
Width: 274
GlyphClass: 2
Flags: W
LayerCount: 2
Fore
SplineSet
194 -44 m 0,0,1
 220 -44 220 -44 220 -73 c 0,2,3
 220 -138 220 -138 184 -138 c 2,4,-1
 145 -138 l 2,5,6
 105 -138 105 -138 81 -110.5 c 128,-1,7
 57 -83 57 -83 57 -39 c 0,8,9
 57 -22 57 -22 67.5 62 c 128,-1,10
 78 146 78 146 78 179.5 c 128,-1,11
 78 213 78 213 68.5 232.5 c 128,-1,12
 59 252 59 252 47 258 c 0,13,14
 16 275 16 275 16 303 c 128,-1,15
 16 331 16 331 23.5 345.5 c 128,-1,16
 31 360 31 360 55 372.5 c 128,-1,17
 79 385 79 385 92.5 409.5 c 128,-1,18
 106 434 106 434 111 484 c 2,19,-1
 129 652 l 2,20,21
 134 704 134 704 164 736 c 128,-1,22
 194 768 194 768 240 768 c 2,23,-1
 279 768 l 2,24,25
 306 768 306 768 306 739 c 0,26,27
 306 674 306 674 269 674 c 0,28,29
 245 674 245 674 242 638 c 2,30,-1
 225 468 l 2,31,32
 213 358 213 358 141 315 c 1,33,34
 194 283 194 283 194 195 c 0,35,36
 194 173 194 173 184 86 c 128,-1,37
 174 -1 174 -1 174 -22.5 c 128,-1,38
 174 -44 174 -44 194 -44 c 0,0,1
EndSplineSet
EndChar

StartChar: bar
Encoding: 124 124 95
Width: 250
GlyphClass: 2
Flags: W
LayerCount: 2
Fore
SplineSet
68 -108 m 2,0,-1
 68 738 l 2,1,2
 68 768 68 768 118 768 c 2,3,-1
 133 768 l 2,4,5
 183 768 183 768 183 738 c 2,6,-1
 183 -108 l 2,7,8
 183 -138 183 -138 133 -138 c 2,9,-1
 118 -138 l 2,10,11
 68 -138 68 -138 68 -108 c 2,0,-1
EndSplineSet
EndChar

StartChar: braceright
Encoding: 125 125 96
Width: 274
GlyphClass: 2
Flags: W
LayerCount: 2
Fore
SplineSet
85 674 m 0,0,1
 59 674 59 674 59 703 c 0,2,3
 59 768 59 768 95 768 c 2,4,-1
 134 768 l 2,5,6
 174 768 174 768 198 740.5 c 128,-1,7
 222 713 222 713 222 669 c 0,8,9
 222 652 222 652 211.5 568 c 128,-1,10
 201 484 201 484 201 450.5 c 128,-1,11
 201 417 201 417 210.5 397.5 c 128,-1,12
 220 378 220 378 232 372 c 0,13,14
 263 355 263 355 263 326.5 c 128,-1,15
 263 298 263 298 255.5 283.5 c 128,-1,16
 248 269 248 269 224 257 c 128,-1,17
 200 245 200 245 186.5 219.5 c 128,-1,18
 173 194 173 194 168 146 c 2,19,-1
 150 -22 l 2,20,21
 145 -74 145 -74 115 -106 c 128,-1,22
 85 -138 85 -138 39 -138 c 2,23,-1
 0 -138 l 2,24,25
 -27 -138 -27 -138 -27 -109 c 0,26,27
 -27 -44 -27 -44 10 -44 c 0,28,29
 33 -44 33 -44 37 -8 c 2,30,-1
 54 162 l 2,31,32
 65 273 65 273 138 315 c 1,33,34
 85 347 85 347 85 435 c 0,35,36
 85 457 85 457 95 544 c 128,-1,37
 105 631 105 631 105 652.5 c 128,-1,38
 105 674 105 674 85 674 c 0,0,1
EndSplineSet
EndChar

StartChar: asciitilde
Encoding: 126 126 97
Width: 547
GlyphClass: 2
Flags: W
LayerCount: 2
Fore
SplineSet
130.5 219.5 m 128,-1,1
 111 214 111 214 100.5 214 c 128,-1,2
 90 214 90 214 77 231 c 128,-1,3
 64 248 64 248 64 265 c 0,4,5
 64 291 64 291 115 318.5 c 128,-1,6
 166 346 166 346 206 346 c 128,-1,7
 246 346 246 346 300 325 c 128,-1,8
 354 304 354 304 373 304 c 128,-1,9
 392 304 392 304 413 311.5 c 128,-1,10
 434 319 434 319 446.5 319 c 128,-1,11
 459 319 459 319 471.5 299 c 128,-1,12
 484 279 484 279 484 261 c 0,13,14
 484 233 484 233 431 208 c 128,-1,15
 378 183 378 183 339 183 c 128,-1,16
 300 183 300 183 246.5 204 c 128,-1,17
 193 225 193 225 171.5 225 c 128,-1,0
 150 225 150 225 130.5 219.5 c 128,-1,1
EndSplineSet
EndChar

StartChar: exclamdown
Encoding: 161 161 99
Width: 294
GlyphClass: 2
Flags: W
LayerCount: 2
Fore
SplineSet
190 369 m 2,0,-1
 158 369 l 2,1,2
 101 369 101 369 101 401 c 1,3,-1
 111 493 l 2,4,5
 114 525 114 525 174 525 c 2,6,-1
 206 525 l 2,7,8
 263 525 263 525 263 493 c 1,9,-1
 253 401 l 2,10,11
 250 369 250 369 190 369 c 2,0,-1
161 301 m 2,12,-1
 172 301 l 2,13,14
 202 301 202 301 211 294 c 128,-1,15
 220 287 220 287 220 269 c 1,16,-1
 176 -147 l 2,17,18
 173 -179 173 -179 113 -179 c 2,19,-1
 70 -179 l 2,20,21
 12 -179 12 -179 12 -150 c 0,22,23
 12 -131 12 -131 107 269 c 0,24,25
 111 286 111 286 121.5 293.5 c 128,-1,26
 132 301 132 301 161 301 c 2,12,-1
EndSplineSet
EndChar

StartChar: cent
Encoding: 162 162 100
Width: 486
GlyphClass: 2
Flags: W
LayerCount: 2
Fore
SplineSet
468 462 m 0,0,1
 468 446 468 446 448 416 c 128,-1,2
 428 386 428 386 413 386 c 0,3,4
 410 386 410 386 387 398 c 128,-1,5
 364 410 364 410 336 413 c 1,6,-1
 304 110 l 1,7,8
 350 115 350 115 400 141 c 0,9,10
 416 149 416 149 420 149 c 0,11,12
 428 149 428 149 428 135 c 0,13,14
 428 84 428 84 420 58 c 0,15,16
 404 5 404 5 292 -6 c 1,17,-1
 287 -55 l 2,18,19
 284 -75 284 -75 265 -75 c 2,20,-1
 248 -75 l 2,21,22
 237 -75 237 -75 233.5 -70.5 c 128,-1,23
 230 -66 230 -66 230 -55 c 1,24,-1
 235 -7 l 1,25,26
 38 3 38 3 38 204 c 0,27,28
 38 343 38 343 98 433 c 128,-1,29
 158 523 158 523 291 530 c 1,30,-1
 296 571 l 2,31,32
 299 591 299 591 318 591 c 2,33,-1
 335 591 l 2,34,35
 353 591 353 591 353 571 c 1,36,-1
 348 529 l 1,37,38
 468 517 468 517 468 462 c 0,0,1
189 219 m 0,39,40
 189 129 189 129 247 113 c 1,41,-1
 279 408 l 1,42,43
 189 381 189 381 189 219 c 0,39,40
EndSplineSet
EndChar

StartChar: sterling
Encoding: 163 163 101
Width: 491
GlyphClass: 2
Flags: W
LayerCount: 2
Fore
SplineSet
338 311 m 2,0,-1
 248 311 l 1,1,-1
 242 251 l 2,2,3
 233 160 233 160 187 117 c 1,4,-1
 410 117 l 2,5,6
 435 117 435 117 435 84 c 0,7,8
 435 73 435 73 434 67 c 2,9,-1
 433 50 l 2,10,11
 430 0 430 0 397 0 c 2,12,-1
 34 0 l 2,13,14
 13 0 13 0 6 9 c 128,-1,15
 -1 18 -1 18 -1 40 c 1,16,-1
 1 59 l 2,17,18
 3 82 3 82 44 107 c 0,19,20
 59 116 59 116 73 134 c 128,-1,21
 87 152 87 152 89 175 c 2,22,-1
 103 311 l 1,23,-1
 68 311 l 2,24,25
 42 311 42 311 42 347 c 0,26,27
 42 428 42 428 80 428 c 2,28,-1
 115 428 l 1,29,-1
 123 502 l 2,30,31
 145 708 145 708 375 708 c 0,32,33
 480 708 480 708 480 667 c 0,34,35
 480 641 480 641 462.5 614.5 c 128,-1,36
 445 588 445 588 432 588 c 0,37,38
 431 588 431 588 422 590 c 0,39,40
 395 596 395 596 359 596 c 128,-1,41
 323 596 323 596 298.5 575 c 128,-1,42
 274 554 274 554 269 507 c 2,43,-1
 260 428 l 1,44,-1
 380 428 l 2,45,46
 390 428 390 428 393 423.5 c 128,-1,47
 396 419 396 419 396 397 c 128,-1,48
 396 375 396 375 380.5 343 c 128,-1,49
 365 311 365 311 338 311 c 2,0,-1
EndSplineSet
EndChar

StartChar: currency
Encoding: 164 164 102
Width: 534
GlyphClass: 2
Flags: W
LayerCount: 2
Fore
SplineSet
35 114 m 2,0,1
 25 126 25 126 25 138 c 128,-1,2
 25 150 25 150 40 164 c 2,3,-1
 64 186 l 1,4,5
 47 223 47 223 47 266 c 0,6,7
 47 339 47 339 88 395 c 1,8,-1
 64 422 l 2,9,10
 55 433 55 433 55 446 c 128,-1,11
 55 459 55 459 69 472 c 2,12,-1
 102 502 l 2,13,14
 115 514 115 514 128.5 514 c 128,-1,15
 142 514 142 514 152 502 c 2,16,-1
 178 474 l 1,17,18
 228 500 228 500 281.5 500 c 128,-1,19
 335 500 335 500 381 473 c 1,20,-1
 413 502 l 2,21,22
 426 514 426 514 439 514 c 128,-1,23
 452 514 452 514 463 502 c 2,24,-1
 490 472 l 2,25,26
 500 460 500 460 500 448 c 128,-1,27
 500 436 500 436 485 422 c 2,28,-1
 453 393 l 1,29,30
 471 356 471 356 471 312 c 0,31,32
 471 245 471 245 433 188 c 1,33,-1
 455 164 l 2,34,35
 464 154 464 154 464 140.5 c 128,-1,36
 464 127 464 127 450 114 c 2,37,-1
 417 84 l 2,38,39
 404 72 404 72 391 72 c 128,-1,40
 378 72 378 72 367 84 c 2,41,-1
 346 107 l 1,42,43
 296 78 296 78 238.5 78 c 128,-1,44
 181 78 181 78 135 105 c 1,45,-1
 112 84 l 2,46,47
 98 72 98 72 85 72 c 128,-1,48
 72 72 72 72 62 84 c 2,49,-1
 35 114 l 2,0,1
186 216.5 m 128,-1,51
 211 192 211 192 251.5 192 c 128,-1,52
 292 192 292 192 324 224 c 128,-1,53
 356 256 356 256 356 296.5 c 128,-1,54
 356 337 356 337 331 361.5 c 128,-1,55
 306 386 306 386 265.5 386 c 128,-1,56
 225 386 225 386 193 354 c 128,-1,57
 161 322 161 322 161 281.5 c 128,-1,50
 161 241 161 241 186 216.5 c 128,-1,51
EndSplineSet
EndChar

StartChar: yen
Encoding: 165 165 103
Width: 559
GlyphClass: 2
Flags: W
LayerCount: 2
Fore
SplineSet
41 357 m 0,0,1
 41 408 41 408 78 408 c 2,2,-1
 166 408 l 1,3,-1
 38 657 l 2,4,5
 32 669 32 669 32 679 c 128,-1,6
 32 689 32 689 42 694 c 0,7,8
 57 702 57 702 96 702 c 2,9,-1
 139 702 l 2,10,11
 188 702 188 702 197 683 c 2,12,-1
 297 469 l 1,13,-1
 442 683 l 2,14,15
 455 702 455 702 504 702 c 2,16,-1
 540 702 l 2,17,18
 601 702 601 702 601 682 c 0,19,20
 601 673 601 673 590 657 c 2,21,-1
 411 408 l 1,22,-1
 494 408 l 2,23,24
 520 408 520 408 520 384 c 0,25,26
 520 333 520 333 483 333 c 2,27,-1
 357 333 l 1,28,-1
 350 270 l 1,29,-1
 479 270 l 2,30,31
 505 270 505 270 505 246 c 0,32,33
 505 195 505 195 468 195 c 2,34,-1
 342 195 l 1,35,-1
 325 30 l 2,36,37
 322 -2 322 -2 262 -2 c 2,38,-1
 228 -2 l 2,39,40
 171 -2 171 -2 171 30 c 1,41,-1
 188 195 l 1,42,-1
 52 195 l 2,43,44
 26 195 26 195 26 219 c 0,45,46
 26 270 26 270 63 270 c 2,47,-1
 196 270 l 1,48,-1
 202 333 l 1,49,-1
 67 333 l 2,50,51
 41 333 41 333 41 357 c 0,0,1
EndSplineSet
EndChar

StartChar: brokenbar
Encoding: 166 166 104
Width: 250
GlyphClass: 2
Flags: W
LayerCount: 2
Fore
SplineSet
77 407 m 1,0,1
 78 411 78 411 78 412 c 2,2,-1
 112 738 l 2,3,4
 115 770 115 770 165 770 c 2,5,-1
 180 770 l 2,6,7
 227 770 227 770 227 738 c 1,8,-1
 193 412 l 2,9,10
 190 380 190 380 139 380 c 2,11,-1
 124 380 l 2,12,13
 77 380 77 380 77 407 c 1,0,1
111 250 m 2,14,-1
 126 250 l 2,15,16
 152 250 152 250 162 242.5 c 128,-1,17
 172 235 172 235 172 218 c 1,18,-1
 138 -108 l 2,19,20
 135 -140 135 -140 85 -140 c 2,21,-1
 70 -140 l 2,22,23
 43 -140 43 -140 33 -132.5 c 128,-1,24
 23 -125 23 -125 23 -108 c 1,25,-1
 57 218 l 2,26,27
 60 250 60 250 111 250 c 2,14,-1
EndSplineSet
EndChar

StartChar: section
Encoding: 167 167 105
Width: 429
GlyphClass: 2
Flags: W
LayerCount: 2
Fore
SplineSet
56 18 m 0,0,1
 40 30 40 30 40 47 c 0,2,3
 40 137 40 137 62 137 c 0,4,5
 64 137 64 137 78 130 c 0,6,7
 120 109 120 109 162 109 c 0,8,9
 219 109 219 109 219 143 c 0,10,11
 219 159 219 159 200.5 170.5 c 128,-1,12
 182 182 182 182 156 192 c 128,-1,13
 130 202 130 202 103.5 216 c 128,-1,14
 77 230 77 230 58.5 259 c 128,-1,15
 40 288 40 288 40 329 c 0,16,17
 40 406 40 406 90 459 c 1,18,19
 61 486 61 486 61 534 c 0,20,21
 61 614 61 614 116 661 c 128,-1,22
 171 708 171 708 262 708 c 0,23,24
 315 708 315 708 359.5 693.5 c 128,-1,25
 404 679 404 679 404 647 c 0,26,27
 404 631 404 631 384.5 601.5 c 128,-1,28
 365 572 365 572 351 572 c 0,29,30
 349 572 349 572 324.5 582 c 128,-1,31
 300 592 300 592 270 592 c 0,32,33
 213 592 213 592 213 558 c 0,34,35
 213 542 213 542 231.5 530.5 c 128,-1,36
 250 519 250 519 276 509 c 128,-1,37
 302 499 302 499 328.5 485 c 128,-1,38
 355 471 355 471 373.5 442 c 128,-1,39
 392 413 392 413 392 372 c 0,40,41
 392 296 392 296 342 242 c 1,42,43
 371 211 371 211 371 166 c 0,44,45
 371 87 371 87 315.5 40 c 128,-1,46
 260 -7 260 -7 174 -7 c 128,-1,47
 88 -7 88 -7 56 18 c 0,0,1
245 292 m 1,48,49
 259 316 259 316 259 341.5 c 128,-1,50
 259 367 259 367 241 381.5 c 128,-1,51
 223 396 223 396 187 409 c 1,52,53
 173 388 173 388 173 360.5 c 128,-1,54
 173 333 173 333 191 319 c 128,-1,55
 209 305 209 305 245 292 c 1,48,49
EndSplineSet
EndChar

StartChar: dieresis
Encoding: 168 168 106
Width: 320
GlyphClass: 2
Flags: W
LayerCount: 2
Fore
SplineSet
194 670 m 2,0,1
 197 702 197 702 255.5 702 c 128,-1,2
 314 702 314 702 314 670 c 1,3,-1
 307 610 l 1,4,5
 302 578 302 578 244.5 578 c 128,-1,6
 187 578 187 578 187 610 c 1,7,-1
 194 670 l 2,0,1
14 670 m 2,8,9
 17 702 17 702 75.5 702 c 128,-1,10
 134 702 134 702 134 670 c 1,11,-1
 127 610 l 1,12,13
 122 578 122 578 64.5 578 c 128,-1,14
 7 578 7 578 7 610 c 1,15,-1
 14 670 l 2,8,9
EndSplineSet
EndChar

StartChar: copyright
Encoding: 169 169 107
Width: 739
GlyphClass: 2
Flags: W
LayerCount: 2
Fore
SplineSet
10 350 m 128,-1,1
 10 498 10 498 115 603 c 128,-1,2
 220 708 220 708 368 708 c 128,-1,3
 516 708 516 708 621 603 c 128,-1,4
 726 498 726 498 726 350 c 128,-1,5
 726 202 726 202 621 97 c 128,-1,6
 516 -8 516 -8 368 -8 c 128,-1,7
 220 -8 220 -8 115 97 c 128,-1,0
 10 202 10 202 10 350 c 128,-1,1
74 350 m 128,-1,9
 74 228 74 228 160 142 c 128,-1,10
 246 56 246 56 368 56 c 128,-1,11
 490 56 490 56 576 142 c 128,-1,12
 662 228 662 228 662 350 c 128,-1,13
 662 472 662 472 576 558 c 128,-1,14
 490 644 490 644 368 644 c 128,-1,15
 246 644 246 644 160 558 c 128,-1,8
 74 472 74 472 74 350 c 128,-1,9
197 353 m 0,16,17
 197 552 197 552 383 552 c 0,18,19
 424 552 424 552 462 540.5 c 128,-1,20
 500 529 500 529 500 513 c 0,21,22
 500 500 500 500 487 480 c 128,-1,23
 474 460 474 460 464 460 c 0,24,25
 462 460 462 460 452 464 c 0,26,27
 424 478 424 478 382 478 c 0,28,29
 285 478 285 478 285 351.5 c 128,-1,30
 285 225 285 225 381 225 c 0,31,32
 424 225 424 225 458 242 c 0,33,34
 470 248 470 248 472 248 c 0,35,36
 484 248 484 248 494.5 228.5 c 128,-1,37
 505 209 505 209 505 199 c 0,38,39
 505 176 505 176 464 164 c 128,-1,40
 423 152 423 152 381 152 c 0,41,42
 287 152 287 152 242 201 c 128,-1,43
 197 250 197 250 197 353 c 0,16,17
EndSplineSet
EndChar

StartChar: ordfeminine
Encoding: 170 170 108
Width: 319
GlyphClass: 2
Flags: W
LayerCount: 2
Fore
SplineSet
257 499 m 0,0,1
 261 499 261 499 272 502 c 0,2,3
 275 502 275 502 275 496 c 0,4,5
 275 441 275 441 228 441 c 128,-1,6
 181 441 181 441 172 478 c 1,7,8
 146 440 146 440 106.5 440 c 128,-1,9
 67 440 67 440 45.5 468 c 128,-1,10
 24 496 24 496 24 557.5 c 128,-1,11
 24 619 24 619 54.5 663 c 128,-1,12
 85 707 85 707 134 707 c 0,13,14
 165 707 165 707 194 681 c 1,15,16
 198 696 198 696 203 700 c 128,-1,17
 208 704 208 704 226 704 c 2,18,-1
 232 704 l 2,19,20
 261 704 261 704 261 692 c 1,21,-1
 252 606 l 2,22,23
 242 519 242 519 242 514 c 0,24,25
 242 499 242 499 257 499 c 0,0,1
132 500 m 0,26,27
 153 500 153 500 171 529 c 1,28,29
 177 599 177 599 183 636 c 1,30,31
 168 649 168 649 151 649 c 0,32,33
 98 649 98 649 98 552 c 0,34,35
 98 500 98 500 132 500 c 0,26,27
EndSplineSet
EndChar

StartChar: guillemotleft
Encoding: 171 171 109
Width: 471
GlyphClass: 2
Flags: W
LayerCount: 2
Fore
SplineSet
237 214 m 2,0,1
 225 230 225 230 225 255 c 128,-1,2
 225 280 225 280 246 302 c 2,3,-1
 389 455 l 2,4,5
 403 469 403 469 418 469 c 128,-1,6
 433 469 433 469 452.5 453.5 c 128,-1,7
 472 438 472 438 472 425 c 128,-1,8
 472 412 472 412 460 398 c 2,9,-1
 336 258 l 1,10,-1
 431 118 l 2,11,12
 437 108 437 108 437 96 c 128,-1,13
 437 84 437 84 414.5 65 c 128,-1,14
 392 46 392 46 375 46 c 128,-1,15
 358 46 358 46 348 61 c 2,16,-1
 237 214 l 2,0,1
38 214 m 2,17,18
 26 229 26 229 26 254.5 c 128,-1,19
 26 280 26 280 47 302 c 2,20,-1
 190 455 l 2,21,22
 204 469 204 469 219 469 c 128,-1,23
 234 469 234 469 253.5 453.5 c 128,-1,24
 273 438 273 438 273 425 c 128,-1,25
 273 412 273 412 261 398 c 2,26,-1
 137 258 l 1,27,-1
 232 118 l 2,28,29
 238 108 238 108 238 96 c 128,-1,30
 238 84 238 84 215.5 65 c 128,-1,31
 193 46 193 46 176.5 46 c 128,-1,32
 160 46 160 46 149 61 c 2,33,-1
 38 214 l 2,17,18
EndSplineSet
EndChar

StartChar: logicalnot
Encoding: 172 172 110
Width: 560
GlyphClass: 2
Flags: W
LayerCount: 2
Fore
SplineSet
37 276 m 0,0,1
 37 349 37 349 74 349 c 2,2,-1
 504 349 l 2,3,4
 525 349 525 349 532.5 339.5 c 128,-1,5
 540 330 540 330 540 309 c 1,6,-1
 518 104 l 2,7,8
 515 72 515 72 475 72 c 2,9,-1
 455 72 l 2,10,11
 434 72 434 72 426 79.5 c 128,-1,12
 418 87 418 87 418 104 c 1,13,-1
 433 242 l 1,14,-1
 63 242 l 2,15,16
 37 242 37 242 37 276 c 0,0,1
EndSplineSet
EndChar

StartChar: uni00AD
Encoding: 173 173 111
Width: 320
GlyphClass: 2
Flags: W
LayerCount: 2
Fore
SplineSet
26 246 m 0,0,1
 26 319 26 319 63 319 c 2,2,-1
 267 319 l 2,3,4
 293 319 293 319 293 285 c 0,5,6
 293 212 293 212 256 212 c 2,7,-1
 52 212 l 2,8,9
 26 212 26 212 26 246 c 0,0,1
EndSplineSet
EndChar

StartChar: registered
Encoding: 174 174 112
Width: 739
GlyphClass: 2
Flags: W
LayerCount: 2
Fore
SplineSet
10 350 m 128,-1,1
 10 498 10 498 115 603 c 128,-1,2
 220 708 220 708 368 708 c 128,-1,3
 516 708 516 708 621 603 c 128,-1,4
 726 498 726 498 726 350 c 128,-1,5
 726 202 726 202 621 97 c 128,-1,6
 516 -8 516 -8 368 -8 c 128,-1,7
 220 -8 220 -8 115 97 c 128,-1,0
 10 202 10 202 10 350 c 128,-1,1
74 350 m 128,-1,9
 74 228 74 228 160 142 c 128,-1,10
 246 56 246 56 368 56 c 128,-1,11
 490 56 490 56 576 142 c 128,-1,12
 662 228 662 228 662 350 c 128,-1,13
 662 472 662 472 576 558 c 128,-1,14
 490 644 490 644 368 644 c 128,-1,15
 246 644 246 644 160 558 c 128,-1,8
 74 472 74 472 74 350 c 128,-1,9
241 174 m 2,16,-1
 241 526 l 2,17,18
 241 548 241 548 263 548 c 2,19,-1
 372 548 l 2,20,21
 511 548 511 548 511 443 c 0,22,23
 511 380 511 380 445 354 c 1,24,-1
 445 350 l 1,25,26
 470 339 470 339 486 301 c 2,27,-1
 535 178 l 2,28,29
 538 171 538 171 538 167 c 0,30,31
 538 156 538 156 505 156 c 2,32,-1
 482 156 l 2,33,34
 454 156 454 156 449 168 c 2,35,-1
 405 277 l 1,36,37
 396 295 396 295 385 302.5 c 128,-1,38
 374 310 374 310 349 310 c 2,39,-1
 327 310 l 1,40,-1
 327 174 l 2,41,42
 327 156 327 156 293 156 c 2,43,-1
 275 156 l 2,44,45
 241 156 241 156 241 174 c 2,16,-1
327 384 m 1,46,-1
 380 384 l 2,47,48
 397 384 397 384 410 398.5 c 128,-1,49
 423 413 423 413 423 432.5 c 128,-1,50
 423 452 423 452 410.5 463.5 c 128,-1,51
 398 475 398 475 376 475 c 2,52,-1
 327 475 l 1,53,-1
 327 384 l 1,46,-1
EndSplineSet
EndChar

StartChar: macron
Encoding: 175 175 113
Width: 320
GlyphClass: 2
Flags: W
LayerCount: 2
Fore
SplineSet
18 627 m 0,0,1
 18 692 18 692 55 692 c 2,2,-1
 271 692 l 2,3,4
 297 692 297 692 297 662 c 0,5,6
 297 597 297 597 260 597 c 2,7,-1
 44 597 l 2,8,9
 18 597 18 597 18 627 c 0,0,1
EndSplineSet
EndChar

StartChar: degree
Encoding: 176 176 114
Width: 345
GlyphClass: 2
Flags: W
LayerCount: 2
Fore
SplineSet
70 477.5 m 128,-1,1
 36 512 36 512 36 566 c 128,-1,2
 36 620 36 620 77 664 c 128,-1,3
 118 708 118 708 176 708 c 128,-1,4
 234 708 234 708 268.5 673.5 c 128,-1,5
 303 639 303 639 303 583.5 c 128,-1,6
 303 528 303 528 262 485.5 c 128,-1,7
 221 443 221 443 162.5 443 c 128,-1,0
 104 443 104 443 70 477.5 c 128,-1,1
219.5 628 m 128,-1,9
 202 646 202 646 172 646 c 128,-1,10
 142 646 142 646 121.5 622.5 c 128,-1,11
 101 599 101 599 101 570 c 128,-1,12
 101 541 101 541 118.5 523 c 128,-1,13
 136 505 136 505 166 505 c 128,-1,14
 196 505 196 505 216.5 528 c 128,-1,15
 237 551 237 551 237 580.5 c 128,-1,8
 237 610 237 610 219.5 628 c 128,-1,9
EndSplineSet
EndChar

StartChar: plusminus
Encoding: 177 177 115
Width: 560
GlyphClass: 2
Flags: W
LayerCount: 2
Fore
SplineSet
46 347 m 0,0,1
 46 420 46 420 83 420 c 2,2,-1
 234 420 l 1,3,-1
 250 574 l 2,4,5
 253 604 253 604 303 604 c 2,6,-1
 317 604 l 2,7,8
 344 604 344 604 354 597 c 128,-1,9
 364 590 364 590 364 574 c 1,10,-1
 348 420 l 1,11,-1
 501 420 l 2,12,13
 527 420 527 420 527 384 c 0,14,15
 527 313 527 313 490 313 c 2,16,-1
 337 313 l 1,17,-1
 321 161 l 2,18,19
 318 131 318 131 268 131 c 2,20,-1
 254 131 l 2,21,22
 227 131 227 131 217 138 c 128,-1,23
 207 145 207 145 207 161 c 1,24,-1
 223 313 l 1,25,-1
 72 313 l 2,26,27
 46 313 46 313 46 347 c 0,0,1
14 34 m 0,28,29
 14 107 14 107 51 107 c 2,30,-1
 468 107 l 2,31,32
 494 107 494 107 494 73 c 0,33,34
 494 0 494 0 457 0 c 2,35,-1
 40 0 l 2,36,37
 14 0 14 0 14 34 c 0,28,29
EndSplineSet
EndChar

StartChar: twosuperior
Encoding: 178 178 116
Width: 320
GlyphClass: 2
Flags: W
LayerCount: 2
Fore
SplineSet
260 362 m 2,0,1
 276 362 276 362 276 341 c 0,2,3
 276 294 276 294 253 294 c 2,4,-1
 26 294 l 2,5,6
 20 294 20 294 15 311.5 c 128,-1,7
 10 329 10 329 10 339.5 c 128,-1,8
 10 350 10 350 12 354 c 1,9,-1
 179 536 l 2,10,11
 207 566 207 566 207 597 c 0,12,13
 207 639 207 639 157 639 c 0,14,15
 133 639 133 639 110.5 626.5 c 128,-1,16
 88 614 88 614 87 614 c 0,17,18
 75 614 75 614 66 626.5 c 128,-1,19
 57 639 57 639 57 651 c 0,20,21
 57 678 57 678 95 693 c 128,-1,22
 133 708 133 708 181.5 708 c 128,-1,23
 230 708 230 708 262.5 679 c 128,-1,24
 295 650 295 650 295 607 c 128,-1,25
 295 564 295 564 264.5 523 c 128,-1,26
 234 482 234 482 121 362 c 1,27,-1
 260 362 l 2,0,1
EndSplineSet
EndChar

StartChar: threesuperior
Encoding: 179 179 117
Width: 320
GlyphClass: 2
Flags: W
LayerCount: 2
Fore
SplineSet
126 290 m 0,0,1
 24 290 24 290 24 326 c 0,2,3
 24 381 24 381 38 381 c 0,4,5
 40 381 40 381 50 375 c 0,6,7
 80 358 80 358 114.5 358 c 128,-1,8
 149 358 149 358 166.5 376 c 128,-1,9
 184 394 184 394 184 425 c 0,10,11
 184 475 184 475 121 475 c 2,12,-1
 104 475 l 2,13,14
 89 475 89 475 89 496 c 0,15,16
 89 543 89 543 112 543 c 2,17,-1
 123 543 l 2,18,19
 154 543 154 543 171.5 558.5 c 128,-1,20
 189 574 189 574 189 600 c 0,21,22
 189 639 189 639 147 639 c 0,23,24
 120 639 120 639 98 630 c 128,-1,25
 76 621 76 621 75 621 c 0,26,27
 67 621 67 621 59 636 c 128,-1,28
 51 651 51 651 51 664 c 0,29,30
 51 685 51 685 86 696.5 c 128,-1,31
 121 708 121 708 170.5 708 c 128,-1,32
 220 708 220 708 249.5 684 c 128,-1,33
 279 660 279 660 279 622 c 128,-1,34
 279 584 279 584 261 558.5 c 128,-1,35
 243 533 243 533 214 521 c 1,36,-1
 214 516 l 1,37,38
 272 494 272 494 272 429.5 c 128,-1,39
 272 365 272 365 230.5 327.5 c 128,-1,40
 189 290 189 290 126 290 c 0,0,1
EndSplineSet
EndChar

StartChar: acute
Encoding: 180 180 118
Width: 320
GlyphClass: 2
Flags: W
LayerCount: 2
Fore
SplineSet
76 595 m 0,0,1
 47 595 47 595 47 608 c 0,2,3
 47 614 47 614 55.5 626.5 c 128,-1,4
 64 639 64 639 71.5 650 c 128,-1,5
 79 661 79 661 94 682.5 c 128,-1,6
 109 704 109 704 125.5 729 c 128,-1,7
 142 754 142 754 206 754 c 128,-1,8
 270 754 270 754 270 741 c 0,9,10
 270 734 270 734 265.5 728.5 c 128,-1,11
 261 723 261 723 225 688.5 c 128,-1,12
 189 654 189 654 159 624.5 c 128,-1,13
 129 595 129 595 76 595 c 0,0,1
EndSplineSet
EndChar

StartChar: mu
Encoding: 181 181 119
Width: 566
GlyphClass: 2
Flags: W
LayerCount: 2
Fore
SplineSet
151 525 m 2,0,-1
 179 525 l 2,1,2
 207 525 207 525 221.5 516 c 128,-1,3
 236 507 236 507 236 494 c 1,4,5
 202 176 202 176 202 163 c 0,6,7
 202 114 202 114 252.5 114 c 128,-1,8
 303 114 303 114 342 168 c 1,9,-1
 376 493 l 2,10,11
 379 525 379 525 439 525 c 2,12,-1
 467 525 l 2,13,14
 495 525 495 525 509.5 516 c 128,-1,15
 524 507 524 507 524 494 c 1,16,17
 487 152 487 152 487 142 c 0,18,19
 487 109 487 109 517 109 c 0,20,21
 525 109 525 109 535 112 c 128,-1,22
 545 115 545 115 546 115 c 0,23,24
 554 115 554 115 554 100 c 128,-1,25
 554 85 554 85 547 44 c 0,26,27
 543 19 543 19 516 5.5 c 128,-1,28
 489 -8 489 -8 459 -8 c 0,29,30
 362 -8 362 -8 343 72 c 1,31,32
 314 38 314 38 271 15 c 128,-1,33
 228 -8 228 -8 183 -8 c 1,34,-1
 165 -174 l 2,35,36
 162 -206 162 -206 102 -206 c 2,37,-1
 74 -206 l 2,38,39
 46 -206 46 -206 31.5 -197 c 128,-1,40
 17 -188 17 -188 17 -175 c 1,41,-1
 88 493 l 2,42,43
 91 525 91 525 151 525 c 2,0,-1
EndSplineSet
EndChar

StartChar: paragraph
Encoding: 182 182 120
Width: 515
GlyphClass: 2
Flags: W
LayerCount: 2
Fore
SplineSet
61 450 m 0,0,1
 61 564 61 564 135 632 c 128,-1,2
 209 700 209 700 313 700 c 2,3,-1
 526 700 l 2,4,5
 545 700 545 700 544 680 c 2,6,-1
 542 658 l 2,7,8
 541 638 541 638 520 638 c 2,9,-1
 484 638 l 1,10,-1
 401 -151 l 2,11,12
 398 -173 398 -173 379 -173 c 2,13,-1
 357 -173 l 2,14,15
 339 -173 339 -173 339 -151 c 1,16,-1
 422 638 l 1,17,-1
 344 638 l 1,18,-1
 261 -151 l 2,19,20
 258 -173 258 -173 239 -173 c 2,21,-1
 217 -173 l 2,22,23
 199 -173 199 -173 199 -151 c 1,24,-1
 241 247 l 1,25,26
 162 256 162 256 111.5 313 c 128,-1,27
 61 370 61 370 61 450 c 0,0,1
EndSplineSet
EndChar

StartChar: periodcentered
Encoding: 183 183 121
Width: 267
GlyphClass: 2
Flags: W
LayerCount: 2
Fore
SplineSet
88 306.5 m 128,-1,1
 70 324 70 324 70 352.5 c 128,-1,2
 70 381 70 381 91 405 c 128,-1,3
 112 429 112 429 143.5 429 c 128,-1,4
 175 429 175 429 193 411 c 128,-1,5
 211 393 211 393 211 363.5 c 128,-1,6
 211 334 211 334 189 311.5 c 128,-1,7
 167 289 167 289 136.5 289 c 128,-1,0
 106 289 106 289 88 306.5 c 128,-1,1
EndSplineSet
EndChar

StartChar: cedilla
Encoding: 184 184 122
Width: 320
GlyphClass: 2
Flags: W
LayerCount: 2
Fore
SplineSet
56 -188 m 1,0,1
 45 -176 45 -176 45 -160 c 0,2,3
 45 -112 45 -112 59 -112 c 0,4,5
 61 -112 61 -112 91 -125.5 c 128,-1,6
 121 -139 121 -139 146 -139 c 128,-1,7
 171 -139 171 -139 173 -122 c 1,8,9
 173 -110 173 -110 149 -98 c 128,-1,10
 125 -86 125 -86 125 -74 c 0,11,12
 125 -66 125 -66 159 10 c 1,13,-1
 225 10 l 1,14,-1
 207 -36 l 1,15,16
 277 -53 277 -53 277 -106.5 c 128,-1,17
 277 -160 277 -160 243 -186 c 128,-1,18
 209 -212 209 -212 145 -212 c 128,-1,19
 81 -212 81 -212 56 -188 c 1,0,1
EndSplineSet
EndChar

StartChar: onesuperior
Encoding: 185 185 123
Width: 217
GlyphClass: 2
Flags: W
LayerCount: 2
Fore
SplineSet
129 293 m 2,0,-1
 113 293 l 2,1,2
 80 293 80 293 80 312 c 1,3,-1
 113 624 l 1,4,-1
 33 611 l 1,5,6
 18 611 18 611 18 643 c 128,-1,7
 18 675 18 675 36 678 c 2,8,-1
 184 704 l 1,9,10
 191 704 191 704 198.5 699.5 c 128,-1,11
 206 695 206 695 206 690 c 2,12,-1
 166 312 l 2,13,14
 164 293 164 293 129 293 c 2,0,-1
EndSplineSet
EndChar

StartChar: ordmasculine
Encoding: 186 186 124
Width: 337
GlyphClass: 2
Flags: W
LayerCount: 2
Fore
SplineSet
45 548 m 0,0,1
 45 615 45 615 78.5 661.5 c 128,-1,2
 112 708 112 708 182 708 c 0,3,4
 289 708 289 708 289 600 c 0,5,6
 289 524 289 524 253 482.5 c 128,-1,7
 217 441 217 441 153 441 c 0,8,9
 45 441 45 441 45 548 c 0,0,1
160 499 m 0,10,11
 214 499 214 499 214 596 c 0,12,13
 214 650 214 650 175 650 c 0,14,15
 120 650 120 650 120 552 c 0,16,17
 120 499 120 499 160 499 c 0,10,11
EndSplineSet
EndChar

StartChar: guillemotright
Encoding: 187 187 125
Width: 471
GlyphClass: 2
Flags: W
LayerCount: 2
Fore
SplineSet
460 301 m 2,0,1
 472 286 472 286 472 260.5 c 128,-1,2
 472 235 472 235 451 213 c 2,3,-1
 308 60 l 2,4,5
 294 46 294 46 279 46 c 128,-1,6
 264 46 264 46 244.5 61.5 c 128,-1,7
 225 77 225 77 225 90 c 128,-1,8
 225 103 225 103 237 117 c 2,9,-1
 361 257 l 1,10,-1
 266 397 l 1,11,12
 260 408 260 408 260 419.5 c 128,-1,13
 260 431 260 431 282.5 450 c 128,-1,14
 305 469 305 469 321.5 469 c 128,-1,15
 338 469 338 469 349 454 c 2,16,-1
 460 301 l 2,0,1
273 268 m 0,17,18
 273 235 273 235 252 213 c 2,19,-1
 109 60 l 2,20,21
 95 46 95 46 80 46 c 128,-1,22
 65 46 65 46 45.5 61.5 c 128,-1,23
 26 77 26 77 26 90 c 128,-1,24
 26 103 26 103 38 117 c 2,25,-1
 162 257 l 1,26,-1
 67 397 l 1,27,28
 61 408 61 408 61 419.5 c 128,-1,29
 61 431 61 431 83.5 450 c 128,-1,30
 106 469 106 469 123 469 c 128,-1,31
 140 469 140 469 150 454 c 2,32,-1
 261 301 l 2,33,34
 273 284 273 284 273 268 c 0,17,18
EndSplineSet
EndChar

StartChar: onequarter
Encoding: 188 188 126
Width: 671
GlyphClass: 2
Flags: W
LayerCount: 2
Fore
SplineSet
157 293 m 2,0,-1
 141 293 l 2,1,2
 108 293 108 293 108 312 c 1,3,-1
 141 624 l 1,4,-1
 61 611 l 1,5,6
 46 611 46 611 46 643 c 128,-1,7
 46 675 46 675 64 678 c 2,8,-1
 212 704 l 1,9,10
 219 704 219 704 226.5 699.5 c 128,-1,11
 234 695 234 695 234 690 c 2,12,-1
 194 312 l 2,13,14
 192 293 192 293 157 293 c 2,0,-1
558 700 m 2,15,-1
 575 700 l 2,16,17
 595 700 595 700 595 690 c 0,18,19
 595 684 595 684 587 674 c 1,20,-1
 160 26 l 2,21,22
 142 0 142 0 113 0 c 2,23,-1
 96 0 l 2,24,25
 76 0 76 0 76 8 c 128,-1,26
 76 16 76 16 83 26 c 2,27,-1
 510 674 l 2,28,29
 527 700 527 700 558 700 c 2,15,-1
604 82 m 2,30,-1
 581 82 l 1,31,-1
 574 17 l 2,32,33
 572 -2 572 -2 537 -2 c 2,34,-1
 521 -2 l 2,35,36
 488 -2 488 -2 488 17 c 1,37,-1
 495 82 l 1,38,-1
 341 82 l 2,39,40
 335 82 335 82 330.5 100 c 128,-1,41
 326 118 326 118 326 130 c 128,-1,42
 326 142 326 142 327 143 c 2,43,-1
 527 399 l 2,44,45
 536 410 536 410 564 410 c 2,46,-1
 580 410 l 2,47,48
 613 410 613 410 613 391 c 1,49,-1
 588 151 l 1,50,-1
 611 151 l 2,51,52
 626 151 626 151 626 130 c 0,53,54
 626 82 626 82 604 82 c 2,30,-1
414 151 m 1,55,-1
 502 151 l 1,56,-1
 511 236 l 1,57,-1
 523 291 l 1,58,-1
 519 291 l 1,59,-1
 414 151 l 1,55,-1
EndSplineSet
EndChar

StartChar: onehalf
Encoding: 189 189 127
Width: 746
GlyphClass: 2
Flags: W
LayerCount: 2
Fore
SplineSet
157 293 m 2,0,-1
 141 293 l 2,1,2
 108 293 108 293 108 312 c 1,3,-1
 141 624 l 1,4,-1
 61 611 l 1,5,6
 46 611 46 611 46 643 c 128,-1,7
 46 675 46 675 64 678 c 2,8,-1
 212 704 l 1,9,10
 219 704 219 704 226.5 699.5 c 128,-1,11
 234 695 234 695 234 690 c 2,12,-1
 194 312 l 2,13,14
 192 293 192 293 157 293 c 2,0,-1
558 700 m 2,15,-1
 575 700 l 2,16,17
 595 700 595 700 595 690 c 0,18,19
 595 684 595 684 587 674 c 1,20,-1
 160 26 l 2,21,22
 142 0 142 0 113 0 c 2,23,-1
 96 0 l 2,24,25
 76 0 76 0 76 8 c 128,-1,26
 76 16 76 16 83 26 c 2,27,-1
 510 674 l 2,28,29
 527 700 527 700 558 700 c 2,15,-1
654 68 m 2,30,31
 670 68 670 68 670 47 c 0,32,33
 670 0 670 0 647 0 c 2,34,-1
 420 0 l 2,35,36
 414 0 414 0 409 17.5 c 128,-1,37
 404 35 404 35 404 45.5 c 128,-1,38
 404 56 404 56 406 60 c 1,39,-1
 573 242 l 2,40,41
 601 272 601 272 601 303 c 0,42,43
 601 345 601 345 551 345 c 0,44,45
 527 345 527 345 504.5 332.5 c 128,-1,46
 482 320 482 320 481 320 c 0,47,48
 469 320 469 320 460 332.5 c 128,-1,49
 451 345 451 345 451 357 c 0,50,51
 451 384 451 384 489 399 c 128,-1,52
 527 414 527 414 575.5 414 c 128,-1,53
 624 414 624 414 656.5 385 c 128,-1,54
 689 356 689 356 689 313 c 128,-1,55
 689 270 689 270 658.5 229 c 128,-1,56
 628 188 628 188 515 68 c 1,57,-1
 654 68 l 2,30,31
EndSplineSet
EndChar

StartChar: threequarters
Encoding: 190 190 128
Width: 738
GlyphClass: 2
Flags: W
LayerCount: 2
Fore
SplineSet
147 290 m 0,0,1
 45 290 45 290 45 326 c 0,2,3
 45 381 45 381 59 381 c 0,4,5
 61 381 61 381 72 375 c 0,6,7
 101 358 101 358 135.5 358 c 128,-1,8
 170 358 170 358 187.5 376 c 128,-1,9
 205 394 205 394 205 425 c 0,10,11
 205 475 205 475 142 475 c 2,12,-1
 125 475 l 2,13,14
 110 475 110 475 110 496 c 0,15,16
 110 543 110 543 133 543 c 2,17,-1
 144 543 l 2,18,19
 175 543 175 543 192.5 558.5 c 128,-1,20
 210 574 210 574 210 600 c 0,21,22
 210 639 210 639 168 639 c 0,23,24
 141 639 141 639 119 630 c 128,-1,25
 97 621 97 621 96 621 c 0,26,27
 88 621 88 621 80 636 c 128,-1,28
 72 651 72 651 72 664 c 0,29,30
 72 685 72 685 107 696.5 c 128,-1,31
 142 708 142 708 191.5 708 c 128,-1,32
 241 708 241 708 270.5 684 c 128,-1,33
 300 660 300 660 300 622 c 128,-1,34
 300 584 300 584 282 558.5 c 128,-1,35
 264 533 264 533 235 521 c 1,36,-1
 235 516 l 1,37,38
 293 494 293 494 293 429.5 c 128,-1,39
 293 365 293 365 251.5 327.5 c 128,-1,40
 210 290 210 290 147 290 c 0,0,1
598 700 m 2,41,-1
 615 700 l 2,42,43
 635 700 635 700 635 690 c 0,44,45
 635 684 635 684 627 674 c 1,46,-1
 200 26 l 2,47,48
 182 0 182 0 153 0 c 2,49,-1
 136 0 l 2,50,51
 116 0 116 0 116 8 c 128,-1,52
 116 16 116 16 123 26 c 2,53,-1
 550 674 l 2,54,55
 567 700 567 700 598 700 c 2,41,-1
644 82 m 2,56,-1
 621 82 l 1,57,-1
 614 17 l 2,58,59
 612 -2 612 -2 577 -2 c 2,60,-1
 561 -2 l 2,61,62
 528 -2 528 -2 528 17 c 1,63,-1
 535 82 l 1,64,-1
 381 82 l 2,65,66
 375 82 375 82 370.5 100 c 128,-1,67
 366 118 366 118 366 130 c 128,-1,68
 366 142 366 142 367 143 c 2,69,-1
 567 399 l 2,70,71
 576 410 576 410 604 410 c 2,72,-1
 620 410 l 2,73,74
 653 410 653 410 653 391 c 1,75,-1
 628 151 l 1,76,-1
 651 151 l 2,77,78
 666 151 666 151 666 130 c 0,79,80
 666 82 666 82 644 82 c 2,56,-1
454 151 m 1,81,-1
 542 151 l 1,82,-1
 551 236 l 1,83,-1
 563 291 l 1,84,-1
 559 291 l 1,85,-1
 454 151 l 1,81,-1
EndSplineSet
EndChar

StartChar: questiondown
Encoding: 191 191 129
Width: 425
GlyphClass: 2
Flags: W
LayerCount: 2
Fore
SplineSet
306 369 m 2,0,-1
 274 369 l 2,1,2
 218 369 218 369 218 401 c 1,3,-1
 227 493 l 2,4,5
 230 525 230 525 291 525 c 2,6,-1
 323 525 l 2,7,8
 356 525 356 525 367.5 517.5 c 128,-1,9
 379 510 379 510 379 493 c 1,10,-1
 370 401 l 2,11,12
 367 369 367 369 306 369 c 2,0,-1
197 -185 m 0,13,14
 104 -185 104 -185 51.5 -143.5 c 128,-1,15
 -1 -102 -1 -102 -1 -29 c 0,16,17
 -1 17 -1 17 18.5 56 c 128,-1,18
 38 95 38 95 67 121.5 c 128,-1,19
 96 148 96 148 126 171 c 0,20,21
 202 229 202 229 215 274 c 1,22,23
 222 290 222 290 234 295.5 c 128,-1,24
 246 301 246 301 271 301 c 2,25,-1
 294 301 l 2,26,27
 321 301 321 301 330.5 294.5 c 128,-1,28
 340 288 340 288 340 272 c 0,29,30
 340 228 340 228 311 184.5 c 128,-1,31
 282 141 282 141 248 113 c 0,32,33
 156 37 156 37 156 -5 c 0,34,35
 156 -53 156 -53 225 -53 c 0,36,37
 261 -53 261 -53 302 -36 c 1,38,-1
 344 -20 l 1,39,40
 356 -20 356 -20 356 -34 c 0,41,42
 356 -91 356 -91 345 -130 c 0,43,44
 329 -185 329 -185 197 -185 c 0,13,14
EndSplineSet
EndChar

StartChar: Agrave
Encoding: 192 192 130
Width: 613
GlyphClass: 2
Flags: W
LayerCount: 2
Fore
SplineSet
319 702 m 2,0,-1
 371 702 l 2,1,2
 421 702 421 702 426 681 c 2,3,-1
 584 38 l 2,4,5
 587 29 587 29 587 21 c 0,6,7
 587 -2 587 -2 533 -2 c 2,8,-1
 489 -2 l 2,9,10
 440 -2 440 -2 435 19 c 2,11,-1
 406 141 l 1,12,-1
 164 141 l 1,13,-1
 109 19 l 2,14,15
 99 -2 99 -2 61 -2 c 2,16,-1
 21 -2 l 2,17,18
 -37 -2 -37 -2 -37 18 c 0,19,20
 -37 26 -37 26 -31 38 c 2,21,-1
 260 681 l 2,22,23
 269 702 269 702 319 702 c 2,0,-1
301 451 m 2,24,-1
 221 273 l 1,25,-1
 375 273 l 1,26,-1
 335 451 l 1,27,-1
 327 515 l 1,28,-1
 323 515 l 1,29,30
 309 468 309 468 301 451 c 2,24,-1
437 791 m 0,31,32
 437 775 437 775 395 775 c 128,-1,33
 353 775 353 775 331 802 c 128,-1,34
 309 829 309 829 280.5 862.5 c 128,-1,35
 252 896 252 896 246 904.5 c 128,-1,36
 240 913 240 913 240 918 c 0,37,38
 240 934 240 934 305.5 934 c 128,-1,39
 371 934 371 934 384 907 c 0,40,41
 394 886 394 886 403.5 866 c 128,-1,42
 413 846 413 846 418.5 835 c 128,-1,43
 424 824 424 824 428 814 c 0,44,45
 437 795 437 795 437 791 c 0,31,32
EndSplineSet
EndChar

StartChar: Aacute
Encoding: 193 193 131
Width: 613
GlyphClass: 2
Flags: W
LayerCount: 2
Fore
SplineSet
319 702 m 2,0,-1
 371 702 l 2,1,2
 421 702 421 702 426 681 c 2,3,-1
 584 38 l 2,4,5
 587 29 587 29 587 21 c 0,6,7
 587 -2 587 -2 533 -2 c 2,8,-1
 489 -2 l 2,9,10
 440 -2 440 -2 435 19 c 2,11,-1
 406 141 l 1,12,-1
 164 141 l 1,13,-1
 109 19 l 2,14,15
 99 -2 99 -2 61 -2 c 2,16,-1
 21 -2 l 2,17,18
 -37 -2 -37 -2 -37 18 c 0,19,20
 -37 26 -37 26 -31 38 c 2,21,-1
 260 681 l 2,22,23
 269 702 269 702 319 702 c 2,0,-1
301 451 m 2,24,-1
 221 273 l 1,25,-1
 375 273 l 1,26,-1
 335 451 l 1,27,-1
 327 515 l 1,28,-1
 323 515 l 1,29,30
 309 468 309 468 301 451 c 2,24,-1
298 775 m 0,31,32
 269 775 269 775 269 788 c 0,33,34
 269 794 269 794 277.5 806.5 c 128,-1,35
 286 819 286 819 293.5 830 c 128,-1,36
 301 841 301 841 316 862.5 c 128,-1,37
 331 884 331 884 347.5 909 c 128,-1,38
 364 934 364 934 428 934 c 128,-1,39
 492 934 492 934 492 921 c 0,40,41
 492 914 492 914 487.5 908.5 c 128,-1,42
 483 903 483 903 447 868.5 c 128,-1,43
 411 834 411 834 381 804.5 c 128,-1,44
 351 775 351 775 298 775 c 0,31,32
EndSplineSet
EndChar

StartChar: Acircumflex
Encoding: 194 194 132
Width: 613
GlyphClass: 2
Flags: W
LayerCount: 2
Fore
SplineSet
319 702 m 2,0,-1
 371 702 l 2,1,2
 421 702 421 702 426 681 c 2,3,-1
 584 38 l 2,4,5
 587 29 587 29 587 21 c 0,6,7
 587 -2 587 -2 533 -2 c 2,8,-1
 489 -2 l 2,9,10
 440 -2 440 -2 435 19 c 2,11,-1
 406 141 l 1,12,-1
 164 141 l 1,13,-1
 109 19 l 2,14,15
 99 -2 99 -2 61 -2 c 2,16,-1
 21 -2 l 2,17,18
 -37 -2 -37 -2 -37 18 c 0,19,20
 -37 26 -37 26 -31 38 c 2,21,-1
 260 681 l 2,22,23
 269 702 269 702 319 702 c 2,0,-1
301 451 m 2,24,-1
 221 273 l 1,25,-1
 375 273 l 1,26,-1
 335 451 l 1,27,-1
 327 515 l 1,28,-1
 323 515 l 1,29,30
 309 468 309 468 301 451 c 2,24,-1
353 908 m 2,31,-1
 364 908 l 2,32,33
 412 908 412 908 423 889 c 2,34,-1
 477 787 l 1,35,36
 480 779 480 779 480 775 c 0,37,38
 480 762 480 762 461 762 c 2,39,-1
 439 762 l 2,40,41
 390 762 390 762 375 786 c 2,42,-1
 350 826 l 1,43,-1
 319 787 l 2,44,45
 300 762 300 762 250 762 c 2,46,-1
 226 762 l 2,47,48
 207 762 207 762 207 772 c 0,49,50
 207 779 207 779 214 787 c 2,51,-1
 290 889 l 2,52,53
 304 908 304 908 353 908 c 2,31,-1
EndSplineSet
EndChar

StartChar: Atilde
Encoding: 195 195 133
Width: 613
GlyphClass: 2
Flags: W
LayerCount: 2
Fore
SplineSet
319 702 m 2,0,-1
 371 702 l 2,1,2
 421 702 421 702 426 681 c 2,3,-1
 584 38 l 2,4,5
 587 29 587 29 587 21 c 0,6,7
 587 -2 587 -2 533 -2 c 2,8,-1
 489 -2 l 2,9,10
 440 -2 440 -2 435 19 c 2,11,-1
 406 141 l 1,12,-1
 164 141 l 1,13,-1
 109 19 l 2,14,15
 99 -2 99 -2 61 -2 c 2,16,-1
 21 -2 l 2,17,18
 -37 -2 -37 -2 -37 18 c 0,19,20
 -37 26 -37 26 -31 38 c 2,21,-1
 260 681 l 2,22,23
 269 702 269 702 319 702 c 2,0,-1
301 451 m 2,24,-1
 221 273 l 1,25,-1
 375 273 l 1,26,-1
 335 451 l 1,27,-1
 327 515 l 1,28,-1
 323 515 l 1,29,30
 309 468 309 468 301 451 c 2,24,-1
255 788.5 m 128,-1,32
 239 783 239 783 229 783 c 128,-1,33
 219 783 219 783 205.5 797 c 128,-1,34
 192 811 192 811 192 830 c 128,-1,35
 192 849 192 849 226 868 c 128,-1,36
 260 887 260 887 294 887 c 128,-1,37
 328 887 328 887 366 878.5 c 128,-1,38
 404 870 404 870 417.5 870 c 128,-1,39
 431 870 431 870 448 875.5 c 128,-1,40
 465 881 465 881 475.5 881 c 128,-1,41
 486 881 486 881 499 866.5 c 128,-1,42
 512 852 512 852 512 833 c 128,-1,43
 512 814 512 814 478 794.5 c 128,-1,44
 444 775 444 775 409.5 775 c 128,-1,45
 375 775 375 775 336.5 784.5 c 128,-1,46
 298 794 298 794 284.5 794 c 128,-1,31
 271 794 271 794 255 788.5 c 128,-1,32
EndSplineSet
EndChar

StartChar: Adieresis
Encoding: 196 196 134
Width: 613
GlyphClass: 2
Flags: W
LayerCount: 2
Fore
SplineSet
319 702 m 2,0,-1
 371 702 l 2,1,2
 421 702 421 702 426 681 c 2,3,-1
 584 38 l 2,4,5
 587 29 587 29 587 21 c 0,6,7
 587 -2 587 -2 533 -2 c 2,8,-1
 489 -2 l 2,9,10
 440 -2 440 -2 435 19 c 2,11,-1
 406 141 l 1,12,-1
 164 141 l 1,13,-1
 109 19 l 2,14,15
 99 -2 99 -2 61 -2 c 2,16,-1
 21 -2 l 2,17,18
 -37 -2 -37 -2 -37 18 c 0,19,20
 -37 26 -37 26 -31 38 c 2,21,-1
 260 681 l 2,22,23
 269 702 269 702 319 702 c 2,0,-1
301 451 m 2,24,-1
 221 273 l 1,25,-1
 375 273 l 1,26,-1
 335 451 l 1,27,-1
 327 515 l 1,28,-1
 323 515 l 1,29,30
 309 468 309 468 301 451 c 2,24,-1
385 850 m 2,31,32
 388 882 388 882 446.5 882 c 128,-1,33
 505 882 505 882 505 850 c 1,34,-1
 498 790 l 1,35,36
 493 758 493 758 435.5 758 c 128,-1,37
 378 758 378 758 378 790 c 1,38,-1
 385 850 l 2,31,32
205 850 m 2,39,40
 208 882 208 882 266.5 882 c 128,-1,41
 325 882 325 882 325 850 c 1,42,-1
 318 790 l 1,43,44
 313 758 313 758 255.5 758 c 128,-1,45
 198 758 198 758 198 790 c 1,46,-1
 205 850 l 2,39,40
EndSplineSet
EndChar

StartChar: Aring
Encoding: 197 197 135
Width: 613
GlyphClass: 2
Flags: W
LayerCount: 2
Fore
SplineSet
319 702 m 2,0,-1
 371 702 l 2,1,2
 421 702 421 702 426 681 c 2,3,-1
 584 38 l 2,4,5
 587 29 587 29 587 21 c 0,6,7
 587 -2 587 -2 533 -2 c 2,8,-1
 489 -2 l 2,9,10
 440 -2 440 -2 435 19 c 2,11,-1
 406 141 l 1,12,-1
 164 141 l 1,13,-1
 109 19 l 2,14,15
 99 -2 99 -2 61 -2 c 2,16,-1
 21 -2 l 2,17,18
 -37 -2 -37 -2 -37 18 c 0,19,20
 -37 26 -37 26 -31 38 c 2,21,-1
 260 681 l 2,22,23
 269 702 269 702 319 702 c 2,0,-1
301 451 m 2,24,-1
 221 273 l 1,25,-1
 375 273 l 1,26,-1
 335 451 l 1,27,-1
 327 515 l 1,28,-1
 323 515 l 1,29,30
 309 468 309 468 301 451 c 2,24,-1
421.5 761.5 m 128,-1,32
 392 730 392 730 347 730 c 128,-1,33
 302 730 302 730 276.5 755 c 128,-1,34
 251 780 251 780 251 823 c 128,-1,35
 251 866 251 866 281.5 897.5 c 128,-1,36
 312 929 312 929 356.5 929 c 128,-1,37
 401 929 401 929 426 903.5 c 128,-1,38
 451 878 451 878 451 835.5 c 128,-1,31
 451 793 451 793 421.5 761.5 c 128,-1,32
324.5 801 m 128,-1,40
 334 792 334 792 349 792 c 128,-1,41
 364 792 364 792 376 803.5 c 128,-1,42
 388 815 388 815 388 830 c 128,-1,43
 388 845 388 845 378.5 855 c 128,-1,44
 369 865 369 865 354 865 c 128,-1,45
 339 865 339 865 327 852.5 c 128,-1,46
 315 840 315 840 315 825 c 128,-1,39
 315 810 315 810 324.5 801 c 128,-1,40
EndSplineSet
EndChar

StartChar: AE
Encoding: 198 198 136
Width: 915
GlyphClass: 2
Flags: W
LayerCount: 2
Fore
SplineSet
406 700 m 2,0,-1
 872 700 l 2,1,2
 898 700 898 700 898 660 c 0,3,4
 898 569 898 569 860 569 c 2,5,-1
 540 569 l 1,6,-1
 552 424 l 1,7,-1
 816 424 l 2,8,9
 842 424 842 424 842 384 c 0,10,11
 842 293 842 293 804 293 c 2,12,-1
 565 293 l 1,13,-1
 579 131 l 1,14,-1
 813 131 l 2,15,16
 839 131 839 131 839 91 c 0,17,18
 839 0 839 0 801 0 c 2,19,-1
 467 0 l 2,20,21
 451 0 451 0 444 7 c 128,-1,22
 437 14 437 14 435 30 c 2,23,-1
 426 141 l 1,24,-1
 183 141 l 1,25,-1
 110 19 l 1,26,27
 96 -2 96 -2 62 -2 c 2,28,-1
 25 -2 l 2,29,30
 -35 -2 -35 -2 -35 20 c 0,31,32
 -35 27 -35 27 -27 38 c 1,33,-1
 360 673 l 2,34,35
 377 700 377 700 406 700 c 2,0,-1
370 455 m 1,36,-1
 262 273 l 1,37,-1
 416 273 l 1,38,-1
 402 454 l 1,39,-1
 410 537 l 1,40,-1
 406 537 l 1,41,-1
 370 455 l 1,36,-1
EndSplineSet
EndChar

StartChar: Ccedilla
Encoding: 199 199 137
Width: 619
GlyphClass: 2
Flags: W
LayerCount: 2
Fore
SplineSet
222 -186 m 0,0,1
 211 -175 211 -175 211 -159 c 0,2,3
 211 -111 211 -111 225 -111 c 0,4,5
 227 -111 227 -111 257 -124.5 c 128,-1,6
 287 -138 287 -138 312 -138 c 128,-1,7
 337 -138 337 -138 339 -121 c 1,8,9
 339 -109 339 -109 315 -97 c 128,-1,10
 291 -85 291 -85 291 -73 c 0,11,12
 291 -65 291 -65 316 -8 c 1,13,14
 176 -3 176 -3 109 66.5 c 128,-1,15
 42 136 42 136 42 276 c 0,16,17
 42 458 42 458 122 578 c 1,18,19
 164 639 164 639 239 673.5 c 128,-1,20
 314 708 314 708 401 708 c 128,-1,21
 488 708 488 708 553.5 688.5 c 128,-1,22
 619 669 619 669 619 640 c 0,23,24
 619 619 619 619 590.5 581.5 c 128,-1,25
 562 544 562 544 544 544 c 0,26,27
 541 544 541 544 524 552 c 0,28,29
 475 576 475 576 400 576 c 0,30,31
 303 576 303 576 252 506 c 128,-1,32
 201 436 201 436 201 298 c 0,33,34
 201 123 201 123 351 123 c 0,35,36
 401 123 401 123 447.5 136.5 c 128,-1,37
 494 150 494 150 521.5 164 c 128,-1,38
 549 178 549 178 552 178 c 0,39,40
 564 178 564 178 564 163 c 0,41,42
 564 121 564 121 554 68 c 0,43,44
 547 36 547 36 497 18.5 c 128,-1,45
 447 1 447 1 384 -5 c 1,46,-1
 373 -35 l 1,47,48
 443 -52 443 -52 443 -105.5 c 128,-1,49
 443 -159 443 -159 409 -185 c 128,-1,50
 375 -211 375 -211 311 -211 c 128,-1,51
 247 -211 247 -211 222 -186 c 0,0,1
EndSplineSet
EndChar

StartChar: Egrave
Encoding: 200 200 138
Width: 546
GlyphClass: 2
Flags: W
LayerCount: 2
Fore
SplineSet
149 700 m 2,0,-1
 515 700 l 2,1,2
 541 700 541 700 541 660 c 0,3,4
 541 569 541 569 503 569 c 2,5,-1
 251 569 l 1,6,-1
 235 424 l 1,7,-1
 459 424 l 2,8,9
 485 424 485 424 485 384 c 0,10,11
 485 293 485 293 447 293 c 2,12,-1
 222 293 l 1,13,-1
 204 131 l 1,14,-1
 456 131 l 2,15,16
 482 131 482 131 482 91 c 0,17,18
 482 0 482 0 444 0 c 2,19,-1
 76 0 l 2,20,21
 56 0 56 0 48 7 c 128,-1,22
 40 14 40 14 40 32 c 1,23,-1
 105 660 l 2,24,25
 109 700 109 700 149 700 c 2,0,-1
431 791 m 0,26,27
 431 775 431 775 389 775 c 128,-1,28
 347 775 347 775 325 802 c 128,-1,29
 303 829 303 829 268.5 870 c 128,-1,30
 234 911 234 911 234 918 c 0,31,32
 234 934 234 934 299.5 934 c 128,-1,33
 365 934 365 934 378 907 c 0,34,35
 388 886 388 886 397.5 866 c 128,-1,36
 407 846 407 846 412.5 835 c 128,-1,37
 418 824 418 824 422 814 c 0,38,39
 431 795 431 795 431 791 c 0,26,27
EndSplineSet
EndChar

StartChar: Eacute
Encoding: 201 201 139
Width: 546
GlyphClass: 2
Flags: W
LayerCount: 2
Fore
SplineSet
149 700 m 2,0,-1
 515 700 l 2,1,2
 541 700 541 700 541 660 c 0,3,4
 541 569 541 569 503 569 c 2,5,-1
 251 569 l 1,6,-1
 235 424 l 1,7,-1
 459 424 l 2,8,9
 485 424 485 424 485 384 c 0,10,11
 485 293 485 293 447 293 c 2,12,-1
 222 293 l 1,13,-1
 204 131 l 1,14,-1
 456 131 l 2,15,16
 482 131 482 131 482 91 c 0,17,18
 482 0 482 0 444 0 c 2,19,-1
 76 0 l 2,20,21
 56 0 56 0 48 7 c 128,-1,22
 40 14 40 14 40 32 c 1,23,-1
 105 660 l 2,24,25
 109 700 109 700 149 700 c 2,0,-1
292 775 m 0,26,27
 263 775 263 775 263 788 c 0,28,29
 263 794 263 794 271.5 806.5 c 128,-1,30
 280 819 280 819 287.5 830 c 128,-1,31
 295 841 295 841 310 862.5 c 128,-1,32
 325 884 325 884 341.5 909 c 128,-1,33
 358 934 358 934 422 934 c 128,-1,34
 486 934 486 934 486 921 c 0,35,36
 486 914 486 914 481.5 908.5 c 128,-1,37
 477 903 477 903 441 868.5 c 128,-1,38
 405 834 405 834 375 804.5 c 128,-1,39
 345 775 345 775 292 775 c 0,26,27
EndSplineSet
EndChar

StartChar: Ecircumflex
Encoding: 202 202 140
Width: 546
GlyphClass: 2
Flags: W
LayerCount: 2
Fore
SplineSet
149 700 m 2,0,-1
 515 700 l 2,1,2
 541 700 541 700 541 660 c 0,3,4
 541 569 541 569 503 569 c 2,5,-1
 251 569 l 1,6,-1
 235 424 l 1,7,-1
 459 424 l 2,8,9
 485 424 485 424 485 384 c 0,10,11
 485 293 485 293 447 293 c 2,12,-1
 222 293 l 1,13,-1
 204 131 l 1,14,-1
 456 131 l 2,15,16
 482 131 482 131 482 91 c 0,17,18
 482 0 482 0 444 0 c 2,19,-1
 76 0 l 2,20,21
 56 0 56 0 48 7 c 128,-1,22
 40 14 40 14 40 32 c 1,23,-1
 105 660 l 2,24,25
 109 700 109 700 149 700 c 2,0,-1
347 908 m 2,26,-1
 358 908 l 2,27,28
 406 908 406 908 417 889 c 2,29,-1
 471 787 l 1,30,31
 474 779 474 779 474 775 c 0,32,33
 474 762 474 762 455 762 c 2,34,-1
 433 762 l 2,35,36
 384 762 384 762 369 786 c 2,37,-1
 344 826 l 1,38,-1
 313 787 l 2,39,40
 294 762 294 762 244 762 c 2,41,-1
 220 762 l 2,42,43
 201 762 201 762 201 772 c 0,44,45
 201 779 201 779 208 787 c 2,46,-1
 284 889 l 2,47,48
 298 908 298 908 347 908 c 2,26,-1
EndSplineSet
EndChar

StartChar: Edieresis
Encoding: 203 203 141
Width: 546
GlyphClass: 2
Flags: W
LayerCount: 2
Fore
SplineSet
149 700 m 2,0,-1
 515 700 l 2,1,2
 541 700 541 700 541 660 c 0,3,4
 541 569 541 569 503 569 c 2,5,-1
 251 569 l 1,6,-1
 235 424 l 1,7,-1
 459 424 l 2,8,9
 485 424 485 424 485 384 c 0,10,11
 485 293 485 293 447 293 c 2,12,-1
 222 293 l 1,13,-1
 204 131 l 1,14,-1
 456 131 l 2,15,16
 482 131 482 131 482 91 c 0,17,18
 482 0 482 0 444 0 c 2,19,-1
 76 0 l 2,20,21
 56 0 56 0 48 7 c 128,-1,22
 40 14 40 14 40 32 c 1,23,-1
 105 660 l 2,24,25
 109 700 109 700 149 700 c 2,0,-1
379 850 m 2,26,27
 382 882 382 882 440.5 882 c 128,-1,28
 499 882 499 882 499 850 c 1,29,-1
 492 790 l 1,30,31
 487 758 487 758 429.5 758 c 128,-1,32
 372 758 372 758 372 790 c 1,33,-1
 379 850 l 2,26,27
199 850 m 2,34,35
 202 882 202 882 260.5 882 c 128,-1,36
 319 882 319 882 319 850 c 1,37,-1
 312 790 l 1,38,39
 307 758 307 758 249.5 758 c 128,-1,40
 192 758 192 758 192 790 c 1,41,-1
 199 850 l 2,34,35
EndSplineSet
EndChar

StartChar: Igrave
Encoding: 204 204 142
Width: 282
GlyphClass: 2
Flags: W
LayerCount: 2
Fore
SplineSet
122 -2 m 2,0,-1
 87 -2 l 2,1,2
 30 -2 30 -2 30 29 c 1,3,-1
 97 670 l 2,4,5
 100 702 100 702 160 702 c 2,6,-1
 195 702 l 2,7,8
 252 702 252 702 252 671 c 1,9,-1
 185 30 l 2,10,11
 182 -2 182 -2 122 -2 c 2,0,-1
291 791 m 0,12,13
 291 775 291 775 249 775 c 128,-1,14
 207 775 207 775 185 802 c 128,-1,15
 163 829 163 829 128.5 870 c 128,-1,16
 94 911 94 911 94 918 c 0,17,18
 94 934 94 934 159.5 934 c 128,-1,19
 225 934 225 934 238 907 c 0,20,21
 248 886 248 886 257.5 866 c 128,-1,22
 267 846 267 846 272.5 835 c 128,-1,23
 278 824 278 824 282 814 c 0,24,25
 291 795 291 795 291 791 c 0,12,13
EndSplineSet
EndChar

StartChar: Iacute
Encoding: 205 205 143
Width: 282
GlyphClass: 2
Flags: W
LayerCount: 2
Fore
SplineSet
122 -2 m 2,0,-1
 87 -2 l 2,1,2
 30 -2 30 -2 30 29 c 1,3,-1
 97 670 l 2,4,5
 100 702 100 702 160 702 c 2,6,-1
 195 702 l 2,7,8
 252 702 252 702 252 671 c 1,9,-1
 185 30 l 2,10,11
 182 -2 182 -2 122 -2 c 2,0,-1
152 775 m 0,12,13
 123 775 123 775 123 788 c 0,14,15
 123 794 123 794 131.5 806.5 c 128,-1,16
 140 819 140 819 147.5 830 c 128,-1,17
 155 841 155 841 170 862.5 c 128,-1,18
 185 884 185 884 201.5 909 c 128,-1,19
 218 934 218 934 282 934 c 128,-1,20
 346 934 346 934 346 921 c 0,21,22
 346 914 346 914 341.5 908.5 c 128,-1,23
 337 903 337 903 301 868.5 c 128,-1,24
 265 834 265 834 235 804.5 c 128,-1,25
 205 775 205 775 152 775 c 0,12,13
EndSplineSet
EndChar

StartChar: Icircumflex
Encoding: 206 206 144
Width: 282
GlyphClass: 2
Flags: W
LayerCount: 2
Fore
SplineSet
122 -2 m 2,0,-1
 87 -2 l 2,1,2
 30 -2 30 -2 30 29 c 1,3,-1
 97 670 l 2,4,5
 100 702 100 702 160 702 c 2,6,-1
 195 702 l 2,7,8
 252 702 252 702 252 671 c 1,9,-1
 185 30 l 2,10,11
 182 -2 182 -2 122 -2 c 2,0,-1
207 908 m 2,12,-1
 218 908 l 2,13,14
 266 908 266 908 277 889 c 2,15,-1
 331 787 l 1,16,17
 334 779 334 779 334 775 c 0,18,19
 334 762 334 762 315 762 c 2,20,-1
 293 762 l 2,21,22
 244 762 244 762 229 786 c 2,23,-1
 204 826 l 1,24,-1
 173 787 l 2,25,26
 154 762 154 762 104 762 c 2,27,-1
 80 762 l 2,28,29
 61 762 61 762 61 772 c 0,30,31
 61 779 61 779 68 787 c 2,32,-1
 144 889 l 2,33,34
 158 908 158 908 207 908 c 2,12,-1
EndSplineSet
EndChar

StartChar: Idieresis
Encoding: 207 207 145
Width: 282
GlyphClass: 2
Flags: W
LayerCount: 2
Fore
SplineSet
122 -2 m 2,0,-1
 87 -2 l 2,1,2
 30 -2 30 -2 30 29 c 1,3,-1
 97 670 l 2,4,5
 100 702 100 702 160 702 c 2,6,-1
 195 702 l 2,7,8
 252 702 252 702 252 671 c 1,9,-1
 185 30 l 2,10,11
 182 -2 182 -2 122 -2 c 2,0,-1
239 850 m 2,12,13
 242 882 242 882 300.5 882 c 128,-1,14
 359 882 359 882 359 850 c 1,15,-1
 352 790 l 1,16,17
 347 758 347 758 289.5 758 c 128,-1,18
 232 758 232 758 232 790 c 1,19,-1
 239 850 l 2,12,13
59 850 m 2,20,21
 62 882 62 882 120.5 882 c 128,-1,22
 179 882 179 882 179 850 c 1,23,-1
 172 790 l 1,24,25
 167 758 167 758 109.5 758 c 128,-1,26
 52 758 52 758 52 790 c 1,27,-1
 59 850 l 2,20,21
EndSplineSet
EndChar

StartChar: Eth
Encoding: 208 208 146
Width: 696
GlyphClass: 2
Flags: W
LayerCount: 2
Fore
SplineSet
35 290 m 2,0,1
 9 290 9 290 9 330 c 0,2,3
 9 421 9 421 47 421 c 2,4,-1
 78 421 l 1,5,-1
 103 660 l 2,6,7
 107 700 107 700 147 700 c 2,8,-1
 371 700 l 2,9,10
 511 700 511 700 584.5 625.5 c 128,-1,11
 658 551 658 551 658 411 c 0,12,13
 658 215 658 215 561.5 107.5 c 128,-1,14
 465 0 465 0 298 0 c 2,15,-1
 74 0 l 2,16,17
 54 0 54 0 46 7.5 c 128,-1,18
 38 15 38 15 38 33 c 1,19,-1
 64 290 l 1,20,-1
 35 290 l 2,0,1
311 131 m 2,21,22
 398 131 398 131 448.5 200.5 c 128,-1,23
 499 270 499 270 499 397 c 0,24,25
 499 569 499 569 358 569 c 2,26,-1
 249 569 l 1,27,-1
 233 421 l 1,28,-1
 292 421 l 2,29,30
 318 421 318 421 318 381 c 0,31,32
 318 290 318 290 280 290 c 2,33,-1
 219 290 l 1,34,-1
 202 131 l 1,35,-1
 311 131 l 2,21,22
EndSplineSet
EndChar

StartChar: Ntilde
Encoding: 209 209 147
Width: 719
GlyphClass: 2
Flags: W
LayerCount: 2
Fore
SplineSet
165 702 m 2,0,-1
 208 702 l 2,1,2
 257 702 257 702 272 675 c 2,3,-1
 492 270 l 1,4,-1
 534 670 l 2,5,6
 537 702 537 702 597 702 c 2,7,-1
 626 702 l 2,8,9
 683 702 683 702 683 670 c 1,10,-1
 616 30 l 2,11,12
 613 -2 613 -2 553 -2 c 2,13,-1
 515 -2 l 2,14,15
 466 -2 466 -2 451 25 c 2,16,-1
 226 435 l 1,17,-1
 184 30 l 2,18,19
 181 -2 181 -2 121 -2 c 2,20,-1
 92 -2 l 2,21,22
 35 -2 35 -2 35 30 c 1,23,-1
 102 670 l 2,24,25
 105 702 105 702 165 702 c 2,0,-1
323 788.5 m 128,-1,27
 307 783 307 783 297 783 c 128,-1,28
 287 783 287 783 273.5 797 c 128,-1,29
 260 811 260 811 260 830 c 128,-1,30
 260 849 260 849 294 868 c 128,-1,31
 328 887 328 887 362 887 c 128,-1,32
 396 887 396 887 434 878.5 c 128,-1,33
 472 870 472 870 485.5 870 c 128,-1,34
 499 870 499 870 516 875.5 c 128,-1,35
 533 881 533 881 543.5 881 c 128,-1,36
 554 881 554 881 567 866.5 c 128,-1,37
 580 852 580 852 580 833 c 128,-1,38
 580 814 580 814 546 794.5 c 128,-1,39
 512 775 512 775 477.5 775 c 128,-1,40
 443 775 443 775 404.5 784.5 c 128,-1,41
 366 794 366 794 352.5 794 c 128,-1,26
 339 794 339 794 323 788.5 c 128,-1,27
EndSplineSet
EndChar

StartChar: Ograve
Encoding: 210 210 148
Width: 731
GlyphClass: 2
Flags: W
LayerCount: 2
Fore
SplineSet
41 284 m 0,0,1
 41 455 41 455 122 575 c 0,2,3
 164 636 164 636 236 672 c 128,-1,4
 308 708 308 708 403 708 c 0,5,6
 542 708 542 708 615.5 632.5 c 128,-1,7
 689 557 689 557 689 414 c 0,8,9
 689 210 689 210 596 101 c 128,-1,10
 503 -8 503 -8 328 -8 c 0,11,12
 189 -8 189 -8 115 67 c 128,-1,13
 41 142 41 142 41 284 c 0,0,1
342 123 m 0,14,15
 429 123 429 123 480 195.5 c 128,-1,16
 531 268 531 268 531 400 c 0,17,18
 531 576 531 576 389 576 c 0,19,20
 301 576 301 576 250.5 503.5 c 128,-1,21
 200 431 200 431 200 298 c 0,22,23
 200 123 200 123 342 123 c 0,14,15
510 791 m 0,24,25
 510 775 510 775 468 775 c 128,-1,26
 426 775 426 775 404 802 c 128,-1,27
 382 829 382 829 353.5 862.5 c 128,-1,28
 325 896 325 896 319 904.5 c 128,-1,29
 313 913 313 913 313 918 c 0,30,31
 313 934 313 934 378.5 934 c 128,-1,32
 444 934 444 934 457 907 c 0,33,34
 467 886 467 886 476.5 866 c 128,-1,35
 486 846 486 846 491.5 835 c 128,-1,36
 497 824 497 824 502 814 c 0,37,38
 510 795 510 795 510 791 c 0,24,25
EndSplineSet
EndChar

StartChar: Oacute
Encoding: 211 211 149
Width: 731
GlyphClass: 2
Flags: W
LayerCount: 2
Fore
SplineSet
41 284 m 0,0,1
 41 455 41 455 122 575 c 0,2,3
 164 636 164 636 236 672 c 128,-1,4
 308 708 308 708 403 708 c 0,5,6
 542 708 542 708 615.5 632.5 c 128,-1,7
 689 557 689 557 689 414 c 0,8,9
 689 210 689 210 596 101 c 128,-1,10
 503 -8 503 -8 328 -8 c 0,11,12
 189 -8 189 -8 115 67 c 128,-1,13
 41 142 41 142 41 284 c 0,0,1
342 123 m 0,14,15
 429 123 429 123 480 195.5 c 128,-1,16
 531 268 531 268 531 400 c 0,17,18
 531 576 531 576 389 576 c 0,19,20
 301 576 301 576 250.5 503.5 c 128,-1,21
 200 431 200 431 200 298 c 0,22,23
 200 123 200 123 342 123 c 0,14,15
371 775 m 0,24,25
 342 775 342 775 342 788 c 0,26,27
 342 794 342 794 350.5 806.5 c 128,-1,28
 359 819 359 819 366.5 830 c 128,-1,29
 374 841 374 841 389 862.5 c 128,-1,30
 404 884 404 884 420.5 909 c 128,-1,31
 437 934 437 934 501 934 c 128,-1,32
 565 934 565 934 565 921 c 0,33,34
 565 914 565 914 560.5 908.5 c 128,-1,35
 556 903 556 903 520 868.5 c 128,-1,36
 484 834 484 834 454 804.5 c 128,-1,37
 424 775 424 775 371 775 c 0,24,25
EndSplineSet
EndChar

StartChar: Ocircumflex
Encoding: 212 212 150
Width: 731
GlyphClass: 2
Flags: W
LayerCount: 2
Fore
SplineSet
41 284 m 0,0,1
 41 455 41 455 122 575 c 0,2,3
 164 636 164 636 236 672 c 128,-1,4
 308 708 308 708 403 708 c 0,5,6
 542 708 542 708 615.5 632.5 c 128,-1,7
 689 557 689 557 689 414 c 0,8,9
 689 210 689 210 596 101 c 128,-1,10
 503 -8 503 -8 328 -8 c 0,11,12
 189 -8 189 -8 115 67 c 128,-1,13
 41 142 41 142 41 284 c 0,0,1
342 123 m 0,14,15
 429 123 429 123 480 195.5 c 128,-1,16
 531 268 531 268 531 400 c 0,17,18
 531 576 531 576 389 576 c 0,19,20
 301 576 301 576 250.5 503.5 c 128,-1,21
 200 431 200 431 200 298 c 0,22,23
 200 123 200 123 342 123 c 0,14,15
426 908 m 2,24,-1
 437 908 l 2,25,26
 485 908 485 908 496 889 c 2,27,-1
 550 787 l 1,28,29
 553 779 553 779 553 775 c 0,30,31
 553 762 553 762 534 762 c 2,32,-1
 512 762 l 2,33,34
 463 762 463 762 448 786 c 2,35,-1
 423 826 l 1,36,-1
 392 787 l 2,37,38
 373 762 373 762 323 762 c 2,39,-1
 299 762 l 2,40,41
 280 762 280 762 280 772 c 0,42,43
 280 779 280 779 287 787 c 2,44,-1
 363 889 l 2,45,46
 377 908 377 908 426 908 c 2,24,-1
EndSplineSet
EndChar

StartChar: Otilde
Encoding: 213 213 151
Width: 731
GlyphClass: 2
Flags: W
LayerCount: 2
Fore
SplineSet
41 284 m 0,0,1
 41 455 41 455 122 575 c 0,2,3
 164 636 164 636 236 672 c 128,-1,4
 308 708 308 708 403 708 c 0,5,6
 542 708 542 708 615.5 632.5 c 128,-1,7
 689 557 689 557 689 414 c 0,8,9
 689 210 689 210 596 101 c 128,-1,10
 503 -8 503 -8 328 -8 c 0,11,12
 189 -8 189 -8 115 67 c 128,-1,13
 41 142 41 142 41 284 c 0,0,1
342 123 m 0,14,15
 429 123 429 123 480 195.5 c 128,-1,16
 531 268 531 268 531 400 c 0,17,18
 531 576 531 576 389 576 c 0,19,20
 301 576 301 576 250.5 503.5 c 128,-1,21
 200 431 200 431 200 298 c 0,22,23
 200 123 200 123 342 123 c 0,14,15
328 788.5 m 128,-1,25
 312 783 312 783 302 783 c 128,-1,26
 292 783 292 783 278.5 797 c 128,-1,27
 265 811 265 811 265 830 c 128,-1,28
 265 849 265 849 299 868 c 128,-1,29
 333 887 333 887 367 887 c 128,-1,30
 401 887 401 887 439 878.5 c 128,-1,31
 477 870 477 870 490.5 870 c 128,-1,32
 504 870 504 870 521 875.5 c 128,-1,33
 538 881 538 881 548.5 881 c 128,-1,34
 559 881 559 881 572 866.5 c 128,-1,35
 585 852 585 852 585 833 c 128,-1,36
 585 814 585 814 551 794.5 c 128,-1,37
 517 775 517 775 482.5 775 c 128,-1,38
 448 775 448 775 409.5 784.5 c 128,-1,39
 371 794 371 794 357.5 794 c 128,-1,24
 344 794 344 794 328 788.5 c 128,-1,25
EndSplineSet
EndChar

StartChar: Odieresis
Encoding: 214 214 152
Width: 731
GlyphClass: 2
Flags: W
LayerCount: 2
Fore
SplineSet
41 284 m 0,0,1
 41 455 41 455 122 575 c 0,2,3
 164 636 164 636 236 672 c 128,-1,4
 308 708 308 708 403 708 c 0,5,6
 542 708 542 708 615.5 632.5 c 128,-1,7
 689 557 689 557 689 414 c 0,8,9
 689 210 689 210 596 101 c 128,-1,10
 503 -8 503 -8 328 -8 c 0,11,12
 189 -8 189 -8 115 67 c 128,-1,13
 41 142 41 142 41 284 c 0,0,1
342 123 m 0,14,15
 429 123 429 123 480 195.5 c 128,-1,16
 531 268 531 268 531 400 c 0,17,18
 531 576 531 576 389 576 c 0,19,20
 301 576 301 576 250.5 503.5 c 128,-1,21
 200 431 200 431 200 298 c 0,22,23
 200 123 200 123 342 123 c 0,14,15
458 850 m 2,24,25
 461 882 461 882 519.5 882 c 128,-1,26
 578 882 578 882 578 850 c 1,27,-1
 571 790 l 1,28,29
 566 758 566 758 508.5 758 c 128,-1,30
 451 758 451 758 451 790 c 1,31,-1
 458 850 l 2,24,25
278 850 m 2,32,33
 281 882 281 882 339.5 882 c 128,-1,34
 398 882 398 882 398 850 c 1,35,-1
 391 790 l 1,36,37
 386 758 386 758 328.5 758 c 128,-1,38
 271 758 271 758 271 790 c 1,39,-1
 278 850 l 2,32,33
EndSplineSet
EndChar

StartChar: multiply
Encoding: 215 215 153
Width: 560
GlyphClass: 2
Flags: W
LayerCount: 2
Fore
SplineSet
486 79 m 0,0,1
 486 63 486 63 459 39 c 1,2,3
 431 11 431 11 416.5 11 c 128,-1,4
 402 11 402 11 396 20 c 1,5,-1
 264 167 l 1,6,-1
 101 20 l 2,7,8
 90 11 90 11 78.5 11 c 128,-1,9
 67 11 67 11 47 34 c 1,10,11
 23 58 23 58 23 71.5 c 128,-1,12
 23 85 23 85 34 95 c 2,13,-1
 196 242 l 1,14,-1
 65 390 l 2,15,16
 58 397 58 397 58 405 c 0,17,18
 58 422 58 422 85 446 c 1,19,20
 113 474 113 474 126.5 474 c 128,-1,21
 140 474 140 474 148 465 c 2,22,-1
 279 318 l 1,23,-1
 443 465 l 2,24,25
 452 474 452 474 464.5 474 c 128,-1,26
 477 474 477 474 497 451 c 1,27,28
 521 427 521 427 521 412.5 c 128,-1,29
 521 398 521 398 510 390 c 1,30,-1
 347 242 l 1,31,-1
 479 95 l 2,32,33
 486 86 486 86 486 79 c 0,0,1
EndSplineSet
EndChar

StartChar: Oslash
Encoding: 216 216 154
Width: 731
GlyphClass: 2
Flags: W
LayerCount: 2
Fore
SplineSet
80 112 m 1,0,1
 41 180 41 180 41 273.5 c 128,-1,2
 41 367 41 367 61 440.5 c 128,-1,3
 81 514 81 514 122.5 575 c 128,-1,4
 164 636 164 636 236 672 c 128,-1,5
 308 708 308 708 407 708 c 128,-1,6
 506 708 506 708 572 666 c 1,7,-1
 612 712 l 2,8,9
 622 724 622 724 633 724 c 128,-1,10
 644 724 644 724 654 714 c 2,11,-1
 670 700 l 2,12,13
 682 690 682 690 682 679 c 128,-1,14
 682 668 682 668 672 658 c 2,15,-1
 632 613 l 1,16,17
 689 539 689 539 689 414 c 0,18,19
 689 210 689 210 596 101 c 128,-1,20
 503 -8 503 -8 328 -8 c 0,21,22
 205 -8 205 -8 133 50 c 1,23,-1
 89 0 l 2,24,25
 78 -12 78 -12 67.5 -12 c 128,-1,26
 57 -12 57 -12 47 -2 c 2,27,-1
 31 12 l 2,28,29
 19 23 19 23 19 33.5 c 128,-1,30
 19 44 19 44 29 54 c 2,31,-1
 80 112 l 1,0,1
200 298 m 0,32,33
 200 272 200 272 203 250 c 1,34,-1
 471 553 l 1,35,36
 439 576 439 576 389 576 c 0,37,38
 301 576 301 576 250.5 503.5 c 128,-1,39
 200 431 200 431 200 298 c 0,32,33
342 123 m 0,40,41
 429 123 429 123 480 195.5 c 128,-1,42
 531 268 531 268 531 400 c 0,43,44
 531 449 531 449 519 485 c 1,45,-1
 236 167 l 1,46,47
 272 123 272 123 342 123 c 0,40,41
EndSplineSet
EndChar

StartChar: Ugrave
Encoding: 217 217 155
Width: 712
GlyphClass: 2
Flags: W
LayerCount: 2
Fore
SplineSet
162 702 m 2,0,-1
 196 702 l 2,1,2
 252 702 252 702 252 670 c 1,3,4
 207 239 207 239 207 229 c 0,5,6
 207 182 207 182 241 152.5 c 128,-1,7
 275 123 275 123 333 123 c 128,-1,8
 391 123 391 123 433.5 157 c 128,-1,9
 476 191 476 191 481 244 c 2,10,-1
 525 670 l 2,11,12
 528 702 528 702 589 702 c 2,13,-1
 622 702 l 2,14,15
 678 702 678 702 678 670 c 1,16,-1
 633 234 l 2,17,18
 621 119 621 119 537.5 55.5 c 128,-1,19
 454 -8 454 -8 322 -8 c 128,-1,20
 190 -8 190 -8 120.5 46.5 c 128,-1,21
 51 101 51 101 51 201 c 0,22,23
 51 212 51 212 98 670 c 0,24,25
 101 702 101 702 162 702 c 2,0,-1
490 791 m 0,26,27
 490 775 490 775 448 775 c 128,-1,28
 406 775 406 775 384 802 c 128,-1,29
 362 829 362 829 333.5 862.5 c 128,-1,30
 305 896 305 896 299 904.5 c 128,-1,31
 293 913 293 913 293 918 c 0,32,33
 293 934 293 934 358.5 934 c 128,-1,34
 424 934 424 934 437 907 c 0,35,36
 447 886 447 886 456.5 866 c 128,-1,37
 466 846 466 846 471.5 835 c 128,-1,38
 477 824 477 824 482 814 c 0,39,40
 490 795 490 795 490 791 c 0,26,27
EndSplineSet
EndChar

StartChar: Uacute
Encoding: 218 218 156
Width: 712
GlyphClass: 2
Flags: W
LayerCount: 2
Fore
SplineSet
162 702 m 2,0,-1
 196 702 l 2,1,2
 252 702 252 702 252 670 c 1,3,4
 207 239 207 239 207 229 c 0,5,6
 207 182 207 182 241 152.5 c 128,-1,7
 275 123 275 123 333 123 c 128,-1,8
 391 123 391 123 433.5 157 c 128,-1,9
 476 191 476 191 481 244 c 2,10,-1
 525 670 l 2,11,12
 528 702 528 702 589 702 c 2,13,-1
 622 702 l 2,14,15
 678 702 678 702 678 670 c 1,16,-1
 633 234 l 2,17,18
 621 119 621 119 537.5 55.5 c 128,-1,19
 454 -8 454 -8 322 -8 c 128,-1,20
 190 -8 190 -8 120.5 46.5 c 128,-1,21
 51 101 51 101 51 201 c 0,22,23
 51 212 51 212 98 670 c 0,24,25
 101 702 101 702 162 702 c 2,0,-1
351 775 m 0,26,27
 322 775 322 775 322 788 c 0,28,29
 322 794 322 794 330.5 806.5 c 128,-1,30
 339 819 339 819 346.5 830 c 128,-1,31
 354 841 354 841 369 862.5 c 128,-1,32
 384 884 384 884 400.5 909 c 128,-1,33
 417 934 417 934 481 934 c 128,-1,34
 545 934 545 934 545 921 c 0,35,36
 545 914 545 914 540.5 908.5 c 128,-1,37
 536 903 536 903 500 868.5 c 128,-1,38
 464 834 464 834 434 804.5 c 128,-1,39
 404 775 404 775 351 775 c 0,26,27
EndSplineSet
EndChar

StartChar: Ucircumflex
Encoding: 219 219 157
Width: 712
GlyphClass: 2
Flags: W
LayerCount: 2
Fore
SplineSet
162 702 m 2,0,-1
 196 702 l 2,1,2
 252 702 252 702 252 670 c 1,3,4
 207 239 207 239 207 229 c 0,5,6
 207 182 207 182 241 152.5 c 128,-1,7
 275 123 275 123 333 123 c 128,-1,8
 391 123 391 123 433.5 157 c 128,-1,9
 476 191 476 191 481 244 c 2,10,-1
 525 670 l 2,11,12
 528 702 528 702 589 702 c 2,13,-1
 622 702 l 2,14,15
 678 702 678 702 678 670 c 1,16,-1
 633 234 l 2,17,18
 621 119 621 119 537.5 55.5 c 128,-1,19
 454 -8 454 -8 322 -8 c 128,-1,20
 190 -8 190 -8 120.5 46.5 c 128,-1,21
 51 101 51 101 51 201 c 0,22,23
 51 212 51 212 98 670 c 0,24,25
 101 702 101 702 162 702 c 2,0,-1
406 908 m 2,26,-1
 417 908 l 2,27,28
 465 908 465 908 476 889 c 2,29,-1
 530 787 l 1,30,31
 533 779 533 779 533 775 c 0,32,33
 533 762 533 762 514 762 c 2,34,-1
 492 762 l 2,35,36
 443 762 443 762 428 786 c 2,37,-1
 403 826 l 1,38,-1
 372 787 l 2,39,40
 353 762 353 762 303 762 c 2,41,-1
 279 762 l 2,42,43
 260 762 260 762 260 772 c 0,44,45
 260 779 260 779 267 787 c 2,46,-1
 343 889 l 2,47,48
 357 908 357 908 406 908 c 2,26,-1
EndSplineSet
EndChar

StartChar: Udieresis
Encoding: 220 220 158
Width: 712
GlyphClass: 2
Flags: W
LayerCount: 2
Fore
SplineSet
162 702 m 2,0,-1
 196 702 l 2,1,2
 252 702 252 702 252 670 c 1,3,4
 207 239 207 239 207 229 c 0,5,6
 207 182 207 182 241 152.5 c 128,-1,7
 275 123 275 123 333 123 c 128,-1,8
 391 123 391 123 433.5 157 c 128,-1,9
 476 191 476 191 481 244 c 2,10,-1
 525 670 l 2,11,12
 528 702 528 702 589 702 c 2,13,-1
 622 702 l 2,14,15
 678 702 678 702 678 670 c 1,16,-1
 633 234 l 2,17,18
 621 119 621 119 537.5 55.5 c 128,-1,19
 454 -8 454 -8 322 -8 c 128,-1,20
 190 -8 190 -8 120.5 46.5 c 128,-1,21
 51 101 51 101 51 201 c 0,22,23
 51 212 51 212 98 670 c 0,24,25
 101 702 101 702 162 702 c 2,0,-1
438 850 m 2,26,27
 441 882 441 882 499.5 882 c 128,-1,28
 558 882 558 882 558 850 c 1,29,-1
 551 790 l 1,30,31
 546 758 546 758 488.5 758 c 128,-1,32
 431 758 431 758 431 790 c 1,33,-1
 438 850 l 2,26,27
258 850 m 2,34,35
 261 882 261 882 319.5 882 c 128,-1,36
 378 882 378 882 378 850 c 1,37,-1
 371 790 l 1,38,39
 366 758 366 758 308.5 758 c 128,-1,40
 251 758 251 758 251 790 c 1,41,-1
 258 850 l 2,34,35
EndSplineSet
EndChar

StartChar: Yacute
Encoding: 221 221 159
Width: 559
GlyphClass: 2
Flags: W
LayerCount: 2
Fore
SplineSet
38 657 m 2,0,1
 32 669 32 669 32 679 c 128,-1,2
 32 689 32 689 42 694 c 0,3,4
 57 702 57 702 96 702 c 2,5,-1
 139 702 l 2,6,7
 188 702 188 702 197 683 c 2,8,-1
 297 469 l 1,9,-1
 442 683 l 2,10,11
 455 702 455 702 504 702 c 2,12,-1
 540 702 l 2,13,14
 601 702 601 702 601 682 c 0,15,16
 601 673 601 673 590 657 c 2,17,-1
 357 333 l 1,18,-1
 325 30 l 2,19,20
 322 -2 322 -2 262 -2 c 2,21,-1
 228 -2 l 2,22,23
 171 -2 171 -2 171 30 c 1,24,-1
 203 336 l 1,25,-1
 38 657 l 2,0,1
285 775 m 0,26,27
 256 775 256 775 256 788 c 0,28,29
 256 794 256 794 264.5 806.5 c 128,-1,30
 273 819 273 819 280.5 830 c 128,-1,31
 288 841 288 841 303 862.5 c 128,-1,32
 318 884 318 884 334.5 909 c 128,-1,33
 351 934 351 934 415 934 c 128,-1,34
 479 934 479 934 479 921 c 0,35,36
 479 914 479 914 474.5 908.5 c 128,-1,37
 470 903 470 903 434 868.5 c 128,-1,38
 398 834 398 834 368 804.5 c 128,-1,39
 338 775 338 775 285 775 c 0,26,27
EndSplineSet
EndChar

StartChar: Thorn
Encoding: 222 222 160
Width: 567
GlyphClass: 2
Flags: W
LayerCount: 2
Fore
SplineSet
164 702 m 2,0,-1
 198 702 l 2,1,2
 255 702 255 702 255 670 c 1,3,-1
 247 593 l 1,4,-1
 350 593 l 2,5,6
 459 593 459 593 515 544 c 0,7,8
 537 524 537 524 552 489 c 128,-1,9
 567 454 567 454 567 399.5 c 128,-1,10
 567 345 567 345 545.5 296.5 c 128,-1,11
 524 248 524 248 494.5 222 c 128,-1,12
 465 196 465 196 427 180 c 0,13,14
 368 155 368 155 314 155 c 2,15,-1
 201 155 l 1,16,-1
 188 30 l 2,17,18
 185 -2 185 -2 125 -2 c 2,19,-1
 91 -2 l 2,20,21
 34 -2 34 -2 34 30 c 1,22,-1
 101 670 l 2,23,24
 104 702 104 702 164 702 c 2,0,-1
311 287 m 2,25,26
 349 287 349 287 378.5 309.5 c 128,-1,27
 408 332 408 332 408 380.5 c 128,-1,28
 408 429 408 429 384.5 445.5 c 128,-1,29
 361 462 361 462 329 462 c 2,30,-1
 233 462 l 1,31,-1
 215 287 l 1,32,-1
 311 287 l 2,25,26
EndSplineSet
EndChar

StartChar: germandbls
Encoding: 223 223 161
Width: 554
GlyphClass: 2
Flags: W
LayerCount: 2
Fore
SplineSet
261 0 m 2,0,-1
 238 0 l 2,1,2
 212 0 212 0 212 36 c 0,3,4
 212 117 212 117 250 117 c 2,5,-1
 265 117 l 2,6,7
 311 117 311 117 339.5 147 c 128,-1,8
 368 177 368 177 368 221 c 0,9,10
 368 311 368 311 270 311 c 0,11,12
 244 311 244 311 244 347 c 0,13,14
 244 428 244 428 282 428 c 128,-1,15
 320 428 320 428 347 454 c 128,-1,16
 374 480 374 480 374 512 c 0,17,18
 374 583 374 583 309 583 c 0,19,20
 273 583 273 583 249 560.5 c 128,-1,21
 225 538 225 538 221 502 c 2,22,-1
 171 30 l 2,23,24
 168 -2 168 -2 108 -2 c 2,25,-1
 80 -2 l 2,26,27
 23 -2 23 -2 23 30 c 1,28,-1
 72 490 l 2,29,30
 82 589 82 589 152.5 648.5 c 128,-1,31
 223 708 223 708 318.5 708 c 128,-1,32
 414 708 414 708 470.5 665.5 c 128,-1,33
 527 623 527 623 527 550 c 0,34,35
 527 494 527 494 498.5 450.5 c 128,-1,36
 470 407 470 407 418 387 c 1,37,-1
 418 383 l 1,38,39
 518 343 518 343 518 239.5 c 128,-1,40
 518 136 518 136 447.5 68 c 128,-1,41
 377 0 377 0 261 0 c 2,0,-1
EndSplineSet
EndChar

StartChar: agrave
Encoding: 224 224 162
Width: 545
GlyphClass: 2
Flags: W
LayerCount: 2
Fore
SplineSet
437 -8 m 0,0,1
 342 -8 342 -8 322 67 c 1,2,3
 299 33 299 33 263.5 12 c 128,-1,4
 228 -9 228 -9 186 -9 c 0,5,6
 112 -9 112 -9 68 47.5 c 128,-1,7
 24 104 24 104 24 208 c 0,8,9
 24 352 24 352 86 441 c 128,-1,10
 148 530 148 530 246 530 c 0,11,12
 311 530 311 530 367 477 c 1,13,14
 376 507 376 507 386 515 c 128,-1,15
 396 523 396 523 432 524 c 1,16,-1
 444 524 l 2,17,18
 502 524 502 524 502 499 c 1,19,-1
 484 325 l 2,20,21
 465 151 465 151 465 141 c 0,22,23
 465 109 465 109 495 109 c 0,24,25
 503 109 503 109 513 112 c 128,-1,26
 523 115 523 115 524 115 c 0,27,28
 532 115 532 115 532 100 c 128,-1,29
 532 85 532 85 525 44 c 0,30,31
 521 19 521 19 494 5.5 c 128,-1,32
 467 -8 467 -8 437 -8 c 0,0,1
242 112 m 0,33,34
 283 112 283 112 320 170 c 1,35,36
 332 306 332 306 334 320.5 c 128,-1,37
 336 335 336 335 346 386 c 1,38,39
 315 413 315 413 280 413 c 0,40,41
 229 413 229 413 201.5 362.5 c 128,-1,42
 174 312 174 312 174 212 c 128,-1,43
 174 112 174 112 242 112 c 0,33,34
392 611 m 0,44,45
 392 595 392 595 350 595 c 128,-1,46
 308 595 308 595 286 622 c 128,-1,47
 264 649 264 649 229.5 690 c 128,-1,48
 195 731 195 731 195 738 c 0,49,50
 195 754 195 754 260.5 754 c 128,-1,51
 326 754 326 754 339 727 c 0,52,53
 349 706 349 706 358.5 686 c 128,-1,54
 368 666 368 666 373.5 655 c 128,-1,55
 379 644 379 644 384 634 c 0,56,57
 392 615 392 615 392 611 c 0,44,45
EndSplineSet
EndChar

StartChar: aacute
Encoding: 225 225 163
Width: 545
GlyphClass: 2
Flags: W
LayerCount: 2
Fore
SplineSet
437 -8 m 0,0,1
 342 -8 342 -8 322 67 c 1,2,3
 299 33 299 33 263.5 12 c 128,-1,4
 228 -9 228 -9 186 -9 c 0,5,6
 112 -9 112 -9 68 47.5 c 128,-1,7
 24 104 24 104 24 208 c 0,8,9
 24 352 24 352 86 441 c 128,-1,10
 148 530 148 530 246 530 c 0,11,12
 311 530 311 530 367 477 c 1,13,14
 376 507 376 507 386 515 c 128,-1,15
 396 523 396 523 432 524 c 1,16,-1
 444 524 l 2,17,18
 502 524 502 524 502 499 c 1,19,-1
 484 325 l 2,20,21
 465 151 465 151 465 141 c 0,22,23
 465 109 465 109 495 109 c 0,24,25
 503 109 503 109 513 112 c 128,-1,26
 523 115 523 115 524 115 c 0,27,28
 532 115 532 115 532 100 c 128,-1,29
 532 85 532 85 525 44 c 0,30,31
 521 19 521 19 494 5.5 c 128,-1,32
 467 -8 467 -8 437 -8 c 0,0,1
242 112 m 0,33,34
 283 112 283 112 320 170 c 1,35,36
 332 306 332 306 334 320.5 c 128,-1,37
 336 335 336 335 346 386 c 1,38,39
 315 413 315 413 280 413 c 0,40,41
 229 413 229 413 201.5 362.5 c 128,-1,42
 174 312 174 312 174 212 c 128,-1,43
 174 112 174 112 242 112 c 0,33,34
253 595 m 0,44,45
 224 595 224 595 224 608 c 0,46,47
 224 614 224 614 232.5 626.5 c 128,-1,48
 241 639 241 639 248.5 650 c 128,-1,49
 256 661 256 661 271 682.5 c 128,-1,50
 286 704 286 704 302.5 729 c 128,-1,51
 319 754 319 754 383 754 c 128,-1,52
 447 754 447 754 447 741 c 0,53,54
 447 734 447 734 442.5 728.5 c 128,-1,55
 438 723 438 723 402 688.5 c 128,-1,56
 366 654 366 654 336 624.5 c 128,-1,57
 306 595 306 595 253 595 c 0,44,45
EndSplineSet
EndChar

StartChar: acircumflex
Encoding: 226 226 164
Width: 545
GlyphClass: 2
Flags: W
LayerCount: 2
Fore
SplineSet
437 -8 m 0,0,1
 342 -8 342 -8 322 67 c 1,2,3
 299 33 299 33 263.5 12 c 128,-1,4
 228 -9 228 -9 186 -9 c 0,5,6
 112 -9 112 -9 68 47.5 c 128,-1,7
 24 104 24 104 24 208 c 0,8,9
 24 352 24 352 86 441 c 128,-1,10
 148 530 148 530 246 530 c 0,11,12
 311 530 311 530 367 477 c 1,13,14
 376 507 376 507 386 515 c 128,-1,15
 396 523 396 523 432 524 c 1,16,-1
 444 524 l 2,17,18
 502 524 502 524 502 499 c 1,19,-1
 484 325 l 2,20,21
 465 151 465 151 465 141 c 0,22,23
 465 109 465 109 495 109 c 0,24,25
 503 109 503 109 513 112 c 128,-1,26
 523 115 523 115 524 115 c 0,27,28
 532 115 532 115 532 100 c 128,-1,29
 532 85 532 85 525 44 c 0,30,31
 521 19 521 19 494 5.5 c 128,-1,32
 467 -8 467 -8 437 -8 c 0,0,1
242 112 m 0,33,34
 283 112 283 112 320 170 c 1,35,36
 332 306 332 306 334 320.5 c 128,-1,37
 336 335 336 335 346 386 c 1,38,39
 315 413 315 413 280 413 c 0,40,41
 229 413 229 413 201.5 362.5 c 128,-1,42
 174 312 174 312 174 212 c 128,-1,43
 174 112 174 112 242 112 c 0,33,34
308 728 m 2,44,-1
 319 728 l 2,45,46
 367 728 367 728 378 709 c 2,47,-1
 432 607 l 1,48,49
 435 599 435 599 435 595 c 0,50,51
 435 582 435 582 416 582 c 2,52,-1
 394 582 l 2,53,54
 345 582 345 582 330 606 c 2,55,-1
 305 646 l 1,56,-1
 274 607 l 2,57,58
 255 582 255 582 205 582 c 2,59,-1
 181 582 l 2,60,61
 162 582 162 582 162 592 c 0,62,63
 162 599 162 599 169 607 c 2,64,-1
 245 709 l 2,65,66
 259 728 259 728 308 728 c 2,44,-1
EndSplineSet
EndChar

StartChar: atilde
Encoding: 227 227 165
Width: 545
GlyphClass: 2
Flags: W
LayerCount: 2
Fore
SplineSet
437 -8 m 0,0,1
 342 -8 342 -8 322 67 c 1,2,3
 299 33 299 33 263.5 12 c 128,-1,4
 228 -9 228 -9 186 -9 c 0,5,6
 112 -9 112 -9 68 47.5 c 128,-1,7
 24 104 24 104 24 208 c 0,8,9
 24 352 24 352 86 441 c 128,-1,10
 148 530 148 530 246 530 c 0,11,12
 311 530 311 530 367 477 c 1,13,14
 376 507 376 507 386 515 c 128,-1,15
 396 523 396 523 432 524 c 1,16,-1
 444 524 l 2,17,18
 502 524 502 524 502 499 c 1,19,-1
 484 325 l 2,20,21
 465 151 465 151 465 141 c 0,22,23
 465 109 465 109 495 109 c 0,24,25
 503 109 503 109 513 112 c 128,-1,26
 523 115 523 115 524 115 c 0,27,28
 532 115 532 115 532 100 c 128,-1,29
 532 85 532 85 525 44 c 0,30,31
 521 19 521 19 494 5.5 c 128,-1,32
 467 -8 467 -8 437 -8 c 0,0,1
242 112 m 0,33,34
 283 112 283 112 320 170 c 1,35,36
 332 306 332 306 334 320.5 c 128,-1,37
 336 335 336 335 346 386 c 1,38,39
 315 413 315 413 280 413 c 0,40,41
 229 413 229 413 201.5 362.5 c 128,-1,42
 174 312 174 312 174 212 c 128,-1,43
 174 112 174 112 242 112 c 0,33,34
210 608.5 m 128,-1,45
 194 603 194 603 184 603 c 128,-1,46
 174 603 174 603 160.5 617 c 128,-1,47
 147 631 147 631 147 650 c 128,-1,48
 147 669 147 669 181 688 c 128,-1,49
 215 707 215 707 249 707 c 128,-1,50
 283 707 283 707 321 698.5 c 128,-1,51
 359 690 359 690 372.5 690 c 128,-1,52
 386 690 386 690 403 695.5 c 128,-1,53
 420 701 420 701 430.5 701 c 128,-1,54
 441 701 441 701 454 686.5 c 128,-1,55
 467 672 467 672 467 653 c 128,-1,56
 467 634 467 634 433 614.5 c 128,-1,57
 399 595 399 595 364.5 595 c 128,-1,58
 330 595 330 595 291.5 604.5 c 128,-1,59
 253 614 253 614 239.5 614 c 128,-1,44
 226 614 226 614 210 608.5 c 128,-1,45
EndSplineSet
EndChar

StartChar: adieresis
Encoding: 228 228 166
Width: 545
GlyphClass: 2
Flags: W
LayerCount: 2
Fore
SplineSet
437 -8 m 0,0,1
 342 -8 342 -8 322 67 c 1,2,3
 299 33 299 33 263.5 12 c 128,-1,4
 228 -9 228 -9 186 -9 c 0,5,6
 112 -9 112 -9 68 47.5 c 128,-1,7
 24 104 24 104 24 208 c 0,8,9
 24 352 24 352 86 441 c 128,-1,10
 148 530 148 530 246 530 c 0,11,12
 311 530 311 530 367 477 c 1,13,14
 376 507 376 507 386 515 c 128,-1,15
 396 523 396 523 432 524 c 1,16,-1
 444 524 l 2,17,18
 502 524 502 524 502 499 c 1,19,-1
 484 325 l 2,20,21
 465 151 465 151 465 141 c 0,22,23
 465 109 465 109 495 109 c 0,24,25
 503 109 503 109 513 112 c 128,-1,26
 523 115 523 115 524 115 c 0,27,28
 532 115 532 115 532 100 c 128,-1,29
 532 85 532 85 525 44 c 0,30,31
 521 19 521 19 494 5.5 c 128,-1,32
 467 -8 467 -8 437 -8 c 0,0,1
242 112 m 0,33,34
 283 112 283 112 320 170 c 1,35,36
 332 306 332 306 334 320.5 c 128,-1,37
 336 335 336 335 346 386 c 1,38,39
 315 413 315 413 280 413 c 0,40,41
 229 413 229 413 201.5 362.5 c 128,-1,42
 174 312 174 312 174 212 c 128,-1,43
 174 112 174 112 242 112 c 0,33,34
340 670 m 2,44,45
 343 702 343 702 401.5 702 c 128,-1,46
 460 702 460 702 460 670 c 1,47,-1
 453 610 l 1,48,49
 448 578 448 578 390.5 578 c 128,-1,50
 333 578 333 578 333 610 c 1,51,-1
 340 670 l 2,44,45
160 670 m 2,52,53
 163 702 163 702 221.5 702 c 128,-1,54
 280 702 280 702 280 670 c 1,55,-1
 273 610 l 1,56,57
 268 578 268 578 210.5 578 c 128,-1,58
 153 578 153 578 153 610 c 1,59,-1
 160 670 l 2,52,53
EndSplineSet
EndChar

StartChar: aring
Encoding: 229 229 167
Width: 545
GlyphClass: 2
Flags: W
LayerCount: 2
Fore
SplineSet
437 -8 m 0,0,1
 342 -8 342 -8 322 67 c 1,2,3
 299 33 299 33 263.5 12 c 128,-1,4
 228 -9 228 -9 186 -9 c 0,5,6
 112 -9 112 -9 68 47.5 c 128,-1,7
 24 104 24 104 24 208 c 0,8,9
 24 352 24 352 86 441 c 128,-1,10
 148 530 148 530 246 530 c 0,11,12
 311 530 311 530 367 477 c 1,13,14
 376 507 376 507 386 515 c 128,-1,15
 396 523 396 523 432 524 c 1,16,-1
 444 524 l 2,17,18
 502 524 502 524 502 499 c 1,19,-1
 484 325 l 2,20,21
 465 151 465 151 465 141 c 0,22,23
 465 109 465 109 495 109 c 0,24,25
 503 109 503 109 513 112 c 128,-1,26
 523 115 523 115 524 115 c 0,27,28
 532 115 532 115 532 100 c 128,-1,29
 532 85 532 85 525 44 c 0,30,31
 521 19 521 19 494 5.5 c 128,-1,32
 467 -8 467 -8 437 -8 c 0,0,1
242 112 m 0,33,34
 283 112 283 112 320 170 c 1,35,36
 332 306 332 306 334 320.5 c 128,-1,37
 336 335 336 335 346 386 c 1,38,39
 315 413 315 413 280 413 c 0,40,41
 229 413 229 413 201.5 362.5 c 128,-1,42
 174 312 174 312 174 212 c 128,-1,43
 174 112 174 112 242 112 c 0,33,34
376.5 581.5 m 128,-1,45
 347 550 347 550 301.5 550 c 128,-1,46
 256 550 256 550 231 575 c 128,-1,47
 206 600 206 600 206 643 c 128,-1,48
 206 686 206 686 236.5 717.5 c 128,-1,49
 267 749 267 749 311.5 749 c 128,-1,50
 356 749 356 749 381 723.5 c 128,-1,51
 406 698 406 698 406 655.5 c 128,-1,44
 406 613 406 613 376.5 581.5 c 128,-1,45
279.5 621 m 128,-1,53
 289 612 289 612 304 612 c 128,-1,54
 319 612 319 612 331 623.5 c 128,-1,55
 343 635 343 635 343 650 c 128,-1,56
 343 665 343 665 333.5 675 c 128,-1,57
 324 685 324 685 309 685 c 128,-1,58
 294 685 294 685 282 672.5 c 128,-1,59
 270 660 270 660 270 645 c 128,-1,52
 270 630 270 630 279.5 621 c 128,-1,53
EndSplineSet
EndChar

StartChar: ae
Encoding: 230 230 168
Width: 829
GlyphClass: 2
Flags: W
LayerCount: 2
Fore
SplineSet
497.5 130.5 m 128,-1,1
 524 109 524 109 566 109 c 128,-1,2
 608 109 608 109 644 120 c 128,-1,3
 680 131 680 131 702.5 142 c 128,-1,4
 725 153 725 153 728 153 c 0,5,6
 736 153 736 153 736 139 c 0,7,8
 736 124 736 124 733 96.5 c 128,-1,9
 730 69 730 69 728 62 c 0,10,11
 717 25 717 25 663 8.5 c 128,-1,12
 609 -8 609 -8 554 -8 c 0,13,14
 428 -8 428 -8 368 58 c 1,15,16
 337 33 337 33 286.5 12.5 c 128,-1,17
 236 -8 236 -8 170 -8 c 128,-1,18
 104 -8 104 -8 64.5 26.5 c 128,-1,19
 25 61 25 61 25 122 c 0,20,21
 25 225 25 225 107 272 c 0,22,23
 179 314 179 314 328 316 c 1,24,25
 337 358 337 358 352 389 c 1,26,27
 332 414 332 414 265 414 c 0,28,29
 219 414 219 414 158 390 c 0,30,31
 137 382 137 382 133 382 c 0,32,33
 119 382 119 382 104.5 410.5 c 128,-1,34
 90 439 90 439 90 458 c 0,35,36
 90 485 90 485 151.5 508 c 128,-1,37
 213 531 213 531 288 531 c 0,38,39
 394 531 394 531 446 494 c 1,40,41
 507 531 507 531 593 531 c 0,42,43
 650 531 650 531 691 516 c 128,-1,44
 732 501 732 501 752 477 c 0,45,46
 787 433 787 433 787 386 c 0,47,48
 787 294 787 294 722 248.5 c 128,-1,49
 657 203 657 203 572 203 c 0,50,51
 517 203 517 203 468 210 c 1,52,0
 471 152 471 152 497.5 130.5 c 128,-1,1
583 414 m 0,53,54
 500 414 500 414 475 302 c 1,55,-1
 523 302 l 2,56,57
 587 302 587 302 615 321.5 c 128,-1,58
 643 341 643 341 643 367 c 0,59,60
 643 414 643 414 583 414 c 0,53,54
186 119.5 m 128,-1,62
 198 109 198 109 222.5 109 c 128,-1,63
 247 109 247 109 276.5 120.5 c 128,-1,64
 306 132 306 132 323 152 c 1,65,66
 318 184 318 184 318 212 c 2,67,-1
 318 224 l 1,68,69
 174 222 174 222 174 147 c 0,70,61
 174 130 174 130 186 119.5 c 128,-1,62
EndSplineSet
EndChar

StartChar: ccedilla
Encoding: 231 231 169
Width: 485
GlyphClass: 2
Flags: W
LayerCount: 2
Fore
SplineSet
150 -182 m 0,0,1
 139 -171 139 -171 139 -155 c 0,2,3
 139 -107 139 -107 153 -107 c 0,4,5
 155 -107 155 -107 185 -120.5 c 128,-1,6
 215 -134 215 -134 240 -134 c 128,-1,7
 265 -134 265 -134 267 -117 c 1,8,9
 267 -105 267 -105 243 -93 c 128,-1,10
 219 -81 219 -81 219 -69 c 0,11,12
 219 -60 219 -60 242 -7 c 1,13,14
 33 0 33 0 33 204 c 0,15,16
 33 343 33 343 94 432 c 1,17,18
 125 479 125 479 181 505 c 128,-1,19
 237 531 237 531 302 531 c 128,-1,20
 367 531 367 531 418.5 515.5 c 128,-1,21
 470 500 470 500 471 462 c 0,22,23
 471 446 471 446 451 416 c 128,-1,24
 431 386 431 386 416 386 c 0,25,26
 412 386 412 386 400 393 c 0,27,28
 361 414 361 414 318 414 c 0,29,30
 186 414 186 414 186 219 c 0,31,32
 186 163 186 163 208.5 136 c 128,-1,33
 231 109 231 109 285 109 c 128,-1,34
 339 109 339 109 403 141 c 0,35,36
 419 149 419 149 425 149 c 128,-1,37
 431 149 431 149 431 135 c 0,38,39
 431 85 431 85 423 58 c 1,40,41
 406 11 406 11 311 -3 c 1,42,-1
 301 -31 l 1,43,44
 371 -48 371 -48 371 -101.5 c 128,-1,45
 371 -155 371 -155 337 -181 c 128,-1,46
 303 -207 303 -207 239 -207 c 128,-1,47
 175 -207 175 -207 150 -182 c 0,0,1
EndSplineSet
EndChar

StartChar: egrave
Encoding: 232 232 170
Width: 539
GlyphClass: 2
Flags: W
LayerCount: 2
Fore
SplineSet
212.5 130.5 m 128,-1,1
 239 109 239 109 281 109 c 128,-1,2
 323 109 323 109 359 120 c 128,-1,3
 395 131 395 131 417.5 142 c 128,-1,4
 440 153 440 153 443 153 c 0,5,6
 451 153 451 153 451 139 c 0,7,8
 451 124 451 124 448 96.5 c 128,-1,9
 445 69 445 69 443 62 c 0,10,11
 432 25 432 25 378 8.5 c 128,-1,12
 324 -8 324 -8 269 -8 c 0,13,14
 150 -8 150 -8 91.5 50 c 128,-1,15
 33 108 33 108 33 212 c 0,16,17
 33 375 33 375 110 453 c 128,-1,18
 187 531 187 531 308 531 c 0,19,20
 365 531 365 531 406 516 c 128,-1,21
 447 501 447 501 466 477 c 0,22,23
 502 433 502 433 502 386 c 0,24,25
 502 294 502 294 437 248.5 c 128,-1,26
 372 203 372 203 287 203 c 0,27,28
 232 203 232 203 183 210 c 1,29,0
 186 152 186 152 212.5 130.5 c 128,-1,1
298 414 m 0,30,31
 215 414 215 414 190 302 c 1,32,-1
 238 302 l 2,33,34
 302 302 302 302 330 321.5 c 128,-1,35
 358 341 358 341 358 367 c 0,36,37
 358 414 358 414 298 414 c 0,30,31
412 611 m 0,38,39
 412 595 412 595 370 595 c 128,-1,40
 328 595 328 595 306 622 c 128,-1,41
 284 649 284 649 249.5 690 c 128,-1,42
 215 731 215 731 215 738 c 0,43,44
 215 754 215 754 280.5 754 c 128,-1,45
 346 754 346 754 359 727 c 0,46,47
 369 706 369 706 378.5 686 c 128,-1,48
 388 666 388 666 393.5 655 c 128,-1,49
 399 644 399 644 404 634 c 0,50,51
 412 615 412 615 412 611 c 0,38,39
EndSplineSet
EndChar

StartChar: eacute
Encoding: 233 233 171
Width: 539
GlyphClass: 2
Flags: W
LayerCount: 2
Fore
SplineSet
212.5 130.5 m 128,-1,1
 239 109 239 109 281 109 c 128,-1,2
 323 109 323 109 359 120 c 128,-1,3
 395 131 395 131 417.5 142 c 128,-1,4
 440 153 440 153 443 153 c 0,5,6
 451 153 451 153 451 139 c 0,7,8
 451 124 451 124 448 96.5 c 128,-1,9
 445 69 445 69 443 62 c 0,10,11
 432 25 432 25 378 8.5 c 128,-1,12
 324 -8 324 -8 269 -8 c 0,13,14
 150 -8 150 -8 91.5 50 c 128,-1,15
 33 108 33 108 33 212 c 0,16,17
 33 375 33 375 110 453 c 128,-1,18
 187 531 187 531 308 531 c 0,19,20
 365 531 365 531 406 516 c 128,-1,21
 447 501 447 501 466 477 c 0,22,23
 502 433 502 433 502 386 c 0,24,25
 502 294 502 294 437 248.5 c 128,-1,26
 372 203 372 203 287 203 c 0,27,28
 232 203 232 203 183 210 c 1,29,0
 186 152 186 152 212.5 130.5 c 128,-1,1
298 414 m 0,30,31
 215 414 215 414 190 302 c 1,32,-1
 238 302 l 2,33,34
 302 302 302 302 330 321.5 c 128,-1,35
 358 341 358 341 358 367 c 0,36,37
 358 414 358 414 298 414 c 0,30,31
273 595 m 0,38,39
 244 595 244 595 244 608 c 0,40,41
 244 614 244 614 252.5 626.5 c 128,-1,42
 261 639 261 639 268.5 650 c 128,-1,43
 276 661 276 661 291 682.5 c 128,-1,44
 306 704 306 704 322.5 729 c 128,-1,45
 339 754 339 754 403 754 c 128,-1,46
 467 754 467 754 467 741 c 0,47,48
 467 734 467 734 462.5 728.5 c 128,-1,49
 458 723 458 723 422 688.5 c 128,-1,50
 386 654 386 654 356 624.5 c 128,-1,51
 326 595 326 595 273 595 c 0,38,39
EndSplineSet
EndChar

StartChar: ecircumflex
Encoding: 234 234 172
Width: 539
GlyphClass: 2
Flags: W
LayerCount: 2
Fore
SplineSet
212.5 130.5 m 128,-1,1
 239 109 239 109 281 109 c 128,-1,2
 323 109 323 109 359 120 c 128,-1,3
 395 131 395 131 417.5 142 c 128,-1,4
 440 153 440 153 443 153 c 0,5,6
 451 153 451 153 451 139 c 0,7,8
 451 124 451 124 448 96.5 c 128,-1,9
 445 69 445 69 443 62 c 0,10,11
 432 25 432 25 378 8.5 c 128,-1,12
 324 -8 324 -8 269 -8 c 0,13,14
 150 -8 150 -8 91.5 50 c 128,-1,15
 33 108 33 108 33 212 c 0,16,17
 33 375 33 375 110 453 c 128,-1,18
 187 531 187 531 308 531 c 0,19,20
 365 531 365 531 406 516 c 128,-1,21
 447 501 447 501 466 477 c 0,22,23
 502 433 502 433 502 386 c 0,24,25
 502 294 502 294 437 248.5 c 128,-1,26
 372 203 372 203 287 203 c 0,27,28
 232 203 232 203 183 210 c 1,29,0
 186 152 186 152 212.5 130.5 c 128,-1,1
298 414 m 0,30,31
 215 414 215 414 190 302 c 1,32,-1
 238 302 l 2,33,34
 302 302 302 302 330 321.5 c 128,-1,35
 358 341 358 341 358 367 c 0,36,37
 358 414 358 414 298 414 c 0,30,31
328 728 m 2,38,-1
 339 728 l 2,39,40
 387 728 387 728 398 709 c 2,41,-1
 452 607 l 1,42,43
 455 599 455 599 455 595 c 0,44,45
 455 582 455 582 436 582 c 2,46,-1
 414 582 l 2,47,48
 365 582 365 582 350 606 c 2,49,-1
 325 646 l 1,50,-1
 294 607 l 2,51,52
 275 582 275 582 225 582 c 2,53,-1
 201 582 l 2,54,55
 182 582 182 582 182 592 c 0,56,57
 182 599 182 599 189 607 c 2,58,-1
 265 709 l 2,59,60
 279 728 279 728 328 728 c 2,38,-1
EndSplineSet
EndChar

StartChar: edieresis
Encoding: 235 235 173
Width: 539
GlyphClass: 2
Flags: W
LayerCount: 2
Fore
SplineSet
212.5 130.5 m 128,-1,1
 239 109 239 109 281 109 c 128,-1,2
 323 109 323 109 359 120 c 128,-1,3
 395 131 395 131 417.5 142 c 128,-1,4
 440 153 440 153 443 153 c 0,5,6
 451 153 451 153 451 139 c 0,7,8
 451 124 451 124 448 96.5 c 128,-1,9
 445 69 445 69 443 62 c 0,10,11
 432 25 432 25 378 8.5 c 128,-1,12
 324 -8 324 -8 269 -8 c 0,13,14
 150 -8 150 -8 91.5 50 c 128,-1,15
 33 108 33 108 33 212 c 0,16,17
 33 375 33 375 110 453 c 128,-1,18
 187 531 187 531 308 531 c 0,19,20
 365 531 365 531 406 516 c 128,-1,21
 447 501 447 501 466 477 c 0,22,23
 502 433 502 433 502 386 c 0,24,25
 502 294 502 294 437 248.5 c 128,-1,26
 372 203 372 203 287 203 c 0,27,28
 232 203 232 203 183 210 c 1,29,0
 186 152 186 152 212.5 130.5 c 128,-1,1
298 414 m 0,30,31
 215 414 215 414 190 302 c 1,32,-1
 238 302 l 2,33,34
 302 302 302 302 330 321.5 c 128,-1,35
 358 341 358 341 358 367 c 0,36,37
 358 414 358 414 298 414 c 0,30,31
360 670 m 2,38,39
 363 702 363 702 421.5 702 c 128,-1,40
 480 702 480 702 480 670 c 1,41,-1
 473 610 l 1,42,43
 468 578 468 578 410.5 578 c 128,-1,44
 353 578 353 578 353 610 c 1,45,-1
 360 670 l 2,38,39
180 670 m 2,46,47
 183 702 183 702 241.5 702 c 128,-1,48
 300 702 300 702 300 670 c 1,49,-1
 293 610 l 1,50,51
 288 578 288 578 230.5 578 c 128,-1,52
 173 578 173 578 173 610 c 1,53,-1
 180 670 l 2,46,47
EndSplineSet
EndChar

StartChar: igrave
Encoding: 236 236 174
Width: 265
GlyphClass: 2
Flags: W
LayerCount: 2
Fore
SplineSet
130 525 m 2,0,-1
 158 525 l 2,1,2
 186 525 186 525 200.5 516 c 128,-1,3
 215 507 215 507 215 494 c 1,4,5
 178 152 178 152 178 142 c 0,6,7
 178 109 178 109 208 109 c 0,8,9
 216 109 216 109 226 112 c 128,-1,10
 236 115 236 115 237 115 c 0,11,12
 245 115 245 115 245 100 c 128,-1,13
 245 85 245 85 238 44 c 0,14,15
 234 19 234 19 207 5.5 c 128,-1,16
 180 -8 180 -8 150 -8 c 0,17,18
 29 -8 29 -8 29 119 c 1,19,-1
 67 493 l 2,20,21
 70 525 70 525 130 525 c 2,0,-1
248 611 m 0,22,23
 248 595 248 595 206 595 c 128,-1,24
 164 595 164 595 142 622 c 128,-1,25
 120 649 120 649 85.5 690 c 128,-1,26
 51 731 51 731 51 738 c 0,27,28
 51 754 51 754 116.5 754 c 128,-1,29
 182 754 182 754 195 727 c 0,30,31
 205 706 205 706 214.5 686 c 128,-1,32
 224 666 224 666 229.5 655 c 128,-1,33
 235 644 235 644 240 634 c 0,34,35
 248 615 248 615 248 611 c 0,22,23
EndSplineSet
EndChar

StartChar: iacute
Encoding: 237 237 175
Width: 265
GlyphClass: 2
Flags: W
LayerCount: 2
Fore
SplineSet
130 525 m 2,0,-1
 158 525 l 2,1,2
 186 525 186 525 200.5 516 c 128,-1,3
 215 507 215 507 215 494 c 1,4,5
 178 152 178 152 178 142 c 0,6,7
 178 109 178 109 208 109 c 0,8,9
 216 109 216 109 226 112 c 128,-1,10
 236 115 236 115 237 115 c 0,11,12
 245 115 245 115 245 100 c 128,-1,13
 245 85 245 85 238 44 c 0,14,15
 234 19 234 19 207 5.5 c 128,-1,16
 180 -8 180 -8 150 -8 c 0,17,18
 29 -8 29 -8 29 119 c 1,19,-1
 67 493 l 2,20,21
 70 525 70 525 130 525 c 2,0,-1
109 595 m 0,22,23
 80 595 80 595 80 608 c 0,24,25
 80 614 80 614 88.5 626.5 c 128,-1,26
 97 639 97 639 104.5 650 c 128,-1,27
 112 661 112 661 127 682.5 c 128,-1,28
 142 704 142 704 158.5 729 c 128,-1,29
 175 754 175 754 239 754 c 128,-1,30
 303 754 303 754 303 741 c 0,31,32
 303 734 303 734 298.5 728.5 c 128,-1,33
 294 723 294 723 258 688.5 c 128,-1,34
 222 654 222 654 192 624.5 c 128,-1,35
 162 595 162 595 109 595 c 0,22,23
EndSplineSet
EndChar

StartChar: icircumflex
Encoding: 238 238 176
Width: 265
GlyphClass: 2
Flags: W
LayerCount: 2
Fore
SplineSet
130 525 m 2,0,-1
 158 525 l 2,1,2
 186 525 186 525 200.5 516 c 128,-1,3
 215 507 215 507 215 494 c 1,4,5
 178 152 178 152 178 142 c 0,6,7
 178 109 178 109 208 109 c 0,8,9
 216 109 216 109 226 112 c 128,-1,10
 236 115 236 115 237 115 c 0,11,12
 245 115 245 115 245 100 c 128,-1,13
 245 85 245 85 238 44 c 0,14,15
 234 19 234 19 207 5.5 c 128,-1,16
 180 -8 180 -8 150 -8 c 0,17,18
 29 -8 29 -8 29 119 c 1,19,-1
 67 493 l 2,20,21
 70 525 70 525 130 525 c 2,0,-1
164 728 m 2,22,-1
 175 728 l 2,23,24
 223 728 223 728 234 709 c 2,25,-1
 288 607 l 1,26,27
 291 599 291 599 291 595 c 0,28,29
 291 582 291 582 272 582 c 2,30,-1
 250 582 l 2,31,32
 201 582 201 582 186 606 c 2,33,-1
 161 646 l 1,34,-1
 130 607 l 2,35,36
 111 582 111 582 61 582 c 2,37,-1
 37 582 l 2,38,39
 18 582 18 582 18 592 c 0,40,41
 18 599 18 599 25 607 c 2,42,-1
 101 709 l 2,43,44
 115 728 115 728 164 728 c 2,22,-1
EndSplineSet
EndChar

StartChar: idieresis
Encoding: 239 239 177
Width: 265
GlyphClass: 2
Flags: W
LayerCount: 2
Fore
SplineSet
130 525 m 2,0,-1
 158 525 l 2,1,2
 186 525 186 525 200.5 516 c 128,-1,3
 215 507 215 507 215 494 c 1,4,5
 178 152 178 152 178 142 c 0,6,7
 178 109 178 109 208 109 c 0,8,9
 216 109 216 109 226 112 c 128,-1,10
 236 115 236 115 237 115 c 0,11,12
 245 115 245 115 245 100 c 128,-1,13
 245 85 245 85 238 44 c 0,14,15
 234 19 234 19 207 5.5 c 128,-1,16
 180 -8 180 -8 150 -8 c 0,17,18
 29 -8 29 -8 29 119 c 1,19,-1
 67 493 l 2,20,21
 70 525 70 525 130 525 c 2,0,-1
196 670 m 2,22,23
 199 702 199 702 257.5 702 c 128,-1,24
 316 702 316 702 316 670 c 1,25,-1
 309 610 l 1,26,27
 304 578 304 578 246.5 578 c 128,-1,28
 189 578 189 578 189 610 c 1,29,-1
 196 670 l 2,22,23
16 670 m 2,30,31
 19 702 19 702 77.5 702 c 128,-1,32
 136 702 136 702 136 670 c 1,33,-1
 129 610 l 1,34,35
 124 578 124 578 66.5 578 c 128,-1,36
 9 578 9 578 9 610 c 1,37,-1
 16 670 l 2,30,31
EndSplineSet
EndChar

StartChar: eth
Encoding: 240 240 178
Width: 569
GlyphClass: 2
Flags: W
LayerCount: 2
Fore
SplineSet
339 589 m 1,0,1
 283 581 283 581 273 581 c 128,-1,2
 263 581 263 581 253 592.5 c 128,-1,3
 243 604 243 604 243 619.5 c 128,-1,4
 243 635 243 635 266 639 c 2,5,-1
 309 645 l 1,6,7
 307 648 307 648 300 659 c 0,8,9
 282 685 282 685 282 696 c 128,-1,10
 282 707 282 707 297 708 c 2,11,-1
 359 715 l 1,12,13
 390 715 390 715 411 691 c 0,14,15
 420 681 420 681 432 661 c 1,16,17
 499 670 499 670 506 670 c 128,-1,18
 513 670 513 670 523 657.5 c 128,-1,19
 533 645 533 645 533 630 c 128,-1,20
 533 615 533 615 511 612 c 2,21,-1
 464 606 l 1,22,23
 531 483 531 483 531 323 c 128,-1,24
 531 163 531 163 460 77.5 c 128,-1,25
 389 -8 389 -8 258 -8 c 0,26,27
 151 -8 151 -8 95.5 48.5 c 128,-1,28
 40 105 40 105 40 213 c 0,29,30
 40 365 40 365 112.5 448 c 128,-1,31
 185 531 185 531 314 531 c 0,32,33
 333 531 333 531 365 527 c 1,34,35
 356 554 356 554 339 589 c 1,0,1
270 109 m 0,36,37
 322 109 322 109 351 159.5 c 128,-1,38
 380 210 380 210 380 304 c 0,39,40
 380 414 380 414 302 414 c 0,41,42
 249 414 249 414 219.5 364 c 128,-1,43
 190 314 190 314 190 219 c 0,44,45
 190 109 190 109 270 109 c 0,36,37
EndSplineSet
EndChar

StartChar: ntilde
Encoding: 241 241 179
Width: 557
GlyphClass: 2
Flags: W
LayerCount: 2
Fore
SplineSet
495 404 m 1,0,-1
 470 142 l 1,1,2
 470 109 470 109 500 109 c 0,3,4
 508 109 508 109 518 112 c 128,-1,5
 528 115 528 115 529 115 c 0,6,7
 537 115 537 115 537 100 c 128,-1,8
 537 85 537 85 530 44 c 0,9,10
 526 19 526 19 499 5.5 c 128,-1,11
 472 -8 472 -8 442 -8 c 0,12,13
 321 -8 321 -8 321 119 c 1,14,15
 321 119 321 119 344 359 c 1,16,17
 344 409 344 409 292.5 409 c 128,-1,18
 241 409 241 409 202 348 c 1,19,-1
 170 30 l 2,20,21
 167 -2 167 -2 107 -2 c 2,22,-1
 79 -2 l 2,23,24
 51 -2 51 -2 36.5 7 c 128,-1,25
 22 16 22 16 22 29 c 1,26,-1
 56 357 l 2,27,28
 60 396 60 396 60 428 c 1,29,-1
 58 484 l 2,30,31
 58 500 58 500 91 510 c 128,-1,32
 124 520 124 520 174 520 c 0,33,34
 193 520 193 520 198.5 503.5 c 128,-1,35
 204 487 204 487 206 452 c 1,36,37
 232 484 232 484 275.5 507.5 c 128,-1,38
 319 531 319 531 363 531 c 0,39,40
 495 531 495 531 495 404 c 1,0,-1
221 608.5 m 128,-1,42
 205 603 205 603 195 603 c 128,-1,43
 185 603 185 603 171.5 617 c 128,-1,44
 158 631 158 631 158 650 c 128,-1,45
 158 669 158 669 192 688 c 128,-1,46
 226 707 226 707 260 707 c 128,-1,47
 294 707 294 707 332 698.5 c 128,-1,48
 370 690 370 690 383.5 690 c 128,-1,49
 397 690 397 690 414 695.5 c 128,-1,50
 431 701 431 701 441.5 701 c 128,-1,51
 452 701 452 701 465 686.5 c 128,-1,52
 478 672 478 672 478 653 c 128,-1,53
 478 634 478 634 444 614.5 c 128,-1,54
 410 595 410 595 375.5 595 c 128,-1,55
 341 595 341 595 302.5 604.5 c 128,-1,56
 264 614 264 614 250.5 614 c 128,-1,41
 237 614 237 614 221 608.5 c 128,-1,42
EndSplineSet
EndChar

StartChar: ograve
Encoding: 242 242 180
Width: 569
GlyphClass: 2
Flags: W
LayerCount: 2
Fore
SplineSet
33 211 m 0,0,1
 33 342 33 342 91 432 c 0,2,3
 121 478 121 478 176.5 504.5 c 128,-1,4
 232 531 232 531 307 531 c 0,5,6
 414 531 414 531 469 475 c 128,-1,7
 524 419 524 419 524 311 c 0,8,9
 524 159 524 159 451 75.5 c 128,-1,10
 378 -8 378 -8 250 -8 c 0,11,12
 143 -8 143 -8 88 48 c 128,-1,13
 33 104 33 104 33 211 c 0,0,1
262 109 m 0,14,15
 314 109 314 109 343.5 159.5 c 128,-1,16
 373 210 373 210 373 304 c 0,17,18
 373 414 373 414 295 414 c 0,19,20
 242 414 242 414 212.5 363.5 c 128,-1,21
 183 313 183 313 183 218 c 0,22,23
 183 109 183 109 262 109 c 0,14,15
408 611 m 0,24,25
 408 595 408 595 366 595 c 128,-1,26
 324 595 324 595 302 622 c 128,-1,27
 280 649 280 649 245.5 690 c 128,-1,28
 211 731 211 731 211 738 c 0,29,30
 211 754 211 754 276.5 754 c 128,-1,31
 342 754 342 754 355 727 c 0,32,33
 365 706 365 706 374.5 686 c 128,-1,34
 384 666 384 666 389.5 655 c 128,-1,35
 395 644 395 644 400 634 c 0,36,37
 408 615 408 615 408 611 c 0,24,25
EndSplineSet
EndChar

StartChar: oacute
Encoding: 243 243 181
Width: 569
GlyphClass: 2
Flags: W
LayerCount: 2
Fore
SplineSet
33 211 m 0,0,1
 33 342 33 342 91 432 c 0,2,3
 121 478 121 478 176.5 504.5 c 128,-1,4
 232 531 232 531 307 531 c 0,5,6
 414 531 414 531 469 475 c 128,-1,7
 524 419 524 419 524 311 c 0,8,9
 524 159 524 159 451 75.5 c 128,-1,10
 378 -8 378 -8 250 -8 c 0,11,12
 143 -8 143 -8 88 48 c 128,-1,13
 33 104 33 104 33 211 c 0,0,1
262 109 m 0,14,15
 314 109 314 109 343.5 159.5 c 128,-1,16
 373 210 373 210 373 304 c 0,17,18
 373 414 373 414 295 414 c 0,19,20
 242 414 242 414 212.5 363.5 c 128,-1,21
 183 313 183 313 183 218 c 0,22,23
 183 109 183 109 262 109 c 0,14,15
269 595 m 0,24,25
 240 595 240 595 240 608 c 0,26,27
 240 614 240 614 248.5 626.5 c 128,-1,28
 257 639 257 639 264.5 650 c 128,-1,29
 272 661 272 661 287 682.5 c 128,-1,30
 302 704 302 704 318.5 729 c 128,-1,31
 335 754 335 754 399 754 c 128,-1,32
 463 754 463 754 463 741 c 0,33,34
 463 734 463 734 458.5 728.5 c 128,-1,35
 454 723 454 723 418 688.5 c 128,-1,36
 382 654 382 654 352 624.5 c 128,-1,37
 322 595 322 595 269 595 c 0,24,25
EndSplineSet
EndChar

StartChar: ocircumflex
Encoding: 244 244 182
Width: 569
GlyphClass: 2
Flags: W
LayerCount: 2
Fore
SplineSet
33 211 m 0,0,1
 33 342 33 342 91 432 c 0,2,3
 121 478 121 478 176.5 504.5 c 128,-1,4
 232 531 232 531 307 531 c 0,5,6
 414 531 414 531 469 475 c 128,-1,7
 524 419 524 419 524 311 c 0,8,9
 524 159 524 159 451 75.5 c 128,-1,10
 378 -8 378 -8 250 -8 c 0,11,12
 143 -8 143 -8 88 48 c 128,-1,13
 33 104 33 104 33 211 c 0,0,1
262 109 m 0,14,15
 314 109 314 109 343.5 159.5 c 128,-1,16
 373 210 373 210 373 304 c 0,17,18
 373 414 373 414 295 414 c 0,19,20
 242 414 242 414 212.5 363.5 c 128,-1,21
 183 313 183 313 183 218 c 0,22,23
 183 109 183 109 262 109 c 0,14,15
324 728 m 2,24,-1
 335 728 l 2,25,26
 383 728 383 728 394 709 c 2,27,-1
 448 607 l 1,28,29
 451 599 451 599 451 595 c 0,30,31
 451 582 451 582 432 582 c 2,32,-1
 410 582 l 2,33,34
 361 582 361 582 346 606 c 2,35,-1
 321 646 l 1,36,-1
 290 607 l 2,37,38
 271 582 271 582 221 582 c 2,39,-1
 197 582 l 2,40,41
 178 582 178 582 178 592 c 0,42,43
 178 599 178 599 185 607 c 2,44,-1
 261 709 l 2,45,46
 275 728 275 728 324 728 c 2,24,-1
EndSplineSet
EndChar

StartChar: otilde
Encoding: 245 245 183
Width: 569
GlyphClass: 2
Flags: W
LayerCount: 2
Fore
SplineSet
33 211 m 0,0,1
 33 342 33 342 91 432 c 0,2,3
 121 478 121 478 176.5 504.5 c 128,-1,4
 232 531 232 531 307 531 c 0,5,6
 414 531 414 531 469 475 c 128,-1,7
 524 419 524 419 524 311 c 0,8,9
 524 159 524 159 451 75.5 c 128,-1,10
 378 -8 378 -8 250 -8 c 0,11,12
 143 -8 143 -8 88 48 c 128,-1,13
 33 104 33 104 33 211 c 0,0,1
262 109 m 0,14,15
 314 109 314 109 343.5 159.5 c 128,-1,16
 373 210 373 210 373 304 c 0,17,18
 373 414 373 414 295 414 c 0,19,20
 242 414 242 414 212.5 363.5 c 128,-1,21
 183 313 183 313 183 218 c 0,22,23
 183 109 183 109 262 109 c 0,14,15
226 608.5 m 128,-1,25
 210 603 210 603 200 603 c 128,-1,26
 190 603 190 603 176.5 617 c 128,-1,27
 163 631 163 631 163 650 c 128,-1,28
 163 669 163 669 197 688 c 128,-1,29
 231 707 231 707 265 707 c 128,-1,30
 299 707 299 707 337 698.5 c 128,-1,31
 375 690 375 690 388.5 690 c 128,-1,32
 402 690 402 690 419 695.5 c 128,-1,33
 436 701 436 701 446.5 701 c 128,-1,34
 457 701 457 701 470 686.5 c 128,-1,35
 483 672 483 672 483 653 c 128,-1,36
 483 634 483 634 449 614.5 c 128,-1,37
 415 595 415 595 380.5 595 c 128,-1,38
 346 595 346 595 307.5 604.5 c 128,-1,39
 269 614 269 614 255.5 614 c 128,-1,24
 242 614 242 614 226 608.5 c 128,-1,25
EndSplineSet
EndChar

StartChar: odieresis
Encoding: 246 246 184
Width: 569
GlyphClass: 2
Flags: W
LayerCount: 2
Fore
SplineSet
33 211 m 0,0,1
 33 342 33 342 91 432 c 0,2,3
 121 478 121 478 176.5 504.5 c 128,-1,4
 232 531 232 531 307 531 c 0,5,6
 414 531 414 531 469 475 c 128,-1,7
 524 419 524 419 524 311 c 0,8,9
 524 159 524 159 451 75.5 c 128,-1,10
 378 -8 378 -8 250 -8 c 0,11,12
 143 -8 143 -8 88 48 c 128,-1,13
 33 104 33 104 33 211 c 0,0,1
262 109 m 0,14,15
 314 109 314 109 343.5 159.5 c 128,-1,16
 373 210 373 210 373 304 c 0,17,18
 373 414 373 414 295 414 c 0,19,20
 242 414 242 414 212.5 363.5 c 128,-1,21
 183 313 183 313 183 218 c 0,22,23
 183 109 183 109 262 109 c 0,14,15
356 670 m 2,24,25
 359 702 359 702 417.5 702 c 128,-1,26
 476 702 476 702 476 670 c 1,27,-1
 469 610 l 1,28,29
 464 578 464 578 406.5 578 c 128,-1,30
 349 578 349 578 349 610 c 1,31,-1
 356 670 l 2,24,25
176 670 m 2,32,33
 179 702 179 702 237.5 702 c 128,-1,34
 296 702 296 702 296 670 c 1,35,-1
 289 610 l 1,36,37
 284 578 284 578 226.5 578 c 128,-1,38
 169 578 169 578 169 610 c 1,39,-1
 176 670 l 2,32,33
EndSplineSet
EndChar

StartChar: divide
Encoding: 247 247 185
Width: 560
GlyphClass: 2
Flags: W
LayerCount: 2
Fore
SplineSet
297 453 m 2,0,-1
 308 453 l 2,1,2
 365 453 365 453 365 421 c 1,3,-1
 358 350 l 2,4,5
 355 318 355 318 294 318 c 2,6,-1
 283 318 l 2,7,8
 250 318 250 318 238.5 325.5 c 128,-1,9
 227 333 227 333 227 350 c 1,10,-1
 234 421 l 2,11,12
 237 453 237 453 297 453 c 2,0,-1
29 206 m 0,13,14
 29 279 29 279 66 279 c 2,15,-1
 507 279 l 2,16,17
 533 279 533 279 533 245 c 0,18,19
 533 172 533 172 496 172 c 2,20,-1
 55 172 l 2,21,22
 29 172 29 172 29 206 c 0,13,14
264 133 m 2,23,-1
 275 133 l 2,24,25
 331 133 331 133 331 101 c 1,26,-1
 324 30 l 2,27,28
 321 -2 321 -2 261 -2 c 2,29,-1
 250 -2 l 2,30,31
 193 -2 193 -2 193 30 c 1,32,-1
 200 101 l 2,33,34
 203 133 203 133 264 133 c 2,23,-1
EndSplineSet
EndChar

StartChar: oslash
Encoding: 248 248 186
Width: 569
GlyphClass: 2
Flags: W
LayerCount: 2
Fore
SplineSet
530 311 m 0,0,1
 530 159 530 159 457 75.5 c 128,-1,2
 384 -8 384 -8 256 -8 c 0,3,4
 175 -8 175 -8 126 23 c 1,5,-1
 108 2 l 2,6,7
 96 -11 96 -11 85.5 -11 c 128,-1,8
 75 -11 75 -11 65 -1 c 1,9,-1
 51 11 l 2,10,11
 38 21 38 21 38 32 c 128,-1,12
 38 43 38 43 48 54 c 2,13,-1
 70 79 l 1,14,15
 39 131 39 131 39 203.5 c 128,-1,16
 39 276 39 276 53 330.5 c 128,-1,17
 67 385 67 385 97 431.5 c 128,-1,18
 127 478 127 478 182.5 504.5 c 128,-1,19
 238 531 238 531 311 531 c 128,-1,20
 384 531 384 531 435 504 c 1,21,-1
 459 532 l 2,22,23
 470 545 470 545 479.5 545 c 128,-1,24
 489 545 489 545 502 535 c 2,25,-1
 516 523 l 1,26,27
 529 510 529 510 529 501 c 128,-1,28
 529 492 529 492 519 480 c 2,29,-1
 494 451 l 1,30,31
 530 397 530 397 530 311 c 0,0,1
301 414 m 0,32,33
 248 414 248 414 218.5 363.5 c 128,-1,34
 189 313 189 313 189 218 c 1,35,-1
 346 401 l 1,36,37
 328 414 328 414 301 414 c 0,32,33
268 109 m 0,38,39
 320 109 320 109 349.5 159.5 c 128,-1,40
 379 210 379 210 379 304 c 2,41,-1
 379 317 l 1,42,-1
 216 127 l 1,43,44
 234 109 234 109 268 109 c 0,38,39
EndSplineSet
EndChar

StartChar: ugrave
Encoding: 249 249 187
Width: 557
GlyphClass: 2
Flags: W
LayerCount: 2
Fore
SplineSet
436 -8 m 0,0,1
 339 -8 339 -8 320 72 c 1,2,3
 291 38 291 38 248 15 c 128,-1,4
 205 -8 205 -8 160 -8 c 0,5,6
 92 -8 92 -8 60 23 c 128,-1,7
 28 54 28 54 28 119 c 0,8,9
 28 160 28 160 56 408 c 1,10,-1
 65 493 l 2,11,12
 68 525 68 525 128 525 c 2,13,-1
 156 525 l 2,14,15
 184 525 184 525 198.5 516 c 128,-1,16
 213 507 213 507 213 494 c 1,17,18
 179 176 179 176 179 163 c 0,19,20
 179 114 179 114 229.5 114 c 128,-1,21
 280 114 280 114 319 168 c 1,22,-1
 353 493 l 2,23,24
 356 525 356 525 416 525 c 2,25,-1
 444 525 l 2,26,27
 472 525 472 525 486.5 516 c 128,-1,28
 501 507 501 507 501 494 c 1,29,30
 464 152 464 152 464 142 c 0,31,32
 464 109 464 109 494 109 c 0,33,34
 502 109 502 109 512 112 c 128,-1,35
 522 115 522 115 523 115 c 0,36,37
 531 115 531 115 531 100 c 128,-1,38
 531 85 531 85 524 44 c 0,39,40
 520 19 520 19 493 5.5 c 128,-1,41
 466 -8 466 -8 436 -8 c 0,0,1
383 611 m 0,42,43
 383 595 383 595 341 595 c 128,-1,44
 299 595 299 595 277 622 c 128,-1,45
 255 649 255 649 220.5 690 c 128,-1,46
 186 731 186 731 186 738 c 0,47,48
 186 754 186 754 251.5 754 c 128,-1,49
 317 754 317 754 330 727 c 0,50,51
 340 706 340 706 349.5 686 c 128,-1,52
 359 666 359 666 364.5 655 c 128,-1,53
 370 644 370 644 374 634 c 0,54,55
 383 615 383 615 383 611 c 0,42,43
EndSplineSet
EndChar

StartChar: uacute
Encoding: 250 250 188
Width: 557
GlyphClass: 2
Flags: W
LayerCount: 2
Fore
SplineSet
436 -8 m 0,0,1
 339 -8 339 -8 320 72 c 1,2,3
 291 38 291 38 248 15 c 128,-1,4
 205 -8 205 -8 160 -8 c 0,5,6
 92 -8 92 -8 60 23 c 128,-1,7
 28 54 28 54 28 119 c 0,8,9
 28 160 28 160 56 408 c 1,10,-1
 65 493 l 2,11,12
 68 525 68 525 128 525 c 2,13,-1
 156 525 l 2,14,15
 184 525 184 525 198.5 516 c 128,-1,16
 213 507 213 507 213 494 c 1,17,18
 179 176 179 176 179 163 c 0,19,20
 179 114 179 114 229.5 114 c 128,-1,21
 280 114 280 114 319 168 c 1,22,-1
 353 493 l 2,23,24
 356 525 356 525 416 525 c 2,25,-1
 444 525 l 2,26,27
 472 525 472 525 486.5 516 c 128,-1,28
 501 507 501 507 501 494 c 1,29,30
 464 152 464 152 464 142 c 0,31,32
 464 109 464 109 494 109 c 0,33,34
 502 109 502 109 512 112 c 128,-1,35
 522 115 522 115 523 115 c 0,36,37
 531 115 531 115 531 100 c 128,-1,38
 531 85 531 85 524 44 c 0,39,40
 520 19 520 19 493 5.5 c 128,-1,41
 466 -8 466 -8 436 -8 c 0,0,1
244 595 m 0,42,43
 215 595 215 595 215 608 c 0,44,45
 215 614 215 614 223.5 626.5 c 128,-1,46
 232 639 232 639 239.5 650 c 128,-1,47
 247 661 247 661 262 682.5 c 128,-1,48
 277 704 277 704 293.5 729 c 128,-1,49
 310 754 310 754 374 754 c 128,-1,50
 438 754 438 754 438 741 c 0,51,52
 438 734 438 734 433.5 728.5 c 128,-1,53
 429 723 429 723 393 688.5 c 128,-1,54
 357 654 357 654 327 624.5 c 128,-1,55
 297 595 297 595 244 595 c 0,42,43
EndSplineSet
EndChar

StartChar: ucircumflex
Encoding: 251 251 189
Width: 557
GlyphClass: 2
Flags: W
LayerCount: 2
Fore
SplineSet
436 -8 m 0,0,1
 339 -8 339 -8 320 72 c 1,2,3
 291 38 291 38 248 15 c 128,-1,4
 205 -8 205 -8 160 -8 c 0,5,6
 92 -8 92 -8 60 23 c 128,-1,7
 28 54 28 54 28 119 c 0,8,9
 28 160 28 160 56 408 c 1,10,-1
 65 493 l 2,11,12
 68 525 68 525 128 525 c 2,13,-1
 156 525 l 2,14,15
 184 525 184 525 198.5 516 c 128,-1,16
 213 507 213 507 213 494 c 1,17,18
 179 176 179 176 179 163 c 0,19,20
 179 114 179 114 229.5 114 c 128,-1,21
 280 114 280 114 319 168 c 1,22,-1
 353 493 l 2,23,24
 356 525 356 525 416 525 c 2,25,-1
 444 525 l 2,26,27
 472 525 472 525 486.5 516 c 128,-1,28
 501 507 501 507 501 494 c 1,29,30
 464 152 464 152 464 142 c 0,31,32
 464 109 464 109 494 109 c 0,33,34
 502 109 502 109 512 112 c 128,-1,35
 522 115 522 115 523 115 c 0,36,37
 531 115 531 115 531 100 c 128,-1,38
 531 85 531 85 524 44 c 0,39,40
 520 19 520 19 493 5.5 c 128,-1,41
 466 -8 466 -8 436 -8 c 0,0,1
299 728 m 2,42,-1
 310 728 l 2,43,44
 358 728 358 728 369 709 c 2,45,-1
 423 607 l 1,46,47
 426 599 426 599 426 595 c 0,48,49
 426 582 426 582 407 582 c 2,50,-1
 385 582 l 2,51,52
 336 582 336 582 321 606 c 2,53,-1
 296 646 l 1,54,-1
 265 607 l 2,55,56
 246 582 246 582 196 582 c 2,57,-1
 172 582 l 2,58,59
 153 582 153 582 153 592 c 0,60,61
 153 599 153 599 160 607 c 2,62,-1
 236 709 l 2,63,64
 250 728 250 728 299 728 c 2,42,-1
EndSplineSet
EndChar

StartChar: udieresis
Encoding: 252 252 190
Width: 557
GlyphClass: 2
Flags: W
LayerCount: 2
Fore
SplineSet
436 -8 m 0,0,1
 339 -8 339 -8 320 72 c 1,2,3
 291 38 291 38 248 15 c 128,-1,4
 205 -8 205 -8 160 -8 c 0,5,6
 92 -8 92 -8 60 23 c 128,-1,7
 28 54 28 54 28 119 c 0,8,9
 28 160 28 160 56 408 c 1,10,-1
 65 493 l 2,11,12
 68 525 68 525 128 525 c 2,13,-1
 156 525 l 2,14,15
 184 525 184 525 198.5 516 c 128,-1,16
 213 507 213 507 213 494 c 1,17,18
 179 176 179 176 179 163 c 0,19,20
 179 114 179 114 229.5 114 c 128,-1,21
 280 114 280 114 319 168 c 1,22,-1
 353 493 l 2,23,24
 356 525 356 525 416 525 c 2,25,-1
 444 525 l 2,26,27
 472 525 472 525 486.5 516 c 128,-1,28
 501 507 501 507 501 494 c 1,29,30
 464 152 464 152 464 142 c 0,31,32
 464 109 464 109 494 109 c 0,33,34
 502 109 502 109 512 112 c 128,-1,35
 522 115 522 115 523 115 c 0,36,37
 531 115 531 115 531 100 c 128,-1,38
 531 85 531 85 524 44 c 0,39,40
 520 19 520 19 493 5.5 c 128,-1,41
 466 -8 466 -8 436 -8 c 0,0,1
331 670 m 2,42,43
 334 702 334 702 392.5 702 c 128,-1,44
 451 702 451 702 451 670 c 1,45,-1
 444 610 l 1,46,47
 439 578 439 578 381.5 578 c 128,-1,48
 324 578 324 578 324 610 c 1,49,-1
 331 670 l 2,42,43
151 670 m 2,50,51
 154 702 154 702 212.5 702 c 128,-1,52
 271 702 271 702 271 670 c 1,53,-1
 264 610 l 1,54,55
 259 578 259 578 201.5 578 c 128,-1,56
 144 578 144 578 144 610 c 1,57,-1
 151 670 l 2,50,51
EndSplineSet
EndChar

StartChar: yacute
Encoding: 253 253 191
Width: 481
GlyphClass: 2
Flags: W
LayerCount: 2
Fore
SplineSet
27 499 m 0,0,1
 27 525 27 525 91 525 c 2,2,-1
 123 525 l 2,3,4
 172 525 172 525 177 504 c 2,5,-1
 216 319 l 2,6,7
 220 300 220 300 232 198 c 1,8,-1
 236 198 l 1,9,10
 263 287 263 287 276 319 c 2,11,-1
 355 504 l 2,12,13
 364 525 364 525 413 525 c 2,14,-1
 437 525 l 2,15,16
 495 525 495 525 495 504 c 0,17,18
 495 502 495 502 490 485 c 1,19,-1
 190 -185 l 2,20,21
 181 -206 181 -206 132 -206 c 2,22,-1
 115 -206 l 2,23,24
 57 -206 57 -206 57 -186 c 0,25,26
 57 -178 57 -178 63 -167 c 2,27,-1
 144 0 l 1,28,29
 27 494 27 494 27 499 c 0,0,1
228 595 m 0,30,31
 199 595 199 595 199 608 c 0,32,33
 199 614 199 614 207.5 626.5 c 128,-1,34
 216 639 216 639 223.5 650 c 128,-1,35
 231 661 231 661 246 682.5 c 128,-1,36
 261 704 261 704 277.5 729 c 128,-1,37
 294 754 294 754 358 754 c 128,-1,38
 422 754 422 754 422 741 c 0,39,40
 422 734 422 734 417.5 728.5 c 128,-1,41
 413 723 413 723 377 688.5 c 128,-1,42
 341 654 341 654 311 624.5 c 128,-1,43
 281 595 281 595 228 595 c 0,30,31
EndSplineSet
EndChar

StartChar: thorn
Encoding: 254 254 192
Width: 570
GlyphClass: 2
Flags: W
LayerCount: 2
Fore
SplineSet
197 754 m 2,0,-1
 225 754 l 2,1,2
 253 754 253 754 267.5 745 c 128,-1,3
 282 736 282 736 282 723 c 1,4,-1
 256 475 l 1,5,6
 305 531 305 531 377.5 531 c 128,-1,7
 450 531 450 531 494 474.5 c 128,-1,8
 538 418 538 418 538 314 c 0,9,10
 538 170 538 170 476 81 c 128,-1,11
 414 -8 414 -8 316 -8 c 0,12,13
 257 -8 257 -8 209 32 c 1,14,-1
 187 -174 l 2,15,16
 184 -206 184 -206 124 -206 c 2,17,-1
 96 -206 l 2,18,19
 68 -206 68 -206 53.5 -197 c 128,-1,20
 39 -188 39 -188 39 -175 c 1,21,-1
 134 722 l 2,22,23
 137 754 137 754 197 754 c 2,0,-1
320 410 m 0,24,25
 279 410 279 410 243 354 c 1,26,-1
 219 132 l 1,27,28
 247 109 247 109 282 109 c 0,29,30
 333 109 333 109 360.5 159.5 c 128,-1,31
 388 210 388 210 388 310 c 128,-1,32
 388 410 388 410 320 410 c 0,24,25
EndSplineSet
EndChar

StartChar: ydieresis
Encoding: 255 255 193
Width: 481
GlyphClass: 2
Flags: W
LayerCount: 2
Fore
SplineSet
27 499 m 0,0,1
 27 525 27 525 91 525 c 2,2,-1
 123 525 l 2,3,4
 172 525 172 525 177 504 c 2,5,-1
 216 319 l 2,6,7
 220 300 220 300 232 198 c 1,8,-1
 236 198 l 1,9,10
 263 287 263 287 276 319 c 2,11,-1
 355 504 l 2,12,13
 364 525 364 525 413 525 c 2,14,-1
 437 525 l 2,15,16
 495 525 495 525 495 504 c 0,17,18
 495 502 495 502 490 485 c 1,19,-1
 190 -185 l 2,20,21
 181 -206 181 -206 132 -206 c 2,22,-1
 115 -206 l 2,23,24
 57 -206 57 -206 57 -186 c 0,25,26
 57 -178 57 -178 63 -167 c 2,27,-1
 144 0 l 1,28,29
 27 494 27 494 27 499 c 0,0,1
315 670 m 2,30,31
 318 702 318 702 376.5 702 c 128,-1,32
 435 702 435 702 435 670 c 1,33,-1
 428 610 l 1,34,35
 423 578 423 578 365.5 578 c 128,-1,36
 308 578 308 578 308 610 c 1,37,-1
 315 670 l 2,30,31
135 670 m 2,38,39
 138 702 138 702 196.5 702 c 128,-1,40
 255 702 255 702 255 670 c 1,41,-1
 248 610 l 1,42,43
 243 578 243 578 185.5 578 c 128,-1,44
 128 578 128 578 128 610 c 1,45,-1
 135 670 l 2,38,39
EndSplineSet
EndChar

StartChar: dotlessi
Encoding: 305 305 194
Width: 265
GlyphClass: 2
Flags: W
LayerCount: 2
Fore
SplineSet
130 525 m 2,0,-1
 158 525 l 2,1,2
 186 525 186 525 200.5 516 c 128,-1,3
 215 507 215 507 215 494 c 1,4,5
 178 152 178 152 178 142 c 0,6,7
 178 109 178 109 208 109 c 0,8,9
 216 109 216 109 226 112 c 128,-1,10
 236 115 236 115 237 115 c 0,11,12
 245 115 245 115 245 100 c 128,-1,13
 245 85 245 85 238 44 c 0,14,15
 234 19 234 19 207 5.5 c 128,-1,16
 180 -8 180 -8 150 -8 c 0,17,18
 29 -8 29 -8 29 119 c 1,19,-1
 67 493 l 2,20,21
 70 525 70 525 130 525 c 2,0,-1
EndSplineSet
EndChar

StartChar: Lslash
Encoding: 321 321 195
Width: 486
GlyphClass: 2
Flags: W
LayerCount: 2
Fore
SplineSet
29 283 m 0,0,1
 20 283 20 283 20 303 c 0,2,3
 20 349 20 349 53 369 c 2,4,-1
 73 381 l 1,5,-1
 104 670 l 2,6,7
 107 702 107 702 167 702 c 2,8,-1
 202 702 l 2,9,10
 259 702 259 702 259 671 c 1,11,-1
 238 475 l 1,12,-1
 330 528 l 2,13,14
 340 534 340 534 346 534 c 0,15,16
 355 534 355 534 355 514 c 0,17,18
 355 466 355 466 322 448 c 2,19,-1
 230 395 l 1,20,-1
 202 131 l 1,21,-1
 425 131 l 2,22,23
 451 131 451 131 451 91 c 0,24,25
 451 0 451 0 413 0 c 2,26,-1
 73 0 l 2,27,28
 53 0 53 0 45 7 c 128,-1,29
 37 14 37 14 37 32 c 1,30,-1
 65 300 l 1,31,-1
 45 289 l 2,32,33
 35 283 35 283 29 283 c 0,0,1
EndSplineSet
EndChar

StartChar: lslash
Encoding: 322 322 196
Width: 293
GlyphClass: 2
Flags: W
LayerCount: 2
Fore
SplineSet
43 119 m 0,0,1
 43 132 43 132 63 327 c 1,2,-1
 44 317 l 2,3,4
 34 311 34 311 28 311 c 0,5,6
 19 311 19 311 19 331 c 0,7,8
 19 377 19 377 52 397 c 2,9,-1
 71 409 l 1,10,-1
 106 725 l 2,11,12
 110 755 110 755 158 755 c 2,13,-1
 206 755 l 2,14,15
 253 755 253 755 253 728 c 1,16,17
 241 620 241 620 228 497 c 1,18,-1
 255 512 l 2,19,20
 265 518 265 518 271 518 c 0,21,22
 280 518 280 518 280 498 c 0,23,24
 280 450 280 450 247 432 c 1,25,-1
 220 416 l 1,26,27
 192 157 192 157 192 142 c 0,28,29
 192 109 192 109 222 109 c 0,30,31
 230 109 230 109 240 112 c 128,-1,32
 250 115 250 115 251 115 c 0,33,34
 259 115 259 115 259 100 c 128,-1,35
 259 85 259 85 252 44 c 0,36,37
 248 19 248 19 221 5.5 c 128,-1,38
 194 -8 194 -8 164 -8 c 0,39,40
 43 -8 43 -8 43 119 c 0,0,1
EndSplineSet
EndChar

StartChar: OE
Encoding: 338 338 197
Width: 1021
GlyphClass: 2
Flags: W
LayerCount: 2
Fore
SplineSet
605 700 m 2,0,-1
 971 700 l 2,1,2
 997 700 997 700 997 660 c 0,3,4
 997 569 997 569 959 569 c 2,5,-1
 707 569 l 1,6,-1
 691 424 l 1,7,-1
 915 424 l 2,8,9
 941 424 941 424 941 384 c 0,10,11
 941 293 941 293 903 293 c 2,12,-1
 678 293 l 1,13,-1
 660 131 l 1,14,-1
 912 131 l 2,15,16
 938 131 938 131 938 91 c 0,17,18
 938 0 938 0 900 0 c 2,19,-1
 532 0 l 2,20,21
 512 0 512 0 504 7 c 128,-1,22
 496 14 496 14 496 32 c 2,23,-1
 496 36 l 1,24,25
 418 -8 418 -8 318 -8 c 0,26,27
 183 -8 183 -8 112 66.5 c 128,-1,28
 41 141 41 141 41 282 c 0,29,30
 41 485 41 485 135.5 596.5 c 128,-1,31
 230 708 230 708 393 708 c 0,32,33
 494 708 494 708 561 662 c 1,34,35
 565 700 565 700 605 700 c 2,0,-1
342 123 m 0,36,37
 429 123 429 123 480 195.5 c 128,-1,38
 531 268 531 268 531 400 c 0,39,40
 531 576 531 576 389 576 c 0,41,42
 301 576 301 576 250.5 503.5 c 128,-1,43
 200 431 200 431 200 298 c 0,44,45
 200 123 200 123 342 123 c 0,36,37
EndSplineSet
EndChar

StartChar: oe
Encoding: 339 339 198
Width: 871
GlyphClass: 2
Flags: W
LayerCount: 2
Fore
SplineSet
39 211 m 0,0,1
 39 342 39 342 97 432 c 0,2,3
 127 478 127 478 182.5 504.5 c 128,-1,4
 238 531 238 531 313 531 c 0,5,6
 417 531 417 531 474 472 c 1,7,8
 547 531 547 531 649 531 c 0,9,10
 706 531 706 531 747 516 c 128,-1,11
 788 501 788 501 808 477 c 0,12,13
 843 433 843 433 843 386 c 0,14,15
 843 294 843 294 778 248.5 c 128,-1,16
 713 203 713 203 628 203 c 0,17,18
 573 203 573 203 524 210 c 1,19,20
 527 152 527 152 553.5 130.5 c 128,-1,21
 580 109 580 109 622 109 c 128,-1,22
 664 109 664 109 700 120 c 128,-1,23
 736 131 736 131 758.5 142 c 128,-1,24
 781 153 781 153 784 153 c 0,25,26
 792 153 792 153 792 139 c 0,27,28
 792 124 792 124 789 96.5 c 128,-1,29
 786 69 786 69 784 62 c 0,30,31
 773 25 773 25 719 8.5 c 128,-1,32
 665 -8 665 -8 610 -8 c 0,33,34
 496 -8 496 -8 432 53 c 1,35,36
 358 -8 358 -8 253.5 -8 c 128,-1,37
 149 -8 149 -8 94 48 c 128,-1,38
 39 104 39 104 39 211 c 0,0,1
639 414 m 0,39,40
 556 414 556 414 531 302 c 1,41,-1
 579 302 l 2,42,43
 643 302 643 302 671 321.5 c 128,-1,44
 699 341 699 341 699 367 c 0,45,46
 699 414 699 414 639 414 c 0,39,40
268 109 m 0,47,48
 320 109 320 109 349.5 159.5 c 128,-1,49
 379 210 379 210 379 304 c 0,50,51
 379 414 379 414 301 414 c 0,52,53
 248 414 248 414 218.5 363.5 c 128,-1,54
 189 313 189 313 189 218 c 0,55,56
 189 109 189 109 268 109 c 0,47,48
EndSplineSet
EndChar

StartChar: Scaron
Encoding: 352 352 199
Width: 500
GlyphClass: 2
Flags: W
LayerCount: 2
Fore
SplineSet
216 696.5 m 128,-1,1
 260 708 260 708 321.5 708 c 128,-1,2
 383 708 383 708 432.5 687 c 128,-1,3
 482 666 482 666 482 640 c 0,4,5
 482 619 482 619 458.5 585 c 128,-1,6
 435 551 435 551 418 551 c 0,7,8
 414 551 414 551 400 558 c 0,9,10
 362 576 362 576 320 576 c 128,-1,11
 278 576 278 576 257 569 c 128,-1,12
 236 562 236 562 226 551 c 0,13,14
 210 532 210 532 210 507.5 c 128,-1,15
 210 483 210 483 236.5 463.5 c 128,-1,16
 263 444 263 444 301 428.5 c 128,-1,17
 339 413 339 413 377 393.5 c 128,-1,18
 415 374 415 374 441.5 335 c 128,-1,19
 468 296 468 296 468 239.5 c 128,-1,20
 468 183 468 183 452.5 138.5 c 128,-1,21
 437 94 437 94 412.5 67 c 128,-1,22
 388 40 388 40 354 22 c 0,23,24
 295 -8 295 -8 218 -8 c 0,25,26
 125 -8 125 -8 62 24 c 0,27,28
 26 43 26 43 26 70 c 0,29,30
 26 181 26 181 52 181 c 0,31,32
 57 181 57 181 78 166 c 0,33,34
 139 123 139 123 206 123 c 0,35,36
 247 123 247 123 277 141 c 128,-1,37
 307 159 307 159 307 203 c 0,38,39
 307 227 307 227 288 246 c 128,-1,40
 269 265 269 265 240 276 c 128,-1,41
 211 287 211 287 178 304 c 128,-1,42
 145 321 145 321 116 339.5 c 128,-1,43
 87 358 87 358 68 393 c 128,-1,44
 49 428 49 428 49 483.5 c 128,-1,45
 49 539 49 539 72 586.5 c 128,-1,46
 95 634 95 634 133.5 659.5 c 128,-1,0
 172 685 172 685 216 696.5 c 128,-1,1
313 785 m 2,47,-1
 302 785 l 2,48,49
 254 785 254 785 243 804 c 2,50,-1
 189 906 l 1,51,52
 186 914 186 914 186 918 c 0,53,54
 186 931 186 931 205 931 c 2,55,-1
 227 931 l 2,56,57
 275 931 275 931 291 907 c 2,58,-1
 316 867 l 1,59,-1
 347 906 l 2,60,61
 365 929 365 929 416 931 c 1,62,-1
 440 931 l 2,63,64
 459 931 459 931 459 921 c 0,65,66
 459 914 459 914 452 906 c 2,67,-1
 376 804 l 2,68,69
 362 785 362 785 313 785 c 2,47,-1
EndSplineSet
EndChar

StartChar: scaron
Encoding: 353 353 200
Width: 413
GlyphClass: 2
Flags: W
LayerCount: 2
Fore
SplineSet
251 415 m 0,0,1
 194 415 194 415 194 375 c 0,2,3
 194 354 194 354 222 339 c 128,-1,4
 250 324 250 324 283 313.5 c 128,-1,5
 316 303 316 303 344 271 c 128,-1,6
 372 239 372 239 372 188 c 0,7,8
 372 96 372 96 315 44 c 128,-1,9
 258 -8 258 -8 166 -8 c 0,10,11
 128 -8 128 -8 92 0 c 0,12,13
 22 16 22 16 22 53 c 0,14,15
 22 143 22 143 44 143 c 0,16,17
 46 143 46 143 62 134 c 0,18,19
 108 109 108 109 154 109 c 0,20,21
 220 109 220 109 220 159 c 0,22,23
 220 180 220 180 201.5 193.5 c 128,-1,24
 183 207 183 207 157 216 c 128,-1,25
 131 225 131 225 105 237.5 c 128,-1,26
 79 250 79 250 60.5 277.5 c 128,-1,27
 42 305 42 305 42 346 c 0,28,29
 42 435 42 435 97 483 c 128,-1,30
 152 531 152 531 240 531 c 0,31,32
 294 531 294 531 340 516.5 c 128,-1,33
 386 502 386 502 386 470 c 0,34,35
 386 454 386 454 366.5 424.5 c 128,-1,36
 347 395 347 395 333 395 c 0,37,38
 331 395 331 395 306 405 c 128,-1,39
 281 415 281 415 251 415 c 0,0,1
236 582 m 2,40,-1
 225 582 l 2,41,42
 177 582 177 582 166 601 c 2,43,-1
 112 703 l 2,44,45
 109 710 109 710 109 715 c 0,46,47
 109 728 109 728 128 728 c 2,48,-1
 150 728 l 2,49,50
 198 728 198 728 214 704 c 2,51,-1
 239 664 l 1,52,-1
 270 703 l 2,53,54
 288 726 288 726 339 728 c 1,55,-1
 363 728 l 2,56,57
 382 728 382 728 382 718 c 0,58,59
 382 711 382 711 375 703 c 2,60,-1
 299 601 l 2,61,62
 285 582 285 582 236 582 c 2,40,-1
EndSplineSet
EndChar

StartChar: Ydieresis
Encoding: 376 376 201
Width: 559
GlyphClass: 2
Flags: W
LayerCount: 2
Fore
SplineSet
38 657 m 2,0,1
 32 669 32 669 32 679 c 128,-1,2
 32 689 32 689 42 694 c 0,3,4
 57 702 57 702 96 702 c 2,5,-1
 139 702 l 2,6,7
 188 702 188 702 197 683 c 2,8,-1
 297 469 l 1,9,-1
 442 683 l 2,10,11
 455 702 455 702 504 702 c 2,12,-1
 540 702 l 2,13,14
 601 702 601 702 601 682 c 0,15,16
 601 673 601 673 590 657 c 2,17,-1
 357 333 l 1,18,-1
 325 30 l 2,19,20
 322 -2 322 -2 262 -2 c 2,21,-1
 228 -2 l 2,22,23
 171 -2 171 -2 171 30 c 1,24,-1
 203 336 l 1,25,-1
 38 657 l 2,0,1
372 850 m 2,26,27
 375 882 375 882 433.5 882 c 128,-1,28
 492 882 492 882 492 850 c 1,29,-1
 485 790 l 1,30,31
 480 758 480 758 422.5 758 c 128,-1,32
 365 758 365 758 365 790 c 1,33,-1
 372 850 l 2,26,27
192 850 m 2,34,35
 195 882 195 882 253.5 882 c 128,-1,36
 312 882 312 882 312 850 c 1,37,-1
 305 790 l 1,38,39
 300 758 300 758 242.5 758 c 128,-1,40
 185 758 185 758 185 790 c 1,41,-1
 192 850 l 2,34,35
EndSplineSet
EndChar

StartChar: Zcaron
Encoding: 381 381 202
Width: 616
GlyphClass: 2
Flags: W
LayerCount: 2
Fore
SplineSet
524 131 m 2,0,1
 550 131 550 131 550 91 c 0,2,3
 550 0 550 0 512 0 c 2,4,-1
 33 0 l 2,5,6
 20 0 20 0 10.5 31 c 128,-1,7
 1 62 1 62 1 80.5 c 128,-1,8
 1 99 1 99 4 102 c 2,9,-1
 385 569 l 1,10,-1
 107 569 l 2,11,12
 81 569 81 569 81 609 c 0,13,14
 81 700 81 700 119 700 c 2,15,-1
 572 700 l 2,16,17
 585 700 585 700 594.5 669 c 128,-1,18
 604 638 604 638 604 619.5 c 128,-1,19
 604 601 604 601 601 598 c 2,20,-1
 219 131 l 1,21,-1
 524 131 l 2,0,1
368 762 m 2,22,-1
 357 762 l 2,23,24
 309 762 309 762 298 781 c 2,25,-1
 244 883 l 1,26,27
 241 891 241 891 241 895 c 0,28,29
 241 908 241 908 260 908 c 2,30,-1
 282 908 l 2,31,32
 330 908 330 908 346 884 c 2,33,-1
 371 844 l 1,34,-1
 402 883 l 2,35,36
 420 906 420 906 471 908 c 1,37,-1
 495 908 l 2,38,39
 514 908 514 908 514 898 c 0,40,41
 514 891 514 891 507 883 c 2,42,-1
 431 781 l 2,43,44
 417 762 417 762 368 762 c 2,22,-1
EndSplineSet
EndChar

StartChar: zcaron
Encoding: 382 382 203
Width: 489
GlyphClass: 2
Flags: W
LayerCount: 2
Fore
SplineSet
414 117 m 2,0,1
 440 117 440 117 440 81 c 0,2,3
 440 0 440 0 402 0 c 2,4,-1
 31 0 l 2,5,6
 22 0 22 0 14.5 25.5 c 128,-1,7
 7 51 7 51 7 69.5 c 128,-1,8
 7 88 7 88 11 92 c 2,9,-1
 272 406 l 1,10,-1
 84 406 l 2,11,12
 58 406 58 406 58 442 c 0,13,14
 58 523 58 523 96 523 c 2,15,-1
 448 523 l 2,16,17
 457 523 457 523 464.5 497.5 c 128,-1,18
 472 472 472 472 472 453.5 c 128,-1,19
 472 435 472 435 468 431 c 2,20,-1
 207 117 l 1,21,-1
 414 117 l 2,0,1
280 582 m 2,22,-1
 269 582 l 2,23,24
 221 582 221 582 210 601 c 2,25,-1
 156 703 l 2,26,27
 153 710 153 710 153 715 c 0,28,29
 153 728 153 728 172 728 c 2,30,-1
 194 728 l 2,31,32
 242 728 242 728 258 704 c 2,33,-1
 283 664 l 1,34,-1
 314 703 l 2,35,36
 332 726 332 726 383 728 c 1,37,-1
 407 728 l 2,38,39
 426 728 426 728 426 718 c 0,40,41
 426 711 426 711 419 703 c 2,42,-1
 343 601 l 2,43,44
 329 582 329 582 280 582 c 2,22,-1
EndSplineSet
EndChar

StartChar: florin
Encoding: 402 402 204
Width: 332
GlyphClass: 2
Flags: W
LayerCount: 2
Fore
SplineSet
291 523 m 2,0,1
 301 523 301 523 304 518.5 c 128,-1,2
 307 514 307 514 307 493 c 128,-1,3
 307 472 307 472 289 439 c 128,-1,4
 271 406 271 406 245 406 c 2,5,-1
 215 406 l 1,6,-1
 135 -174 l 2,7,8
 130 -206 130 -206 72 -206 c 2,9,-1
 44 -206 l 2,10,11
 16 -206 16 -206 1.5 -197 c 128,-1,12
 -13 -188 -13 -188 -13 -175 c 1,13,-1
 67 406 l 1,14,-1
 47 406 l 2,15,16
 23 406 23 406 23 435 c 0,17,18
 23 523 23 523 63 523 c 2,19,-1
 84 523 l 1,20,-1
 93 598 l 2,21,22
 102 674 102 674 146.5 717 c 128,-1,23
 191 760 191 760 262 760 c 0,24,25
 356 760 356 760 356 716 c 0,26,27
 356 702 356 702 343 670 c 128,-1,28
 330 638 330 638 317 638 c 0,29,30
 314 638 314 638 305 640.5 c 128,-1,31
 296 643 296 643 284 643 c 0,32,33
 248 643 248 643 242 600 c 2,34,-1
 231 523 l 1,35,-1
 291 523 l 2,0,1
EndSplineSet
EndChar

StartChar: circumflex
Encoding: 710 710 205
Width: 320
GlyphClass: 2
Flags: W
LayerCount: 2
Fore
SplineSet
158 728 m 2,0,-1
 169 728 l 2,1,2
 217 728 217 728 228 709 c 2,3,-1
 282 607 l 1,4,5
 285 599 285 599 285 595 c 0,6,7
 285 582 285 582 266 582 c 2,8,-1
 244 582 l 2,9,10
 195 582 195 582 180 606 c 2,11,-1
 155 646 l 1,12,-1
 124 607 l 2,13,14
 105 582 105 582 55 582 c 2,15,-1
 31 582 l 2,16,17
 12 582 12 582 12 592 c 0,18,19
 12 599 12 599 19 607 c 2,20,-1
 95 709 l 2,21,22
 109 728 109 728 158 728 c 2,0,-1
EndSplineSet
EndChar

StartChar: caron
Encoding: 711 711 206
Width: 320
GlyphClass: 2
Flags: W
LayerCount: 2
Fore
SplineSet
154 582 m 2,0,-1
 143 582 l 2,1,2
 95 582 95 582 84 601 c 2,3,-1
 30 703 l 2,4,5
 27 710 27 710 27 715 c 0,6,7
 27 728 27 728 46 728 c 2,8,-1
 68 728 l 2,9,10
 116 728 116 728 132 704 c 2,11,-1
 157 664 l 1,12,-1
 188 703 l 2,13,14
 206 726 206 726 257 728 c 1,15,-1
 281 728 l 2,16,17
 300 728 300 728 300 718 c 0,18,19
 300 711 300 711 293 703 c 2,20,-1
 217 601 l 2,21,22
 203 582 203 582 154 582 c 2,0,-1
EndSplineSet
EndChar

StartChar: breve
Encoding: 728 728 207
Width: 320
GlyphClass: 2
Flags: W
LayerCount: 2
Fore
SplineSet
160 666 m 128,-1,1
 189 666 189 666 209 673.5 c 128,-1,2
 229 681 229 681 236 690 c 0,3,4
 254 715 254 715 281.5 715 c 128,-1,5
 309 715 309 715 309 691 c 0,6,7
 309 646 309 646 261.5 610.5 c 128,-1,8
 214 575 214 575 152 575 c 128,-1,9
 90 575 90 575 52 605.5 c 128,-1,10
 14 636 14 636 14 675.5 c 128,-1,11
 14 715 14 715 53 715 c 0,12,13
 76 715 76 715 89 690 c 0,14,15
 94 681 94 681 112.5 673.5 c 128,-1,0
 131 666 131 666 160 666 c 128,-1,1
EndSplineSet
EndChar

StartChar: dotaccent
Encoding: 729 729 208
Width: 320
GlyphClass: 2
Flags: W
LayerCount: 2
Fore
SplineSet
107 670 m 2,0,1
 110 702 110 702 168.5 702 c 128,-1,2
 227 702 227 702 227 670 c 1,3,-1
 220 610 l 1,4,5
 215 578 215 578 157.5 578 c 128,-1,6
 100 578 100 578 100 610 c 1,7,-1
 107 670 l 2,0,1
EndSplineSet
EndChar

StartChar: ring
Encoding: 730 730 209
Width: 320
GlyphClass: 2
Flags: W
LayerCount: 2
Fore
SplineSet
229.5 581.5 m 128,-1,1
 200 550 200 550 155 550 c 128,-1,2
 110 550 110 550 84.5 575 c 128,-1,3
 59 600 59 600 59 643 c 128,-1,4
 59 686 59 686 89.5 717.5 c 128,-1,5
 120 749 120 749 164.5 749 c 128,-1,6
 209 749 209 749 234 723.5 c 128,-1,7
 259 698 259 698 259 655.5 c 128,-1,0
 259 613 259 613 229.5 581.5 c 128,-1,1
132.5 621 m 128,-1,9
 142 612 142 612 157 612 c 128,-1,10
 172 612 172 612 184 623.5 c 128,-1,11
 196 635 196 635 196 650 c 128,-1,12
 196 665 196 665 186.5 675 c 128,-1,13
 177 685 177 685 162 685 c 128,-1,14
 147 685 147 685 135 672.5 c 128,-1,15
 123 660 123 660 123 645 c 128,-1,8
 123 630 123 630 132.5 621 c 128,-1,9
EndSplineSet
EndChar

StartChar: ogonek
Encoding: 731 731 210
Width: 320
GlyphClass: 2
Flags: W
LayerCount: 2
Fore
SplineSet
121 14 m 0,0,1
 140 14 140 14 140 -3 c 0,2,3
 140 -9 140 -9 131 -29.5 c 128,-1,4
 122 -50 122 -50 122 -70 c 0,5,6
 122 -113 122 -113 180 -113 c 0,7,8
 198 -113 198 -113 217 -106 c 128,-1,9
 236 -99 236 -99 238 -99 c 0,10,11
 249 -99 249 -99 249 -128.5 c 128,-1,12
 249 -158 249 -158 223 -170.5 c 128,-1,13
 197 -183 197 -183 161 -183 c 0,14,15
 99 -183 99 -183 76 -156 c 128,-1,16
 53 -129 53 -129 53 -93.5 c 128,-1,17
 53 -58 53 -58 70.5 -22 c 128,-1,18
 88 14 88 14 121 14 c 0,0,1
EndSplineSet
EndChar

StartChar: tilde
Encoding: 732 732 211
Width: 365
GlyphClass: 2
Flags: W
LayerCount: 2
Fore
SplineSet
86 608.5 m 128,-1,1
 70 603 70 603 60 603 c 128,-1,2
 50 603 50 603 36.5 617 c 128,-1,3
 23 631 23 631 23 650 c 128,-1,4
 23 669 23 669 57 688 c 128,-1,5
 91 707 91 707 125 707 c 128,-1,6
 159 707 159 707 197 698.5 c 128,-1,7
 235 690 235 690 248.5 690 c 128,-1,8
 262 690 262 690 279 695.5 c 128,-1,9
 296 701 296 701 306.5 701 c 128,-1,10
 317 701 317 701 330 686.5 c 128,-1,11
 343 672 343 672 343 653 c 128,-1,12
 343 634 343 634 309 614.5 c 128,-1,13
 275 595 275 595 240.5 595 c 128,-1,14
 206 595 206 595 167.5 604.5 c 128,-1,15
 129 614 129 614 115.5 614 c 128,-1,0
 102 614 102 614 86 608.5 c 128,-1,1
EndSplineSet
EndChar

StartChar: hungarumlaut
Encoding: 733 733 212
Width: 384
GlyphClass: 2
Flags: W
LayerCount: 2
Fore
SplineSet
196 595 m 0,0,1
 167 595 167 595 167 608 c 0,2,3
 167 614 167 614 175.5 626.5 c 128,-1,4
 184 639 184 639 191.5 650 c 128,-1,5
 199 661 199 661 214 682.5 c 128,-1,6
 229 704 229 704 245.5 729 c 128,-1,7
 262 754 262 754 326 754 c 128,-1,8
 390 754 390 754 390 741 c 0,9,10
 390 734 390 734 385.5 728.5 c 128,-1,11
 381 723 381 723 345 688.5 c 128,-1,12
 309 654 309 654 279 624.5 c 128,-1,13
 249 595 249 595 196 595 c 0,0,1
14 595 m 0,14,15
 -15 595 -15 595 -15 608 c 0,16,17
 -15 614 -15 614 -6.5 626.5 c 128,-1,18
 2 639 2 639 9.5 650 c 128,-1,19
 17 661 17 661 32 682.5 c 128,-1,20
 47 704 47 704 63.5 729 c 128,-1,21
 80 754 80 754 144 754 c 128,-1,22
 208 754 208 754 208 741 c 0,23,24
 208 734 208 734 203.5 728.5 c 128,-1,25
 199 723 199 723 177.5 702.5 c 128,-1,26
 156 682 156 682 148 674 c 0,27,28
 124 652 124 652 95.5 623.5 c 128,-1,29
 67 595 67 595 14 595 c 0,14,15
EndSplineSet
EndChar

StartChar: pi
Encoding: 960 960 213
Width: 616
GlyphClass: 2
Flags: W
LayerCount: 2
Fore
SplineSet
32 20 m 1,0,-1
 35 31 l 1,1,2
 69 105 69 105 100 210 c 128,-1,3
 131 315 131 315 145 406 c 1,4,5
 101 406 101 406 79 400 c 128,-1,6
 57 394 57 394 55 394 c 0,7,8
 26 394 26 394 26 456 c 0,9,10
 26 495 26 495 65.5 509 c 128,-1,11
 105 523 105 523 189 523 c 2,12,-1
 594 523 l 2,13,14
 625 523 625 523 625 493 c 0,15,16
 625 481 625 481 615 439 c 0,17,18
 608 406 608 406 575 406 c 2,19,-1
 528 406 l 1,20,-1
 501 154 l 2,21,22
 496 107 496 107 496 81 c 128,-1,23
 496 55 496 55 496 42 c 1,24,-1
 497 30 l 1,25,26
 497 -2 497 -2 433 -2 c 2,27,-1
 406 -2 l 2,28,29
 350 -2 350 -2 350 80 c 0,30,31
 350 83 350 83 353 119 c 2,32,-1
 383 406 l 1,33,-1
 290 406 l 1,34,35
 275 311 275 311 243 200.5 c 128,-1,36
 211 90 211 90 179 27 c 0,37,38
 164 -2 164 -2 106 -2 c 2,39,-1
 93 -2 l 2,40,41
 65 -2 65 -2 48.5 4.5 c 128,-1,42
 32 11 32 11 32 20 c 1,0,-1
EndSplineSet
EndChar

StartChar: endash
Encoding: 8211 8211 214
Width: 500
GlyphClass: 2
Flags: W
LayerCount: 2
Fore
SplineSet
-3 246 m 0,0,1
 -3 319 -3 319 34 319 c 2,2,-1
 478 319 l 2,3,4
 504 319 504 319 504 285 c 0,5,6
 504 212 504 212 467 212 c 2,7,-1
 23 212 l 2,8,9
 -3 212 -3 212 -3 246 c 0,0,1
EndSplineSet
EndChar

StartChar: emdash
Encoding: 8212 8212 215
Width: 1000
GlyphClass: 2
Flags: W
LayerCount: 2
Fore
SplineSet
0 246 m 0,0,1
 0 319 0 319 37 319 c 2,2,-1
 974 319 l 2,3,4
 1000 319 1000 319 1000 285 c 0,5,6
 1000 212 1000 212 963 212 c 2,7,-1
 26 212 l 2,8,9
 0 212 0 212 0 246 c 0,0,1
EndSplineSet
EndChar

StartChar: quoteleft
Encoding: 8216 8216 216
Width: 212
GlyphClass: 2
Flags: W
LayerCount: 2
Fore
SplineSet
74 475 m 2,0,-1
 55 475 l 2,1,2
 -1 475 -1 475 -1 515 c 128,-1,3
 -1 555 -1 555 30 613 c 128,-1,4
 61 671 61 671 100 712.5 c 128,-1,5
 139 754 139 754 162 754 c 0,6,7
 204 754 204 754 204 734 c 0,8,9
 204 723 204 723 191 698 c 0,10,11
 150 621 150 621 138 519 c 1,12,13
 135 475 135 475 74 475 c 2,0,-1
EndSplineSet
EndChar

StartChar: quoteright
Encoding: 8217 8217 217
Width: 212
GlyphClass: 2
Flags: W
LayerCount: 2
Fore
SplineSet
138 754 m 2,0,-1
 157 754 l 2,1,2
 213 754 213 754 213 714 c 128,-1,3
 213 674 213 674 182 616 c 128,-1,4
 151 558 151 558 112 516.5 c 128,-1,5
 73 475 73 475 50 475 c 0,6,7
 8 475 8 475 8 495 c 0,8,9
 8 506 8 506 21 530 c 0,10,11
 62 608 62 608 74 710 c 1,12,13
 77 754 77 754 138 754 c 2,0,-1
EndSplineSet
EndChar

StartChar: quotesinglbase
Encoding: 8218 8218 218
Width: 198
GlyphClass: 2
Flags: W
LayerCount: 2
Fore
SplineSet
130 154 m 2,0,-1
 149 154 l 2,1,2
 205 154 205 154 205 114 c 128,-1,3
 205 74 205 74 174 16 c 128,-1,4
 143 -42 143 -42 104 -83.5 c 128,-1,5
 65 -125 65 -125 42 -125 c 0,6,7
 0 -125 0 -125 0 -105 c 0,8,9
 0 -94 0 -94 13 -70 c 0,10,11
 54 8 54 8 66 110 c 1,12,13
 69 154 69 154 130 154 c 2,0,-1
EndSplineSet
EndChar

StartChar: quotedblleft
Encoding: 8220 8220 219
Width: 350
GlyphClass: 2
Flags: W
LayerCount: 2
Fore
SplineSet
231 475 m 2,0,-1
 212 475 l 2,1,2
 156 475 156 475 156 515 c 128,-1,3
 156 555 156 555 187 613 c 128,-1,4
 218 671 218 671 257 712.5 c 128,-1,5
 296 754 296 754 319 754 c 0,6,7
 361 754 361 754 361 734 c 0,8,9
 361 723 361 723 348 698 c 0,10,11
 307 621 307 621 295 519 c 1,12,13
 292 475 292 475 231 475 c 2,0,-1
54 475 m 2,14,-1
 35 475 l 2,15,16
 -21 475 -21 475 -21 515 c 128,-1,17
 -21 555 -21 555 10 613 c 128,-1,18
 41 671 41 671 80 712.5 c 128,-1,19
 119 754 119 754 142 754 c 0,20,21
 184 754 184 754 184 734 c 0,22,23
 184 723 184 723 171 698 c 0,24,25
 130 621 130 621 118 519 c 1,26,27
 115 475 115 475 54 475 c 2,14,-1
EndSplineSet
EndChar

StartChar: quotedblright
Encoding: 8221 8221 220
Width: 350
GlyphClass: 2
Flags: W
LayerCount: 2
Fore
SplineSet
295 754 m 2,0,-1
 314 754 l 2,1,2
 370 754 370 754 370 714 c 128,-1,3
 370 674 370 674 339 616 c 128,-1,4
 308 558 308 558 269 516.5 c 128,-1,5
 230 475 230 475 207 475 c 0,6,7
 165 475 165 475 165 495 c 0,8,9
 165 506 165 506 178 530 c 0,10,11
 219 608 219 608 231 710 c 1,12,13
 234 754 234 754 295 754 c 2,0,-1
118 754 m 2,14,-1
 137 754 l 2,15,16
 193 754 193 754 193 714 c 128,-1,17
 193 674 193 674 162 616 c 128,-1,18
 131 558 131 558 92 516.5 c 128,-1,19
 53 475 53 475 30 475 c 0,20,21
 -12 475 -12 475 -12 495 c 0,22,23
 -12 506 -12 506 1 530 c 0,24,25
 42 608 42 608 54 710 c 1,26,27
 57 754 57 754 118 754 c 2,14,-1
EndSplineSet
EndChar

